<svg xmlns="http://www.w3.org/2000/svg" xmlns:xlink="http://www.w3.org/1999/xlink" viewBox="0 0 232.13 235.07"><defs><style>.cls-1{fill:#463935;}.cls-2{fill:#fefefe;}.cls-3{fill:#fbacb9;}.cls-4{fill:#fef1b8;}.cls-5{fill:#ffdfb3;}.cls-6{fill:#7ff4ea;}.cls-7{fill:url(#linear-gradient);}</style><linearGradient id="linear-gradient" x1="1219.73" y1="-1346.43" x2="1357.32" y2="-1217.37" gradientTransform="matrix(0.25, 0, 0, -0.25, -278.25, -213.75)" gradientUnits="userSpaceOnUse"><stop offset="0" stop-color="#fad3c1"/><stop offset="1" stop-color="#fffac2"/></linearGradient></defs><g id="Layer_1" data-name="Layer 1"><path class="cls-1" d="M71.32,11.8A33.31,33.31,0,0,1,101.88,29c9.61,18.13,1.46,37.86-7,54.57-4.33,8.74-8.56,16.47-7.72,26.65.58,7,2.44,10.47,5.71,16.34,2.71-.9,5.43-1.74,8.16-2.59a55.33,55.33,0,0,1-3-8.3c-3-12.19-.17-24.08,4.55-35.4,1.65-4.38,4.12-8.69,5.57-13.11a53.57,53.57,0,0,0,2.47-20.85,45.84,45.84,0,0,0-2.85-12.35,22.89,22.89,0,0,1,2.07,4.55c2.61,7.24,2.69,14.38,1.66,21.93a47.33,47.33,0,0,0,2.92-16.31c.16-8.8-6.61-22.52,3.86-27.8,6.41-3.23,15.07-.12,16.65,7.25a8.93,8.93,0,0,1-6.69,10.78c-3.15.66-7-1.44-7.49-4.78-.29-2.05.57-4,2.81-4.13,1-.08,2.39.63,2.45,1.7-.69.94-2.47.24-3.33,1.14a1.6,1.6,0,0,0-.22,1.71c.73,2.33,3.64,3.15,5.76,2.22,2.68-1.19,3.36-4.21,2.28-6.77-1.89-4.27-7.11-5.55-11.18-3.78-3.67,1.58-5.06,5.17-4.51,9,.58,4,1.61,7.85,1.78,11.88a45.81,45.81,0,0,1-2.45,17.26c-.58,1.7-1.3,3.34-2,5-3.79,8.47-8,16.78-10.65,25.71A49.52,49.52,0,0,0,100,113.72a48.15,48.15,0,0,0,3.18,9.54c3.9-1.28,8-2.26,11.92-3.27a263.29,263.29,0,0,1,26.22-5.41c12.71-1.89,35.21-4.34,46.08,3.8a14,14,0,0,1,4,4.33c2.74,4.91,5.15,19.2,6,24.91a33.43,33.43,0,0,1,11-10.18,26.68,26.68,0,0,1,20.48-2.78,21.55,21.55,0,0,1,13,10.59,22.61,22.61,0,0,1,1.34,17.12c-3.2,10.33-12,18-20.84,23.62-2.22,1.39-4.56,2.52-6.84,3.76,5.23,3.66,3.37,9.13-1.84,11.45-4.78,2.12-14.3,2.79-16.86-3-1.32-3-.3-6.92,1.7-9.41,2.68-3.35,6.56-5.23,10.21-7.32,6.1-3.66,12.7-8,15.44-14.87,1.58-4,2.25-9.57-.89-13-1.95-2.17-5.16-2-7.53-.65-7.1,3.92-11.39,11.32-14.82,18.4a46.09,46.09,0,0,0-1.95,4.49c-.66,2.54-.79,5.61-1.37,8.23-1,4.42-2.23,8.86-3.62,13.15-3.62,9.65-8.59,16.57-15.47,24A4.93,4.93,0,0,1,179,225c-1,3.72-5.52,6.53-8.67,8.29-14.21,7.94-38.47,14.25-54.7,13.47a33,33,0,0,1-7.66-1,9.56,9.56,0,0,1-6.45-5,44.11,44.11,0,0,1-7.09-2.15c-20.8-8.53-34.79-28.33-43.5-48.31-2.52-5.77-4.63-11.68-6.67-17.62-.88-2.78-2-5.61-2.36-8.52-.71-6.1,3.06-10.92,7.2-14.87,8.61-8.2,19.68-13.13,30.45-17.8,3.24-1.4,6.61-2.58,9.88-4-1.69-2.6-3.5-3.86-5-7A36.88,36.88,0,0,1,81,104,56.3,56.3,0,0,1,85,83.45c5.43-14.77,14.78-26.64,11.3-43.37C94.19,29.75,84.45,17.93,74,14.18c-1.71-.61-8.31.56-10.42,1A40.46,40.46,0,0,0,38.06,33c-6.92,10.78-7.81,26.22,4.1,33.85,6,3.82,13.57,4.32,20.42,2.74,9.92-2.29,18.9-11.3,16.32-22.11C77.13,40.13,69.05,34,61.44,36.19a13.59,13.59,0,0,0-8.38,6.44c-3.93,7.18.72,16,9.52,13.43,2.32-.69,3.72-2.52,4.75-4.62-2.64,2.11-5.75,3-8.82.83C54.1,49.12,55.94,41.41,61.61,41c7.61-.63,10,8.21,5.52,13.28a9.58,9.58,0,0,1-13.66,1.21c-4.88-4-4.43-12.26-.37-16.64A15.22,15.22,0,0,1,71,34.87,18.39,18.39,0,0,1,81.6,50.11a19.48,19.48,0,0,1-5,13.82c-9.35,10.59-28.22,11.85-38.78,2.38-12-11-7.16-30,2.82-40.54A44.31,44.31,0,0,1,71.32,11.8Z" transform="translate(-12.18 -11.76)"/><path class="cls-2" d="M160.08,116.18c1.89-.1,4.51-.07,6.48,0,7,.32,15.69,1.18,20.87,6.42A5.82,5.82,0,0,1,189,127c-.24,4.24-6.77,10.66-9.81,13.31-4.58,4-11.18,7.45-16.66,10.06C142.34,160,120,165.84,98.09,170c-8.39,1.59-17.1,3.18-25.65,3.51A71.46,71.46,0,0,1,58.88,173c-2-.28-4.45-1.18-6.16-1.33-.37.22-.24.07-.41.45a.58.58,0,0,0,.11.28c.66,1.12,3.63,1.82,4.79,2.13,20.16,5.44,68.57-7.28,89-14.74a159.14,159.14,0,0,0,24.55-11.25c6.2-3.56,13.71-9,17.16-15.36a24.46,24.46,0,0,0,1.92-5.25,78.7,78.7,0,0,1,2.6,10c2.84,13.16,4.5,27.64,2.86,41.06C193.42,194.77,185.11,212,172.44,222c-9.61,7.53-21.39,11.26-33.06,14.24-10.69,2.73-19.6,3.61-30.49,2.32,1.39-.72,4.38-1.59,5.39-2.39a5.43,5.43,0,0,0-.43-2.64c-.53-1.69-.79-3.41-2-4.74-2,.42-3.92.84-5.91,1.32-.8.22-4,.83-4.38,1.25-.18,1.08,1.08,5.1,1.47,6.34a40,40,0,0,1-9.59-3.11c-22.65-10.75-35.7-34.41-44-57C48,173,45.65,168,45.08,163.25s4-9.37,7.15-12.14c11.32-9.78,26.27-15.92,40.23-20.84l1.26,1.41c-12.86,4.74-26,9.95-36.89,18.5-3.52,2.77-8.31,7.17-7.2,12.2a5.69,5.69,0,0,0,2.92,3.73c4.35,2.19,9.64,2.16,14.41,2.18,11.43,0,22.73-1.83,34-3.82a234.94,234.94,0,0,0,28.66-6.92c12.11-3.75,24.71-8.07,35.78-14.34,5.44-3.07,18.35-10.23,16.46-17.76A7.83,7.83,0,0,0,178,121c-4.45-2.11-10-2.34-14.84-2.44-19.1,0-39.23,4-57.5,9.42l-.7-1.68C122.21,121,142.07,117,160.08,116.18Z" transform="translate(-12.18 -11.76)"/><path class="cls-1" d="M165.2,172.18c1.6-.27,4.48-.12,5.63,1.14a16.62,16.62,0,0,1,2.41,4.47c1.7,4,3.57,8.31,3.77,12.71a6.8,6.8,0,0,1-2.25,5.35c-6.53,6.24-21.9,10.54-30.66,10.53-1.31,0-4.16-.28-5.12-1.23-3-2.94-4.22-8.9-5.46-12.81a47.9,47.9,0,0,1-1.32-5.11c-.64-3.36,3.89-5.15,6.35-6.45C146.46,176.59,156.28,173.08,165.2,172.18Z" transform="translate(-12.18 -11.76)"/><path class="cls-2" d="M167.09,174.06a3,3,0,0,1,2.33.69c.88.87,5,11.43,5.48,13.08a7.54,7.54,0,0,1,.35,2.36,6,6,0,0,1-1.93,4.44c-5.42,5.16-23.41,9.71-30.88,9.57-2.34-.13-2.82-.42-3.81-2.69-1.26-2.89-2-6-3-9a50.63,50.63,0,0,1-1.79-5.47,1.32,1.32,0,0,1,.22-1.14,18,18,0,0,1,4.4-2.62c2.55-1.27,5.11-2.67,7.73-3.75a94.36,94.36,0,0,1,13.52-4.06A49.74,49.74,0,0,1,167.09,174.06Z" transform="translate(-12.18 -11.76)"/><path class="cls-1" d="M157.59,181.94c1.6.14,8.4,3.82,9.25,5.31.25.44-4.11,6.28-5.6,6.37a.85.85,0,0,1-.39-1.28c1-1.66,2.15-3.21,3.13-4.89l-3.36-2.2a18.06,18.06,0,0,0-2-1.11c-.59,1.55-1,3.3-1.49,4.89a80.66,80.66,0,0,1-3.09,8.28c-.12.27-.41.27-.64.28s-.29-.13-.38-.34C152.45,196,156.75,183.87,157.59,181.94Z" transform="translate(-12.18 -11.76)"/><path class="cls-1" d="M147.31,188.49c.64,0,1-.09,1.17.57-.32,1.38-2.72,3.5-3.69,5.07l-.09.15c1.25.23,5.51.65,5.43,2.28-.23.41-.28.39-.67.62-1.5-.3-5.9-1-6.71-2.05C142.23,193.37,145.81,189.46,147.31,188.49Z" transform="translate(-12.18 -11.76)"/><path class="cls-1" d="M70,185.42h.36a75.74,75.74,0,0,1,2.88,9.33c-.72.57-8.78,1.79-10.19,2-.35,0-.91,0-1.27.05a47.5,47.5,0,0,1-2-9.13A104.74,104.74,0,0,1,70,185.42Z" transform="translate(-12.18 -11.76)"/><path class="cls-3" d="M64,192l2.9-.87a2,2,0,0,1,.1.9l-.31.54c1.24,1.47,3.47.35,5-.24l.6,1.56c-2.56.65-6.85,1.29-9.55,1.77-.28-1-.53-2.11-.79-3.13Z" transform="translate(-12.18 -11.76)"/><path class="cls-2" d="M64,192l2.9-.87a2,2,0,0,1,.1.9l-.31.54A3.93,3.93,0,0,1,64,192Z" transform="translate(-12.18 -11.76)"/><path class="cls-4" d="M61,188.52c2.65-.54,6.09-1.35,8.67-1.71.23.67.38,1.25.56,1.94l-.2,0a1,1,0,0,0-.7,0,69.58,69.58,0,0,1-7.73,2.62C61.34,190.43,61.16,189.45,61,188.52Z" transform="translate(-12.18 -11.76)"/><path class="cls-5" d="M70.21,188.75l.87,2.34a7,7,0,0,1-4.12,1,2,2,0,0,0-.1-.9c1.09-.44,3.14-1,3.15-2.38Z" transform="translate(-12.18 -11.76)"/><path class="cls-1" d="M97.19,182.16a2.8,2.8,0,0,1,1.08,0c.72.58,2.35,6.67,2,7.71-1.42,1.39-7.52,3.3-9.63,3.85-.29-.08-.59-.13-.72-.48-.65-1.73-2.82-7.4-2.41-9C88.17,183.62,95.78,182.41,97.19,182.16Z" transform="translate(-12.18 -11.76)"/><path class="cls-3" d="M94,188.17c1.59-.32,3.18-.78,4.75-1.2.19.75.4,1.52.54,2.28-1.78.86-6.24,2.89-8.08,3.06-.26-.1-.2,0-.4-.22a19.44,19.44,0,0,1-.89-2.67A18.87,18.87,0,0,1,94,188.17Z" transform="translate(-12.18 -11.76)"/><path class="cls-4" d="M90,189.42A18.87,18.87,0,0,1,94,188.17c1.24,2.8-1.47,2.71-3.19,3.92A19.44,19.44,0,0,1,90,189.42Z" transform="translate(-12.18 -11.76)"/><path class="cls-3" d="M97.6,183.43l.23.1a10,10,0,0,1,.54,2.05c-3.15,1.09-5.35,1.11-8.92,2.66a22,22,0,0,1-.93-3.3C91.57,184.48,94.56,183.93,97.6,183.43Z" transform="translate(-12.18 -11.76)"/><path class="cls-1" d="M107.13,212.65c.77-.07,1,.24,1.28.95.32.91,2,6.25,1.28,6.82-2,1.63-7.69,3.68-10.24,3.9a59.8,59.8,0,0,1-3-8.76,13.54,13.54,0,0,1,1.78-.54C101.2,214.26,104.14,213.37,107.13,212.65Z" transform="translate(-12.18 -11.76)"/><path class="cls-3" d="M106.69,214l.31,0c.59.34.73,1.32.93,2-2.65.88-5.37,1.51-8,2.39a12.34,12.34,0,0,0,.5,1.32c2.33-.4,5.55-1.4,7.89-2.07.17.66.32,1.4.46,2.06-.45.26-.93.51-1.39.75a32.51,32.51,0,0,1-7.2,2.57,55,55,0,0,1-2.29-6.66A89.62,89.62,0,0,1,106.69,214Z" transform="translate(-12.18 -11.76)"/><path class="cls-1" d="M103.4,197.41c1,.8,2.11,5.67,2.39,7.12-1.68,1.16-8.94,4.23-10.88,4.37-.38-1.13-2.81-7.44-2.54-8.08C93.61,199.89,101.46,197.89,103.4,197.41Z" transform="translate(-12.18 -11.76)"/><path class="cls-3" d="M103.92,202.26l.14.05a4.92,4.92,0,0,1,.53,1.65c-1.86.87-6.93,3.22-8.84,3.51a18.07,18.07,0,0,1-1.08-2.66C97.59,204.19,101,203.1,103.92,202.26Z" transform="translate(-12.18 -11.76)"/><path class="cls-3" d="M102.53,198.77a1.06,1.06,0,0,1,.34.06,7,7,0,0,1,.74,1.88c-3,.86-5.93,1.74-9,2.71-.11.05,0,0-.26,0a11.28,11.28,0,0,1-.91-2.06C95.74,200.55,100.16,199.36,102.53,198.77Z" transform="translate(-12.18 -11.76)"/><path class="cls-1" d="M90.05,219.29c.8-.11,1.19.35,1,1.12-.67.76-11.47,2.31-13.28,2.53a.8.8,0,0,1-.87-.17c-.17-.5-.16-.26,0-.76C77.52,221.31,88.36,219.56,90.05,219.29Z" transform="translate(-12.18 -11.76)"/><path class="cls-1" d="M77.5,203.79a1.19,1.19,0,0,1,.83,0c1,1.17-.73,1.57-1.64,1.75a84.18,84.18,0,0,1-9,1.52c-.92.08-1.48-.09-.93-1.17C67.34,205.33,76,204.05,77.5,203.79Z" transform="translate(-12.18 -11.76)"/><path class="cls-1" d="M82.93,185.91l.44,0c.35.16.33.19.55.52a.58.58,0,0,1-.06.43c-.74,1.14-8.75,2.14-10.33,2.42-.53,0-.59,0-.93-.32-.49-1.44,2.11-1.59,3-1.76C78.07,186.73,80.5,186.33,82.93,185.91Z" transform="translate(-12.18 -11.76)"/><path class="cls-1" d="M125.44,225.15h0c.41,0,.43,0,.72.25,0,.18.1.29,0,.47-.64,1.16-8.8,3.1-10.4,3.51-.21,0-.37,0-.53-.14a1.4,1.4,0,0,1-.32-1.13C115.75,227.28,123.79,225.5,125.44,225.15Z" transform="translate(-12.18 -11.76)"/><path class="cls-1" d="M120.66,209.28l.46,0c.45.24.31.07.51.47l-.12.31c-1.17,1.07-8.31,3.11-10.11,3.46-.64,0-.7.11-1-.39,0-.2,0-.36.11-.52C111.33,211.5,119,209.59,120.66,209.28Z" transform="translate(-12.18 -11.76)"/><path class="cls-1" d="M116,193.51a.9.9,0,0,1,.74.51c-.3,1.3-8.52,3.73-10,3.95a.71.71,0,0,1-.79-.31c-.09-.8.75-1.15,1.42-1.38C110.09,195.32,113.09,194.24,116,193.51Z" transform="translate(-12.18 -11.76)"/><path class="cls-1" d="M111.21,179.64c.36.05.18,0,.52.26.18.46.16.23.08.71-.5.69-8.36,2.79-9.78,3.13-.48,0-.51-.13-.73-.5a.78.78,0,0,1,.08-.52C102.24,181.48,109.46,180.06,111.21,179.64Z" transform="translate(-12.18 -11.76)"/><path class="cls-1" d="M120.63,229.78a1,1,0,0,1,.5.36.83.83,0,0,1,0,.47c-.41.9-4.55,2.07-5.6,2.4a1.81,1.81,0,0,1-.33-.28.84.84,0,0,1-.11-.79C116,230.77,119.18,230.09,120.63,229.78Z" transform="translate(-12.18 -11.76)"/><path class="cls-1" d="M73.31,208.55c.55-.05.61.1.84.52-.15,1.28-3.94,1.48-5,1.62-.55-.13-.53-.16-.79-.5,0-.23-.07-.33.06-.48C69.05,208.87,72.23,208.68,73.31,208.55Z" transform="translate(-12.18 -11.76)"/><path class="cls-1" d="M78,190.16c.73-.1,1.27-.1,1.55.67-.27,1-2.61,1.1-3.53,1.24s-.93.07-1.34-.59C74.56,190.35,77.06,190.3,78,190.16Z" transform="translate(-12.18 -11.76)"/><path class="cls-1" d="M111.43,198.48c.34,0,.21,0,.55.18.43,1.29-3.24,2.47-4.18,2.79a1.19,1.19,0,0,1-.61-.26c-.15-.39-.14-.19,0-.61C108,199.77,110.29,199,111.43,198.48Z" transform="translate(-12.18 -11.76)"/><path class="cls-1" d="M115.1,214.51a1.46,1.46,0,0,1,.51,0c.43.37.54.41.32.9a12.88,12.88,0,0,1-3.7,1.56c-.5.06-.55.09-.88-.24C111,215.49,114.13,214.83,115.1,214.51Z" transform="translate(-12.18 -11.76)"/><path class="cls-1" d="M84.43,223.65a5.23,5.23,0,0,1,.69,0,1.87,1.87,0,0,1,.7.61c0,.17,0,.27-.09.4-.59.75-2.39.82-3.26,1a1.24,1.24,0,0,1-1.1-.27.59.59,0,0,1-.13-.66C82,224,83.44,223.85,84.43,223.65Z" transform="translate(-12.18 -11.76)"/><path class="cls-1" d="M105.63,184.38a2,2,0,0,1,1.08.12c.2.26.15.12.11.45-.57.87-2.2,1.39-3.15,1.74-.72.16-1.16,0-1.14-.83C103,185.12,104.71,184.71,105.63,184.38Z" transform="translate(-12.18 -11.76)"/><path class="cls-2" d="M220.44,136.93c3.62-.59,8.38.65,11.6,2.4A17.66,17.66,0,0,1,240.43,150c3.73,14.62-8.61,26.27-19.71,33.47-4.05,2.87-10.08,4.11-13,8.24a1.56,1.56,0,0,0,.43,2.27c1,0,1.57-.88,2.31-1.45,3.49-2.65,7.63,2.51,3.09,5.12-4.07,2.33-15.54,3.71-14-4,.56-2.92,3.91-5.31,6.29-6.69,12.31-6.36,27.94-18.65,24.28-34.65a10.51,10.51,0,0,0-13.73-7.84c-8.41,2.63-13.44,10-17.57,17.33-.25-3.29-.53-6.61-.72-9.9C204,143.73,209.8,137.92,220.44,136.93Z" transform="translate(-12.18 -11.76)"/><path class="cls-2" d="M156,120.32a73.06,73.06,0,0,1,18.21,1c8.38,1.72,6.92,8,1.52,12.38a8.44,8.44,0,0,0-1.62-1.48c-8.75-6-33.45-1.78-43.67.21-6.45,1.4-13.51,3.1-19.88,4.92-1.41-2.64-2.76-5.17-4.1-7.85C122.69,124.84,139.06,121.11,156,120.32Z" transform="translate(-12.18 -11.76)"/><path class="cls-2" d="M94.91,133.17c1,.62,2.61,2.14,3.63,2.92,1.65,1.25,3.17,2.27,4.9,3.42-1.77.69-3.72,1.23-5.52,1.88-10.57,3.81-20.76,8.42-30,14.83-3.71,2.56-6.61,4.35-8.81,8.43l-.47.95a18.37,18.37,0,0,1-4.68-1.18A4.27,4.27,0,0,1,51.51,162a5.7,5.7,0,0,1,.55-4.36C57.23,147.67,84.43,136.46,94.91,133.17Z" transform="translate(-12.18 -11.76)"/><path class="cls-4" d="M75.47,14.26a21.27,21.27,0,0,1,4.41.66A30.79,30.79,0,0,1,99.34,29c9.64,16.52,2.59,34.4-4.88,50.08-2.94,6.2-7.23,13.44-8.72,20-2.1,9.26-1,18.19,4,26.31.29.44.94,1.24.79,1.77h-.21c-2-1.23-4.17-5.92-5.09-8.08-4.69-11-2.88-23.46,1.23-34.35,6.19-16.39,17.72-32.23,9.68-50.31A37.22,37.22,0,0,0,75.47,14.26Z" transform="translate(-12.18 -11.76)"/><path class="cls-2" d="M175.14,222.23a1.63,1.63,0,0,1,.65.7,1.71,1.71,0,0,1-.07,1.33c-1.61,4-11.57,8.49-15.48,10.13-12.42,5.21-32.44,9.94-45.84,9.08a22.12,22.12,0,0,1-7-1.26c-.21-.12-.41-.25-.61-.39-.36-.24-.86-.55-1-1,.58-.49,3.08,0,4,.06,14.22,1.07,28.49-2,41.93-6.48C160.64,231.46,167.81,228.1,175.14,222.23Z" transform="translate(-12.18 -11.76)"/><path class="cls-2" d="M218.47,145.42a9.64,9.64,0,0,1,5.67,1c5.54,3,5.62,10.55,4.57,15.85-.31-4.19.32-7.44-3-10.84-5.47-5.53-12.32-1.59-17,2.84-5.14,5-6.63,8.45-9.81,14.51a28.62,28.62,0,0,1,0-4.17C202.44,156.54,209.41,146.86,218.47,145.42Z" transform="translate(-12.18 -11.76)"/><path class="cls-4" d="M62.11,43c5.21,0,7.23,7.24,1,8.38C56.73,51.84,56.64,43.89,62.11,43Z" transform="translate(-12.18 -11.76)"/><path class="cls-2" d="M103.93,130.14a.6.6,0,0,1,.25.19,88,88,0,0,0,4.65,7.53c-1.06.28-2.14.7-3.17,1.07a18.52,18.52,0,0,1-1.73-1.21,77.22,77.22,0,0,1-6.57-5.56C99.57,131.52,101.74,130.83,103.93,130.14Z" transform="translate(-12.18 -11.76)"/><path class="cls-6" d="M117.1,147.24a1.52,1.52,0,0,1,1.14.25.8.8,0,0,1,.06.75c-.81,2.18-12.92,9.74-15.61,10.85a1.74,1.74,0,0,1-1.08-.1c-.35-.63.67-1.69,1.14-2C107.3,154,112.18,149.51,117.1,147.24Z" transform="translate(-12.18 -11.76)"/><path class="cls-2" d="M122.44,17c7.06-1.31,14.46,6.43,9.88,12.87.88-3.8.19-7.39-3.42-9.53a11.05,11.05,0,0,0-9.49-.49c-3.12,1.32-4,3.4-5.22,6.35C114.72,20.91,116.91,17.84,122.44,17Z" transform="translate(-12.18 -11.76)"/><path class="cls-6" d="M160.59,135.39a.9.9,0,0,1,.81.51,1,1,0,0,1-.12.73c-1,1.67-11.45,8.84-13.45,9.32-.62-.08-.55,0-1-.31C146.33,143.52,158.37,136,160.59,135.39Z" transform="translate(-12.18 -11.76)"/><path class="cls-4" d="M98.68,150.63a1.43,1.43,0,0,1,1.58.48,1.53,1.53,0,0,1-.11.67c-1,2.11-9.74,8-12.21,8.95a1.54,1.54,0,0,1-1.31-.24.66.66,0,0,1,0-.61C87.12,158.38,96.73,151.5,98.68,150.63Z" transform="translate(-12.18 -11.76)"/><path class="cls-4" d="M146.47,136.38a1.39,1.39,0,0,1,1.33.28.94.94,0,0,1,0,.7c-.6,1.55-9.36,7.93-11.35,8.84-.53.06-.9.13-1.32-.26a.86.86,0,0,1-.06-.63C135.58,143.44,144.55,137.48,146.47,136.38Z" transform="translate(-12.18 -11.76)"/><path class="cls-3" d="M82.1,154.38c.66,0,1,.06,1.21.72-.29,1.87-8.91,7.1-11,7.65-.62,0-.79.07-1.17-.45C71,160.55,80.42,154.84,82.1,154.38Z" transform="translate(-12.18 -11.76)"/><path class="cls-3" d="M111.15,230.17c.6.34.81,1.52,1,2.15-2.77.78-5.68,1.26-8.49,2-.18,0-.07,0-.3-.08a10.64,10.64,0,0,1-.64-2.1C105.51,231.39,108.31,230.7,111.15,230.17Z" transform="translate(-12.18 -11.76)"/><path class="cls-4" d="M109,144c.58,0,.73-.06,1.16.36a.91.91,0,0,1-.09.81c-.8,1.41-5.52,4.48-6.88,5-.71,0-.91.08-1.26-.56C101.91,147.76,107.35,144.58,109,144Z" transform="translate(-12.18 -11.76)"/><path class="cls-3" d="M132.26,146.64c.54.08.58.12.85.46.31,2-5.67,5.22-7.45,5.63a.9.9,0,0,1-1-.52C124.84,150.56,130.72,147,132.26,146.64Z" transform="translate(-12.18 -11.76)"/><path class="cls-3" d="M127.73,139.87c.6,0,.69,0,1,.48.14,1.68-6.14,5.36-7.56,5.9-.56.06-.93.09-1.19-.44C120.12,144.09,126.13,140.41,127.73,139.87Z" transform="translate(-12.18 -11.76)"/><path class="cls-3" d="M112.15,233.91a1,1,0,0,1,.43,0,3.23,3.23,0,0,1,.56,1.38,42.22,42.22,0,0,1-8,2.52.67.67,0,0,1-.58-.15,5.7,5.7,0,0,1-.48-1.82C106.69,235.07,109.44,234.48,112.15,233.91Z" transform="translate(-12.18 -11.76)"/><path class="cls-2" d="M102.18,127.14l.23.07a5.55,5.55,0,0,1,.9,1.52l-6.91,2.14c-.43-.11-1-1.08-1.32-1.48C97.54,128.51,99.66,127.81,102.18,127.14Z" transform="translate(-12.18 -11.76)"/><path class="cls-3" d="M89.45,149.51a1.81,1.81,0,0,1,1.35.27c.55,1.39-3.31,3.59-4.43,4a1.42,1.42,0,0,1-1.32-.21c-.12-.25-.26-.44-.11-.75C85.54,151.63,88.33,150,89.45,149.51Z" transform="translate(-12.18 -11.76)"/><path class="cls-1" d="M41.68,80.68c7-.67,14.33,2.23,19.55,6.78,11.36,9.9,13,26.84,6.89,40-.34.73-2.15,4.53-3,4.56a36.72,36.72,0,0,1,1.27-5c4-13.87-5.2-31.53-19.42-35.14a13.12,13.12,0,0,0-6.7,0c-6.39,2-9,6.71-7.16,13.15.85,2.53,2.16,4.66,4.66,5.83,2.81,1.31,6.27.55,7.51-2.5a9,9,0,0,0,.18-6.38,4.52,4.52,0,0,0-4.17-2.59c-.79-.05-1.71-.12-2-1a.71.71,0,0,1,.11-.25c1.66-1.49,4.37-.79,5.93.55,5.68,4.89,4.27,14.17-.14,19.36-6.07,7.16-15.54,9.35-23.07,3.11a17.39,17.39,0,0,1-6-12C14.78,94.15,27.23,82,41.68,80.68Z" transform="translate(-12.18 -11.76)"/><path class="cls-7" d="M39.44,116.19c-4.6,2.13-9,2.11-12.78-1.82-3-3.12-3.73-7.68-3.55-11.84C23.62,90.65,33,82,45,82.87c14.28,1,23.72,13.17,24.39,26.88a66,66,0,0,1-.17,7c-.44-1.82-.7-3.57-1.24-5.43a34.08,34.08,0,0,0-8.59-14.55c-4.09-4.16-10.21-7.48-16.15-7.4-6.58.08-13.14,4.9-12.85,12,.25,6.37,3.81,12.38,10.84,12.18,2.43-.07,3.84-1.17,5.38-2.88-2.83,11.13-17.23,16.78-25.08,7-6.27-7.85-3.05-21.81,4.33-27.73a1.13,1.13,0,0,1-.05.95,22,22,0,0,0-3.88,9.22c-.79,4.82-.17,10.2,2.72,14.26a10.28,10.28,0,0,0,6.82,4.08A9.91,9.91,0,0,0,39.44,116.19Z" transform="translate(-12.18 -11.76)"/><path class="cls-3" d="M25.84,89.9a11.59,11.59,0,0,1,1.59-1.26c-.51.73-1.07,1.55-1.64,2.21A1.13,1.13,0,0,0,25.84,89.9Z" transform="translate(-12.18 -11.76)"/><path class="cls-1" d="M141.59,44.18a12.82,12.82,0,0,1,1.76-.08c7.8-.09,16.07,6,16,14.3,0,7.13-6.74,12.44-13.6,12.32A11.12,11.12,0,0,1,137.63,67c-5.22-5.41-2.38-14.71,5.69-14.38,3.52.28,6.87,3.37,6.4,7.07-.39,3.08-2.53,5.07-5.67,4.69a3.43,3.43,0,0,1-1.37-6.31,1.74,1.74,0,0,1,2.6.54c-.08,1.12-2.41,1.71-1.94,2.51,1.58,2.66,4.87-.16,4.08-2.85a4.07,4.07,0,0,0-3.22-3.19,5.5,5.5,0,0,0-6.75,3.74A7.6,7.6,0,0,0,138.93,65c3.64,4.78,10.14,4.16,14.47.71a9.77,9.77,0,0,0,1.29-14.06c-5.84-6.86-15.65-6.86-22.38-1.3-7.39,6.11-9.23,15.69-10,24.66-.11-.85-.23-1.71-.31-2.56C120.76,59.79,127.85,45.54,141.59,44.18Z" transform="translate(-12.18 -11.76)"/><path class="cls-1" d="M126.09,82.8a15.47,15.47,0,0,1,5.45.59c6.81,1.89,11.42,9.11,9.29,16.06-1.85,6-9.18,11-15.49,9a10.25,10.25,0,0,1-5.85-5.08,8.09,8.09,0,0,1,3.68-10.87c3-1.45,6.9-.62,8.38,2.61a3.93,3.93,0,0,1-2.26,5.28,4.6,4.6,0,0,1-3.36-.24c-.52-.26-1.07-1.23-.57-1.74.91-.92,2.29.14,3.4-.1s1-1.62.72-2.37c-2.16-3.82-7.13-1.55-8.23,1.88a5.84,5.84,0,0,0,.39,4.6,7.84,7.84,0,0,0,4.89,3.91c8.21,1.1,15.31-7.13,11.44-14.89-3.19-6.38-10.83-8.08-17-4.87-9.52,5-11.29,16.54-8.1,26,.24.71,1.13,2.68.93,3.33-.81,0-1.29-1.22-1.63-1.83-4.12-7.56-4-18,1.82-24.72A17.47,17.47,0,0,1,126.09,82.8Z" transform="translate(-12.18 -11.76)"/><path class="cls-1" d="M16.93,64.49a5.81,5.81,0,1,1-4.66,6.72A5.81,5.81,0,0,1,16.93,64.49Z" transform="translate(-12.18 -11.76)"/><path class="cls-3" d="M17.43,66a4.18,4.18,0,1,1-3.61,4.65A4.18,4.18,0,0,1,17.43,66Z" transform="translate(-12.18 -11.76)"/><path class="cls-1" d="M38.68,133.38A5.78,5.78,0,1,1,33.89,140,5.79,5.79,0,0,1,38.68,133.38Z" transform="translate(-12.18 -11.76)"/><path class="cls-4" d="M38.79,135a4.15,4.15,0,1,1-3.2,5A4.15,4.15,0,0,1,38.79,135Z" transform="translate(-12.18 -11.76)"/><path class="cls-1" d="M159.84,92.35a5.63,5.63,0,1,1-4.78,6.38A5.62,5.62,0,0,1,159.84,92.35Z" transform="translate(-12.18 -11.76)"/><path class="cls-3" d="M160.08,93.9a4.07,4.07,0,1,1-3.5,4.59A4.06,4.06,0,0,1,160.08,93.9Z" transform="translate(-12.18 -11.76)"/><path class="cls-1" d="M43.61,32.25a10.92,10.92,0,0,1-1.48,2.35c-5.81,8.11-6.29,19.86.35,27.66,1,1.16,2,1.85,3,2.89l-.07.08-.4-.16c-5.67-3.19-8.52-9.5-8.62-15.86C36.29,42.63,39.05,36.88,43.61,32.25Z" transform="translate(-12.18 -11.76)"/><path class="cls-1" d="M103.3,102.72c1,4.25,1.7,7.23,4.63,10.89.65.81,1.5,1.49,2.19,2.3l.07.09c-4.5-1.11-6.84-6.82-7-11A21.25,21.25,0,0,1,103.3,102.72Z" transform="translate(-12.18 -11.76)"/><path class="cls-1" d="M55.74,115.4c4,.17,8,4.79,7.72,8.71-.77-.57-1.93-3.78-3.26-5.23C59,117.61,56,115.9,55.74,115.4Z" transform="translate(-12.18 -11.76)"/></g></svg>