<svg id="Layer_1" data-name="Layer 1" xmlns="http://www.w3.org/2000/svg" xmlns:xlink="http://www.w3.org/1999/xlink" viewBox="0 0 232.13 235.05"><defs><style>.cls-1{fill:#463935;}.cls-2{fill:#fefefe;}.cls-3{fill:#fbacb9;}.cls-4{fill:#fef1b8;}.cls-5{fill:#7ff4ea;}.cls-6{fill:url(#linear-gradient);}</style><linearGradient id="linear-gradient" x1="2368.77" y1="3489.47" x2="2506.36" y2="3360.41" gradientTransform="translate(-577.68 -761.26) scale(0.25)" gradientUnits="userSpaceOnUse"><stop offset="0" stop-color="#fad3c1"/><stop offset="1" stop-color="#fffac2"/></linearGradient></defs><g id="Layer_1-2" data-name="Layer 1"><path class="cls-1" d="M59.14,0A33.3,33.3,0,0,1,89.7,17.24c9.61,18.13,1.46,37.86-7,54.57C78.37,80.55,74.14,88.28,75,98.46c.58,7,2.44,10.47,5.71,16.34,2.71-.9,5.43-1.74,8.16-2.59a55.54,55.54,0,0,1-3-8.3c-3-12.19-.17-24.08,4.55-35.4,1.65-4.38,4.12-8.69,5.57-13.11a53.59,53.59,0,0,0,2.47-20.85A45.55,45.55,0,0,0,95.59,22.2a23,23,0,0,1,2.07,4.55c2.61,7.24,2.69,14.38,1.66,21.93a47.49,47.49,0,0,0,2.92-16.31c.16-8.8-6.61-22.52,3.86-27.8,6.41-3.23,15.07-.12,16.65,7.25a8.92,8.92,0,0,1-6.61,10.76l-.08,0c-3.15.66-7-1.44-7.49-4.78-.29-2.05.57-4,2.81-4.13,1-.08,2.39.63,2.45,1.7-.69.94-2.47.24-3.33,1.14a1.59,1.59,0,0,0-.22,1.71c.73,2.33,3.64,3.15,5.76,2.22,2.68-1.19,3.36-4.21,2.28-6.77-1.89-4.27-7.11-5.55-11.18-3.78-3.67,1.58-5.06,5.17-4.51,9,.58,4,1.61,7.85,1.78,11.88A45.78,45.78,0,0,1,102,48.05c-.58,1.7-1.3,3.34-2,5-3.79,8.47-8,16.78-10.65,25.71A49.55,49.55,0,0,0,87.82,102,47.93,47.93,0,0,0,91,111.5c3.9-1.28,8-2.26,11.92-3.27a262.71,262.71,0,0,1,26.22-5.41c12.71-1.89,35.21-4.34,46.08,3.8a13.91,13.91,0,0,1,4,4.33c2.74,4.91,5.15,19.2,6,24.91a33.49,33.49,0,0,1,11-10.18,26.7,26.7,0,0,1,20.48-2.78,21.55,21.55,0,0,1,13,10.59A22.62,22.62,0,0,1,231,150.61c-3.2,10.33-12,18-20.84,23.62-2.22,1.39-4.56,2.52-6.84,3.76,5.23,3.66,3.37,9.13-1.84,11.45-4.78,2.12-14.3,2.79-16.86-3-1.32-3-.3-6.92,1.7-9.41,2.68-3.35,6.56-5.23,10.21-7.32,6.1-3.66,12.7-8,15.44-14.87,1.58-4,2.25-9.57-.89-13-2-2.17-5.16-2-7.53-.65-7.1,3.92-11.39,11.32-14.82,18.4a45.77,45.77,0,0,0-2,4.49c-.66,2.54-.79,5.61-1.37,8.23-1,4.42-2.23,8.86-3.62,13.15-3.62,9.65-8.59,16.57-15.47,24a4.94,4.94,0,0,1,.46,3.78c-1,3.72-5.52,6.53-8.67,8.29-14.21,7.94-38.47,14.25-54.7,13.47a33,33,0,0,1-7.66-1,9.54,9.54,0,0,1-6.45-5,44.92,44.92,0,0,1-7.09-2.15c-20.8-8.53-34.79-28.33-43.5-48.31-2.52-5.77-4.63-11.68-6.67-17.62a48.72,48.72,0,0,1-2.36-8.52c-.71-6.1,3.06-10.92,7.2-14.87,8.61-8.2,19.68-13.13,30.45-17.8,3.24-1.4,6.61-2.58,9.88-4-1.69-2.6-3.5-3.86-5-7a36.93,36.93,0,0,1-3.43-16.49,56.29,56.29,0,0,1,4-20.55c5.43-14.77,14.78-26.64,11.3-43.37C82,18,72.27,6.17,61.82,2.42c-1.71-.61-8.31.56-10.42,1A40.45,40.45,0,0,0,25.88,21.24C19,32,18.07,47.46,30,55.09c6,3.82,13.57,4.32,20.42,2.74,9.92-2.29,18.9-11.3,16.32-22.11C65,28.37,56.87,22.24,49.26,24.43a13.59,13.59,0,0,0-8.38,6.44c-3.93,7.18.72,16,9.52,13.43,2.32-.69,3.72-2.52,4.75-4.62-2.64,2.11-5.75,3-8.82.83-4.41-3.15-2.57-10.86,3.1-11.27,7.61-.63,10,8.21,5.52,13.28a9.58,9.58,0,0,1-13.48,1.36l-.18-.15c-4.88-4-4.43-12.26-.37-16.64a15.21,15.21,0,0,1,17.9-4,18.38,18.38,0,0,1,10.6,15.24,19.48,19.48,0,0,1-5,13.82C55.07,62.76,36.2,64,25.64,54.55c-12-11-7.16-30,2.82-40.54A44.29,44.29,0,0,1,59.14,0Z" transform="translate(0 -0.01)"/><path class="cls-2" d="M90.85,225.94a39.84,39.84,0,0,1-9.59-3.11c-22.65-10.75-35.7-34.41-44-57-1.44-4.59-3.79-9.59-4.36-14.34s4-9.37,7.15-12.14c11.32-9.78,26.27-15.92,40.23-20.84l1.26,1.41c-12.86,4.74-26,10-36.89,18.5-3.52,2.77-8.31,7.17-7.2,12.2a5.67,5.67,0,0,0,2.92,3.73c4.35,2.19,9.64,2.16,14.41,2.18,11.43,0,22.73-1.83,34-3.82a234.94,234.94,0,0,0,28.66-6.92c12.11-3.75,24.71-8.07,35.78-14.34,5.44-3.07,18.35-10.23,16.46-17.76a7.81,7.81,0,0,0-3.86-4.45c-4.45-2.11-10-2.34-14.84-2.44-19.1,0-39.23,4-57.5,9.42l-.7-1.68c17.25-5.3,37.11-9.3,55.12-10.12,1.89-.1,4.51-.07,6.48,0,7,.32,15.69,1.18,20.87,6.42a5.85,5.85,0,0,1,1.57,4.4c-.24,4.24-6.77,10.66-9.81,13.31-4.58,4-11.18,7.45-16.66,10.06-20.19,9.63-42.53,15.47-64.44,19.63-8.39,1.59-17.1,3.18-25.65,3.51a71.46,71.46,0,0,1-13.56-.51c-2-.28-4.45-1.18-6.16-1.33-.37.22-.24.07-.41.45a.57.57,0,0,0,.11.28c.66,1.12,3.63,1.82,4.79,2.13,20.16,5.44,68.57-7.28,89-14.74a159.14,159.14,0,0,0,24.55-11.25c6.2-3.56,13.71-9,17.16-15.36a24.46,24.46,0,0,0,1.92-5.25,79.81,79.81,0,0,1,2.6,10c2.84,13.16,4.5,27.64,2.86,41.06-1.88,15.78-10.19,33-22.86,43-9.61,7.53-21.39,11.26-33.06,14.24-10.69,2.73-19.6,3.61-30.49,2.32" transform="translate(0 -0.01)"/><path class="cls-1" d="M153,160.42c1.6-.27,4.48-.12,5.63,1.14a16.67,16.67,0,0,1,2.41,4.47c1.7,4,3.57,8.31,3.77,12.71a6.8,6.8,0,0,1-2.25,5.35c-6.53,6.24-21.9,10.54-30.66,10.53-1.31,0-4.16-.28-5.12-1.23-3-2.94-4.22-8.9-5.46-12.81a49.74,49.74,0,0,1-1.32-5.11c-.64-3.36,3.89-5.15,6.35-6.45C134.28,164.83,144.1,161.32,153,160.42Z" transform="translate(0 -0.01)"/><path class="cls-2" d="M154.91,162.3a3,3,0,0,1,2.33.69c.88.87,5,11.43,5.48,13.08a7.54,7.54,0,0,1,.35,2.36,6,6,0,0,1-1.93,4.44c-5.42,5.16-23.41,9.71-30.88,9.57-2.34-.13-2.82-.42-3.81-2.69-1.26-2.89-2-6-3-9a49.92,49.92,0,0,1-1.79-5.47,1.3,1.3,0,0,1,.22-1.14,18,18,0,0,1,4.4-2.62c2.55-1.27,5.11-2.67,7.73-3.75a93.85,93.85,0,0,1,13.52-4.06A48.77,48.77,0,0,1,154.91,162.3Z" transform="translate(0 -0.01)"/><path class="cls-1" d="M145.41,170.18c1.6.14,8.4,3.82,9.25,5.31.25.44-4.11,6.28-5.6,6.37a.85.85,0,0,1-.49-1.1,1.62,1.62,0,0,1,.1-.18c1-1.66,2.15-3.21,3.13-4.89l-3.36-2.2a18.53,18.53,0,0,0-2-1.11c-.59,1.55-1,3.3-1.49,4.89a81.54,81.54,0,0,1-3.09,8.28c-.12.27-.41.27-.64.28s-.29-.13-.38-.34C140.27,184.24,144.57,172.11,145.41,170.18Z" transform="translate(0 -0.01)"/><path class="cls-1" d="M135.13,176.73c.64,0,1-.09,1.17.57-.32,1.38-2.72,3.5-3.69,5.07l-.09.15c1.25.23,5.51.65,5.43,2.28-.23.41-.28.39-.67.62-1.5-.3-5.9-1-6.71-2C130.05,181.61,133.63,177.7,135.13,176.73Z" transform="translate(0 -0.01)"/><path class="cls-2" d="M54.82,180.27l-.31.54a3.92,3.92,0,0,1-2.69-.57" transform="translate(0 -0.01)"/><path class="cls-1" d="M85,170.4a2.8,2.8,0,0,1,1.08,0c.72.58,2.35,6.67,2,7.71-1.42,1.39-7.52,3.3-9.63,3.85-.29-.08-.59-.13-.72-.48-.65-1.73-2.82-7.4-2.41-9C76,171.86,83.6,170.65,85,170.4Z" transform="translate(0 -0.01)"/><path class="cls-3" d="M81.82,176.41c1.59-.32,3.18-.78,4.75-1.2.19.75.4,1.52.54,2.28-1.78.86-6.24,2.89-8.08,3.06-.26-.1-.2,0-.4-.22a19.44,19.44,0,0,1-.89-2.67A18.87,18.87,0,0,1,81.82,176.41Z" transform="translate(0 -0.01)"/><path class="cls-4" d="M77.82,177.66a19.15,19.15,0,0,1,4-1.25c1.24,2.8-1.47,2.71-3.19,3.92A20.55,20.55,0,0,1,77.82,177.66Z" transform="translate(0 -0.01)"/><path class="cls-3" d="M85.42,171.67l.23.1a10.32,10.32,0,0,1,.54,2c-3.15,1.09-5.35,1.11-8.92,2.66a21,21,0,0,1-.93-3.3C79.39,172.72,82.38,172.17,85.42,171.67Z" transform="translate(0 -0.01)"/><path class="cls-1" d="M95,200.89c.77-.07,1,.24,1.28,1,.32.91,2,6.25,1.28,6.82-2,1.63-7.69,3.68-10.24,3.9a60.34,60.34,0,0,1-3-8.76,13.54,13.54,0,0,1,1.78-.54C89,202.5,92,201.61,95,200.89Z" transform="translate(0 -0.01)"/><path class="cls-3" d="M94.51,202.24h.31c.59.34.73,1.32.93,2-2.65.88-5.37,1.51-8,2.39a12.34,12.34,0,0,0,.5,1.32c2.33-.4,5.55-1.4,7.89-2.07.17.66.32,1.4.46,2.06-.45.26-.93.51-1.39.75a32.36,32.36,0,0,1-7.2,2.57,55.67,55.67,0,0,1-2.29-6.66A89,89,0,0,1,94.51,202.24Z" transform="translate(0 -0.01)"/><path class="cls-1" d="M91.22,185.65c1,.8,2.11,5.67,2.39,7.12-1.68,1.16-8.94,4.23-10.88,4.37-.38-1.13-2.81-7.44-2.54-8.08C81.43,188.13,89.28,186.13,91.22,185.65Z" transform="translate(0 -0.01)"/><path class="cls-3" d="M91.74,190.5l.14.05a5,5,0,0,1,.53,1.65c-1.86.87-6.93,3.22-8.84,3.51a18.53,18.53,0,0,1-1.08-2.66C85.41,192.43,88.82,191.34,91.74,190.5Z" transform="translate(0 -0.01)"/><path class="cls-3" d="M90.35,187a1,1,0,0,1,.34.06,6.76,6.76,0,0,1,.74,1.88c-3,.86-5.93,1.74-9,2.71-.11.05,0,0-.26,0a10.84,10.84,0,0,1-.91-2.06C83.56,188.79,88,187.6,90.35,187Z" transform="translate(0 -0.01)"/><path class="cls-1" d="M108.48,197.52h.46c.45.24.31.07.51.47l-.12.31c-1.17,1.07-8.31,3.11-10.11,3.46-.64,0-.7.11-1-.39a.83.83,0,0,1,.11-.52C99.15,199.74,106.82,197.83,108.48,197.52Z" transform="translate(0 -0.01)"/><path class="cls-1" d="M103.82,181.75a.91.91,0,0,1,.74.51c-.3,1.3-8.52,3.73-10,4a.71.71,0,0,1-.79-.31c-.09-.8.75-1.15,1.42-1.38C97.91,183.56,100.91,182.48,103.82,181.75Z" transform="translate(0 -0.01)"/><path class="cls-1" d="M99,167.88c.36.05.18,0,.52.26.18.46.16.23.08.71-.5.69-8.36,2.79-9.78,3.13-.48,0-.51-.13-.73-.5a.78.78,0,0,1,.08-.52C90.06,169.72,97.28,168.3,99,167.88Z" transform="translate(0 -0.01)"/><path class="cls-1" d="M99.25,186.72c.34,0,.21,0,.55.18.43,1.29-3.24,2.47-4.18,2.79a1.24,1.24,0,0,1-.61-.26c-.15-.39-.14-.19,0-.61C95.82,188,98.11,187.24,99.25,186.72Z" transform="translate(0 -0.01)"/><path class="cls-1" d="M102.92,202.75a1.46,1.46,0,0,1,.51,0c.43.37.54.41.32.9a12.71,12.71,0,0,1-3.7,1.56c-.5.06-.55.09-.88-.24C98.82,203.73,102,203.07,102.92,202.75Z" transform="translate(0 -0.01)"/><path class="cls-1" d="M93.45,172.62a2,2,0,0,1,1.08.12c.2.26.15.12.11.45-.57.87-2.2,1.39-3.15,1.74-.72.16-1.16,0-1.14-.83C90.82,173.36,92.53,173,93.45,172.62Z" transform="translate(0 -0.01)"/><path class="cls-2" d="M208.26,125.17c3.62-.59,8.38.65,11.6,2.4a17.65,17.65,0,0,1,8.39,10.67c3.73,14.62-8.61,26.27-19.71,33.47-4,2.87-10.08,4.11-13,8.24a1.55,1.55,0,0,0,.31,2.18l.12.09c1,0,1.57-.88,2.31-1.45,3.49-2.65,7.63,2.51,3.09,5.12-4.07,2.33-15.54,3.71-14-4,.56-2.92,3.91-5.31,6.29-6.69,12.31-6.36,27.94-18.65,24.28-34.65a10.5,10.5,0,0,0-12.39-8.2,10.18,10.18,0,0,0-1.34.36c-8.41,2.63-13.44,10-17.57,17.33-.25-3.29-.53-6.61-.72-9.9C191.82,132,197.62,126.16,208.26,125.17Z" transform="translate(0 -0.01)"/><path class="cls-2" d="M143.82,108.56a73.1,73.1,0,0,1,18.21,1c8.38,1.72,6.92,8,1.52,12.38a8.44,8.44,0,0,0-1.62-1.48c-8.75-6-33.45-1.78-43.67.21-6.45,1.4-13.51,3.1-19.88,4.92-1.41-2.64-2.76-5.17-4.1-7.85C110.51,113.08,126.88,109.35,143.82,108.56Z" transform="translate(0 -0.01)"/><path class="cls-2" d="M82.73,121.41c1,.62,2.61,2.14,3.63,2.92,1.65,1.25,3.17,2.27,4.9,3.42-1.77.69-3.72,1.23-5.52,1.88-10.57,3.81-20.76,8.42-30,14.83-3.71,2.56-6.61,4.35-8.81,8.43l-.47,1a18.37,18.37,0,0,1-4.68-1.18,4.29,4.29,0,0,1-2.45-2.42,5.68,5.68,0,0,1,.55-4.36C45.05,135.91,72.25,124.7,82.73,121.41Z" transform="translate(0 -0.01)"/><path class="cls-4" d="M63.29,2.5a21.17,21.17,0,0,1,4.41.66A30.8,30.8,0,0,1,87.16,17.24c9.64,16.52,2.59,34.4-4.88,50.08-2.94,6.2-7.23,13.44-8.72,20-2.1,9.26-1,18.19,4,26.31.29.44.94,1.24.79,1.77h-.21c-2-1.23-4.17-5.92-5.09-8.08-4.69-11-2.88-23.46,1.23-34.35C80.47,56.58,92,40.74,84,22.66A37.21,37.21,0,0,0,63.29,2.5Z" transform="translate(0 -0.01)"/><path class="cls-2" d="M163,210.47a1.63,1.63,0,0,1,.65.7,1.71,1.71,0,0,1-.07,1.33c-1.61,4-11.57,8.49-15.48,10.13-12.42,5.21-32.44,9.94-45.84,9.08a22.25,22.25,0,0,1-7-1.26c-.21-.12-.41-.25-.61-.39-.36-.24-.86-.55-1-1,.58-.49,3.08,0,4,.06,14.22,1.07,28.49-2,41.93-6.48C148.46,219.7,155.63,216.34,163,210.47Z" transform="translate(0 -0.01)"/><path class="cls-2" d="M206.29,133.66a9.67,9.67,0,0,1,5.67,1c5.54,3,5.62,10.55,4.57,15.85-.31-4.19.32-7.44-3-10.84-5.47-5.53-12.32-1.59-17,2.84-5.14,5-6.63,8.45-9.81,14.51a29,29,0,0,1,0-4.17C190.26,144.78,197.23,135.1,206.29,133.66Z" transform="translate(0 -0.01)"/><path class="cls-4" d="M49.93,31.24c5.21,0,7.23,7.24,1,8.38C44.55,40.08,44.46,32.13,49.93,31.24Z" transform="translate(0 -0.01)"/><path class="cls-2" d="M91.75,118.38a.6.6,0,0,1,.25.19,85.58,85.58,0,0,0,4.65,7.53c-1.06.28-2.14.7-3.17,1.07A17.29,17.29,0,0,1,91.75,126a77.5,77.5,0,0,1-6.57-5.56C87.39,119.76,89.56,119.07,91.75,118.38Z" transform="translate(0 -0.01)"/><path class="cls-5" d="M104.92,135.48a1.53,1.53,0,0,1,1.14.25.8.8,0,0,1,.06.75c-.81,2.18-12.92,9.74-15.61,10.85a1.74,1.74,0,0,1-1.08-.1c-.35-.63.67-1.69,1.14-2C95.12,142.24,100,137.75,104.92,135.48Z" transform="translate(0 -0.01)"/><path class="cls-2" d="M110.26,5.24c7.06-1.31,14.46,6.43,9.88,12.87.88-3.8.19-7.39-3.42-9.53a11.08,11.08,0,0,0-9.49-.49c-3.12,1.32-4,3.4-5.22,6.35C102.54,9.15,104.73,6.08,110.26,5.24Z" transform="translate(0 -0.01)"/><path class="cls-5" d="M148.41,123.63a.9.9,0,0,1,.81.51,1,1,0,0,1-.12.73c-1,1.67-11.45,8.84-13.45,9.32-.62-.08-.55,0-1-.31C134.15,131.76,146.19,124.24,148.41,123.63Z" transform="translate(0 -0.01)"/><path class="cls-4" d="M86.5,138.87a1.43,1.43,0,0,1,1.58.48A1.53,1.53,0,0,1,88,140c-1,2.11-9.74,8-12.21,8.95a1.57,1.57,0,0,1-1.31-.24.66.66,0,0,1,0-.61C74.94,146.62,84.55,139.74,86.5,138.87Z" transform="translate(0 -0.01)"/><path class="cls-4" d="M134.29,124.62a1.4,1.4,0,0,1,1.33.28.94.94,0,0,1,0,.7c-.6,1.55-9.36,7.93-11.35,8.84-.53.06-.9.13-1.32-.26a.86.86,0,0,1-.06-.63C123.4,131.68,132.37,125.72,134.29,124.62Z" transform="translate(0 -0.01)"/><path class="cls-3" d="M69.92,142.62c.66,0,1,.06,1.21.72-.29,1.87-8.91,7.1-11,7.65-.62,0-.79.07-1.17-.45C58.82,148.79,68.24,143.08,69.92,142.62Z" transform="translate(0 -0.01)"/><path class="cls-4" d="M96.82,132.24c.58,0,.73-.06,1.16.36a.9.9,0,0,1-.09.81c-.8,1.41-5.52,4.48-6.88,5-.71,0-.91.08-1.26-.56C89.73,136,95.17,132.82,96.82,132.24Z" transform="translate(0 -0.01)"/><path class="cls-3" d="M120.08,134.88c.54.08.58.12.85.46.31,2-5.67,5.22-7.45,5.63a.9.9,0,0,1-1-.52C112.66,138.8,118.54,135.24,120.08,134.88Z" transform="translate(0 -0.01)"/><path class="cls-3" d="M115.55,128.11c.6,0,.69,0,1,.48.14,1.68-6.14,5.36-7.56,5.9-.56.06-.93.09-1.19-.44C107.94,132.33,114,128.65,115.55,128.11Z" transform="translate(0 -0.01)"/><path class="cls-2" d="M90,115.38l.23.07a5.7,5.7,0,0,1,.9,1.52l-6.91,2.14c-.43-.11-1-1.08-1.32-1.48C85.36,116.75,87.48,116.05,90,115.38Z" transform="translate(0 -0.01)"/><path class="cls-3" d="M77.27,137.75a1.84,1.84,0,0,1,1.35.27c.55,1.39-3.31,3.59-4.43,4a1.42,1.42,0,0,1-1.32-.21c-.12-.25-.26-.44-.11-.75C73.36,139.87,76.15,138.24,77.27,137.75Z" transform="translate(0 -0.01)"/><path class="cls-1" d="M29.5,68.92c7-.67,14.33,2.23,19.55,6.78,11.36,9.9,13,26.84,6.89,40-.34.73-2.15,4.53-3,4.56a37.37,37.37,0,0,1,1.27-5c4-13.87-5.2-31.53-19.42-35.14a13.12,13.12,0,0,0-6.7,0c-6.39,2-9,6.71-7.16,13.15.85,2.53,2.16,4.66,4.66,5.83,2.81,1.31,6.27.55,7.51-2.5a9,9,0,0,0,.18-6.38,4.52,4.52,0,0,0-4.17-2.59c-.79,0-1.71-.12-2-1a.8.8,0,0,1,.11-.25c1.66-1.49,4.37-.79,5.93.55,5.68,4.89,4.27,14.17-.14,19.36-6.07,7.16-15.54,9.35-23.07,3.11a17.4,17.4,0,0,1-6-12C2.6,82.39,15.05,70.24,29.5,68.92Z" transform="translate(0 -0.01)"/><path class="cls-6" d="M27.26,104.43c-4.6,2.13-9,2.11-12.78-1.82-3-3.12-3.73-7.68-3.55-11.84.51-11.88,9.89-20.53,21.89-19.66C47.1,72.11,56.54,84.28,57.21,98a65.44,65.44,0,0,1-.17,7c-.44-1.82-.7-3.57-1.24-5.43A34.12,34.12,0,0,0,47.21,85c-4.09-4.16-10.21-7.48-16.15-7.4-6.58.08-13.14,4.9-12.85,12C18.46,96,22,102,29.05,101.79c2.43-.07,3.84-1.17,5.38-2.88-2.83,11.13-17.23,16.78-25.08,7-6.27-7.85-3-21.81,4.33-27.73a1.13,1.13,0,0,1,0,.95,22.05,22.05,0,0,0-3.88,9.22c-.79,4.82-.17,10.2,2.72,14.26a10.26,10.26,0,0,0,6.82,4.08A9.9,9.9,0,0,0,27.26,104.43Z" transform="translate(0 -0.01)"/><path class="cls-3" d="M13.66,78.14a10.74,10.74,0,0,1,1.59-1.26c-.51.73-1.07,1.55-1.64,2.21A1.13,1.13,0,0,0,13.66,78.14Z" transform="translate(0 -0.01)"/><path class="cls-1" d="M129.41,32.42a12.89,12.89,0,0,1,1.76-.08c7.8-.09,16.07,6,16,14.3,0,7.13-6.74,12.44-13.6,12.32a11.12,11.12,0,0,1-8.12-3.72c-5.22-5.41-2.38-14.71,5.69-14.38,3.52.28,6.87,3.37,6.4,7.07C137.15,51,135,53,131.87,52.62a3.43,3.43,0,0,1-1.37-6.31,1.74,1.74,0,0,1,2.44.3c.06.08.11.16.16.24-.08,1.12-2.41,1.71-1.94,2.51,1.58,2.66,4.87-.16,4.08-2.85A4.07,4.07,0,0,0,132,43.32a5.5,5.5,0,0,0-6.75,3.74,7.61,7.61,0,0,0,1.48,6.18c3.64,4.78,10.14,4.16,14.47.71a9.78,9.78,0,0,0,1.57-13.73l-.28-.33c-5.84-6.86-15.65-6.86-22.38-1.3-7.39,6.11-9.23,15.69-10,24.66-.11-.85-.23-1.71-.31-2.56C108.58,48,115.67,33.78,129.41,32.42Z" transform="translate(0 -0.01)"/><path class="cls-1" d="M113.91,71a15.44,15.44,0,0,1,5.45.59c6.81,1.89,11.42,9.11,9.29,16.06-1.85,6-9.18,11-15.49,9a10.25,10.25,0,0,1-5.85-5.08A8.09,8.09,0,0,1,111,80.76l0,0c3-1.45,6.9-.62,8.38,2.61a3.93,3.93,0,0,1-2,5.18l-.25.1a4.6,4.6,0,0,1-3.36-.24c-.52-.26-1.07-1.23-.57-1.74.91-.92,2.29.14,3.4-.1s1-1.62.72-2.37c-2.16-3.82-7.13-1.55-8.23,1.88a5.81,5.81,0,0,0,.39,4.6,7.85,7.85,0,0,0,4.89,3.91c8.21,1.1,15.31-7.13,11.44-14.89-3.19-6.38-10.83-8.08-17-4.87-9.52,5-11.29,16.54-8.1,26,.24.71,1.13,2.68.93,3.33-.81,0-1.29-1.22-1.63-1.83-4.12-7.56-4-18,1.82-24.72A17.48,17.48,0,0,1,113.91,71Z" transform="translate(0 -0.01)"/><path class="cls-1" d="M4.75,52.73A5.81,5.81,0,1,1,.1,59.5v0A5.81,5.81,0,0,1,4.75,52.73Z" transform="translate(0 -0.01)"/><path class="cls-3" d="M5.25,54.24a4.18,4.18,0,1,1-3.61,4.68v0A4.18,4.18,0,0,1,5.25,54.24Z" transform="translate(0 -0.01)"/><path class="cls-1" d="M26.5,121.62a5.78,5.78,0,1,1-4.79,6.62h0A5.79,5.79,0,0,1,26.5,121.62Z" transform="translate(0 -0.01)"/><path class="cls-4" d="M26.61,123.24a4.16,4.16,0,1,1-.09,0Z" transform="translate(0 -0.01)"/><path class="cls-1" d="M147.66,80.59A5.63,5.63,0,1,1,142.88,87a5.63,5.63,0,0,1,4.78-6.38Z" transform="translate(0 -0.01)"/><path class="cls-3" d="M147.9,82.14a4.07,4.07,0,1,1-3.5,4.59,4.07,4.07,0,0,1,3.5-4.59Z" transform="translate(0 -0.01)"/><path class="cls-1" d="M31.43,20.49A11.07,11.07,0,0,1,30,22.84C24.14,31,23.66,42.7,30.3,50.5c1,1.16,2,1.85,3,2.89l-.07.08-.4-.16c-5.67-3.19-8.52-9.5-8.62-15.86C24.11,30.87,26.87,25.12,31.43,20.49Z" transform="translate(0 -0.01)"/><path class="cls-1" d="M91.12,91c1,4.25,1.7,7.23,4.63,10.89.65.81,1.5,1.49,2.19,2.3l.07.09c-4.5-1.11-6.84-6.82-7-11A21.75,21.75,0,0,1,91.12,91Z" transform="translate(0 -0.01)"/><path class="cls-1" d="M43.56,103.64c4,.17,8,4.79,7.72,8.71-.77-.57-1.93-3.78-3.26-5.23C46.82,105.85,43.82,104.14,43.56,103.64Z" transform="translate(0 -0.01)"/></g></svg>