<?xml version="1.0" encoding="utf-8" ?><svg xmlns="http://www.w3.org/2000/svg" xmlns:xlink="http://www.w3.org/1999/xlink" width="1024" height="1024" viewBox="0 0 1024 1024"><path fill="white" d="M0 0L1024 0L1024 1024L0 1024L0 0Z"/><path fill="#F97316" d="M490.912 201.954C509.678 155.481 575.354 104.188 616.889 77.0443C628.039 69.7569 698.207 30.965 707.185 32.9824C707.639 34.1002 707.935 34.3394 707.172 35.546C700.67 45.833 693.529 55.8979 688.486 67.0384C671.552 104.45 654.942 142.182 663.424 184.117C671.531 177.309 682.558 163.678 690.332 155.576C718.426 126.303 745.964 94.5059 781.628 74.2284C784.676 72.4956 791.975 67.5825 795.051 68.8275C795.22 70.2528 795.017 70.7722 794.165 72.0894C770.931 107.986 744.66 146.835 739.961 190.374C739.102 198.339 739.205 207.037 741.679 214.6L741.902 215.261C748.736 209.859 755.368 202.061 761.63 195.838C803.18 154.543 850.319 117.623 903.683 92.8643C908.973 90.4104 933.358 79.1888 937.448 81.7922C936.857 84.752 920.676 100.686 917.732 104.461C888.443 142.029 854.444 193.296 845.491 240.605C864.87 224.825 883.687 200.643 898.989 180.757C902.396 176.329 900.974 167.037 904.025 164.069L904.709 164.336C905.867 168.774 903.341 179.411 902.888 184.737C901.305 200.295 901.27 216.701 897.696 231.999C893.189 251.293 887.083 267.258 884.75 287.237C891.717 281.11 903.655 269.799 908.925 262.412C915.583 253.08 920.365 239.265 927.046 229.286C931.92 221.607 937.018 214.075 943.234 207.416C948.472 201.803 954.452 197.423 958.053 190.55C959.048 188.65 961.822 183.394 964.33 184.598C964.371 188.352 958.953 194.694 957.185 199.032C948.861 219.032 938.801 236.375 934.984 258.053C930.04 286.129 934.233 314.066 933.353 342.35C933.225 346.481 932.956 350.63 932.845 354.74C930.685 434.897 871.104 494.114 828.616 556.396C826.663 559.26 818.459 570.664 822.962 573.204C834.64 573.622 870.149 551.351 881.286 545.558C899.575 536.044 918.683 527.809 936.075 516.402C942.752 512.267 949.141 507.902 955.46 503.251C958.138 501.28 968.559 491.746 971.073 492.404C974.349 501.442 954.506 530.2 948.924 538.258C910.306 593.997 859.672 640.102 819.236 694.535C812.963 702.979 805.62 712.235 801.054 721.661C810.006 719.176 818.535 714.853 827.081 711.256C844.823 703.791 862.825 694.617 880.704 687.652C877.435 694.007 873.477 698.165 868.807 703.524C849.947 725.168 831.374 747.03 811.442 767.713C806.589 772.748 801.813 777.898 797.42 783.341C806.665 781.623 817.474 778.507 826.72 776.059C857.123 768.008 880.871 760.41 908.403 745.691C904.07 753.656 887.509 772.987 881.252 780.696C859.263 807.791 835.503 834.656 808.851 857.212C794.051 869.738 778.047 881.898 762.915 894.073C755.863 899.747 747.909 905.088 741.181 911.06C761.532 910.819 784.555 903.685 804.098 898.154C805.342 897.802 805.437 898.063 806.275 898.688C806.028 900.202 805.521 900.758 804.352 901.951C792.654 913.891 779.728 922.989 764.984 930.687C711.951 958.376 653.886 964.353 595.031 966.477C575.884 967.168 556.462 966.949 537.558 967.853C537.597 970.056 538.017 974.337 536.167 976.048C526.102 985.36 465.07 986.265 457.469 976.954C456.057 974.94 439.292 968.943 436.003 967.401C361.915 932.663 280.687 933.599 202.749 915.671C157.081 905.165 72.779 857.371 61.2855 807.89C65.6604 810.886 75.0544 820.55 79.7244 824.554C96.6514 839.066 110.644 845.16 130.781 852.903C123.257 843.219 115.301 827.898 110.003 816.709C87.7062 769.624 75.0103 715.568 68.9163 663.99C67.9219 655.574 66.7381 644.536 66.4341 635.975C66.385 634.591 66.8483 634.449 67.6111 633.829L68.4459 634.233C68.6795 634.956 68.9181 635.675 69.1865 636.386C74.8036 651.255 106.814 680.297 120.261 689.935C126.219 694.206 132.469 697.759 139.165 700.733C130.813 681.672 126.471 668.027 121.739 647.611C111.27 603.397 105.72 557.859 109.373 512.422C109.685 508.537 107.929 494.18 111.139 493.02C112.927 494.114 112.945 498.795 113.273 501.102C118.325 536.691 142.629 576.843 174.789 593.938C171.746 581.182 169.86 567.816 167.311 554.877C163.054 533.266 158.644 509.918 158.049 487.836C157.178 455.504 164.652 418.739 171.232 387.132C173.242 377.476 186.998 324.68 192.929 320.936L193.924 321.238C198.106 332.652 200.841 346.004 204.555 357.751C208.832 371.28 212.512 384.944 217.102 398.427C222.74 414.989 226.494 431.593 234.535 447.306C236.412 433.331 235.721 413.967 235.829 399.678C235.894 391.076 235.687 381.283 234.827 372.719C234.452 368.984 231.857 359.41 233.025 356.721L233.708 356.508C236.448 358.141 238.929 367.068 240.321 370.385C245.192 381.996 256.29 403.605 266.51 410.86C266.993 386.35 261.252 364.518 259.314 340.682C252.328 254.75 287.693 168.587 332.51 97.0232C335.04 92.9831 341.834 79.6023 345.172 78.1362C345.798 78.5894 346.013 78.5333 345.864 79.1647C344.522 84.8376 342.451 87.5047 341.548 93.6445C339.714 107.807 338.244 122.601 338.143 136.913C337.951 164.419 341.043 193.778 345.522 220.85C348.669 239.863 353.977 259.552 358.81 278.045C362.555 270.195 365.797 260.696 368.824 252.475C392.95 186.961 425.426 124.929 474.606 74.6133C478.889 70.2311 499.939 46.7743 502.909 46.9553C503.396 50.5594 498.173 71.1768 496.824 76.3691C486.019 117.969 488.593 159.37 490.912 201.954Z"/><path d="M391.862 303.985L390.995 304.632C400.477 298.403 402.819 302.07 409.763 305.913C413.594 303.536 417.389 302.694 421.517 303.858C433.967 307.366 429.053 321.766 426.175 331.593C443.575 344.186 422.285 360.462 413.305 369.614C411.802 371.145 412.882 373.754 412.833 375.992L412.027 376.654C410.148 376.872 409.644 376.655 408.265 377.661C407.014 384.553 405.788 401.783 405.446 409.218C404.589 427.887 402.772 450.388 403.895 468.765C409.681 461.732 415.261 452.686 421.619 445.013C465.081 392.557 511.244 346.096 581.832 338.728C577.111 325.783 575.705 324.959 567.793 313.786C581.146 316.448 582.486 316.609 593.689 324.184C591.977 321.119 588.132 311.464 586.567 307.791C598.508 311.526 608.121 320.903 615.227 330.796C617.606 327.186 619.755 325.156 622.92 322.316C624.715 330.083 626.849 342.1 625.543 350.027C673.893 375.589 684.755 443.032 689.322 492.288C690.245 502.237 690.342 512.449 691.442 522.272C710.768 500.178 727.941 477.726 744.592 453.584C740.267 443.903 741.809 442.009 744.699 431.978C740.154 419.088 736.279 407.925 750.262 399.124C751.839 392.476 754.517 382.451 759.183 377.273C764.313 371.578 772.162 375.435 776.363 380.472C786.735 383.088 791.247 385.924 797.268 394.694C816.262 400.419 812.041 413.495 805.305 428.119C807.189 433.946 806.79 435.173 804.592 440.848C800.531 446.992 798.694 450.437 792.249 454.35C785.748 469.823 779.575 470.604 764.251 466.487C752.228 486.113 737.092 506.388 723.055 524.715C713.687 536.945 701.167 552.711 690.524 563.789C689.542 576.255 686.365 597.453 684.271 609.981C673.547 674.148 655.813 754.031 604.271 798.678C587.317 813.365 555.692 829.687 533.26 830.66C521.37 855.244 515.153 874.867 517.536 902.821C521.921 903.462 525.623 904.411 528.357 908.217C531.069 911.994 536.551 956.34 537.184 963.498L537.558 967.853C537.597 970.056 538.017 974.337 536.167 976.048C526.102 985.36 465.07 986.265 457.469 976.954C457.483 974.843 457.394 973.224 457.25 971.114C452.735 970.696 426.962 958.859 420.846 956.385C362.567 932.816 299.826 928.112 238.362 918.362C227.788 916.685 216.961 914.937 206.565 912.396C198.571 897.132 182.054 854.396 180.701 837.818C180.35 837.119 177.741 833.9 177.034 832.854C172.221 825.642 165.585 818.579 162.81 810.272C161.141 805.275 163.109 802.429 168.07 801.35C179.616 798.473 204.193 794.73 209.667 809.014C214.042 811.754 218.096 815.063 222.716 817.314C227.342 815.369 234.792 811.495 239.039 808.924C243.615 800.479 246.992 797.415 255.656 803.097C261.676 800.047 274.603 790.386 281.293 786.177C301.287 773.597 319.384 765.226 341.977 758.688C298.249 698.183 335.496 589.612 365.224 530.247C368.747 523.212 373.23 514.447 377.537 507.876C377.893 496.251 378.064 484.66 378.255 473.033C378.783 440.825 379.832 408.321 381.991 376.18C379.271 374.61 376.259 374.055 375.523 370.884C376.007 369.05 377.01 368.405 378.407 367.091C368.569 358.325 370.669 351.288 373.744 339.692C368.59 328.827 366.431 317.915 376.476 308.175C381.174 303.619 385.735 303.786 391.862 303.985Z"/><path fill="#FDFDDA" d="M273.902 825.523C299.142 808.25 329.737 787.951 359.693 780.028C390.361 806.074 420.69 820.034 460.211 828.356C474.155 831.293 485.722 833.109 500.18 832.532C489.09 857.708 485.124 878.278 488.993 905.649C476.994 913.936 489.47 927.347 491.221 939.854C468.23 931.769 459.676 952.764 457.25 971.114C452.735 970.696 426.962 958.859 420.846 956.385C362.567 932.816 299.826 928.112 238.362 918.362C227.788 916.685 216.961 914.937 206.565 912.396C198.571 897.132 182.054 854.396 180.701 837.818C186.435 844.296 213.092 875.019 220.257 875.15C225.862 875.252 230.486 871.772 234.152 867.923C239.921 861.866 246.225 857.444 252.545 852.082C255.79 849.33 258.771 846.119 262.104 843.509C265.162 841.114 269.227 840.914 272.13 838.004C274.063 836.066 275.096 833.777 275.047 831.024C275.013 829.101 274.478 827.341 273.902 825.523Z"/><path fill="#E0CA94" d="M590.76 345.716C596.108 345.498 612.978 347.488 617.213 351.277C617.289 351.893 617.401 352.277 617.318 352.864L617.886 353.174C620.344 354.042 624.005 356.78 626.312 358.255C640.732 367.473 652.485 381.228 659.803 396.789C678.355 436.243 683.938 489.258 683.63 532.308L680.716 536.051C672.617 546.218 651.335 567.533 639.996 572.879C640.488 575.905 642.966 578.801 644.847 581.281C648.795 585.765 653.183 591.195 657.543 595.125C663.421 591.613 671.792 582.982 676.853 578.04C678.712 575.915 680.631 573.626 682.6 571.621C681.77 578.35 681.06 585.243 680.012 591.928C665.947 681.656 642.43 804.218 536.004 823.827C537.463 821 538.595 818.777 540.332 816.104C543.626 810.399 547.881 805.097 552.065 800.022C562.836 786.955 554.263 778.146 540.817 774.785C528.746 783.74 515.843 807.082 507.388 819.639C506.222 821.768 505.066 824.278 503.985 826.482C459.057 826.097 403.553 808.59 369.496 778.767C350.804 762.4 340.322 747.107 333.78 722.944C331.656 715.101 329.634 707.434 329.266 699.163C326.662 631.177 353.463 561.452 387.501 503.727C410.535 464.664 441.632 427.188 475.245 396.933C504.921 370.222 538.658 349.445 579.382 346.442C583.663 345.597 586.354 346.554 590.76 345.716Z"/><path fill="#927553" d="M682.6 571.621C681.77 578.35 681.06 585.243 680.012 591.928C665.947 681.656 642.43 804.218 536.004 823.827C537.463 821 538.595 818.777 540.332 816.104C543.626 810.399 547.881 805.097 552.065 800.022C562.836 786.955 554.263 778.146 540.817 774.785C528.746 783.74 515.843 807.082 507.388 819.639C498.247 818.714 489.395 819.545 478.878 818.136C448.575 814.076 400.57 797.925 378.477 776.767C381.488 777.651 390.73 782.876 394.585 784.39C405.441 788.654 417.423 792.211 428.954 793.816C446.732 796.289 467.767 797.745 484.557 790.607C491.018 787.86 498.503 782.377 504.14 778.209C552.876 742.172 590.346 701.619 617.005 646.811C619.653 641.366 627.866 625.195 628.595 620.133C633.469 618.137 642.188 615.517 637.269 608.69C635.505 607.591 635.326 607.657 633.18 607.51C637.464 598.917 641.384 590.236 644.847 581.281C648.795 585.765 653.183 591.195 657.543 595.125C663.421 591.613 671.792 582.982 676.853 578.04C678.712 575.915 680.631 573.626 682.6 571.621Z"/><path fill="#E0CA94" d="M682.6 571.621C681.77 578.35 681.06 585.243 680.012 591.928C665.947 681.656 642.43 804.218 536.004 823.827C537.463 821 538.595 818.777 540.332 816.104C544.588 815.412 548.541 813.861 552.595 812.46C644.641 780.653 665.754 662.068 676.853 578.04C678.712 575.915 680.631 573.626 682.6 571.621Z"/><path d="M630.901 717.015L632.316 716.949L632.716 717.402C627.998 722.019 609.374 728.11 602.195 730.952C601.798 731.142 601.364 731.205 600.937 731.304C603.493 727.388 625.676 718.844 630.901 717.015Z"/><path d="M614.372 740.475L615.698 740.441L615.928 741.108C613.217 744.599 602.844 747.971 598.61 749.457L597.733 749.711L597.57 749.031C602.173 745.532 608.963 742.574 614.372 740.475Z"/><path d="M600.345 766.517L601.17 766.769C599.215 770.047 590.727 772.57 587.111 773.572L586.404 773.279C587.629 770.743 597.483 767.697 600.345 766.517Z"/><path d="M607.937 754.489L608.452 754.546L608.524 755.095C605.085 758.235 599.894 760.129 595.705 762.036C594.876 761.484 595.164 761.869 594.901 760.841C597.747 758.037 604.236 756.139 607.937 754.489Z"/><path d="M620.245 730.924C620.817 730.995 620.482 730.903 621.183 731.38C619.734 733.657 616.088 734.654 613.619 735.519C613.183 735.533 612.696 735.411 612.264 735.345L612.335 734.659C614.755 733.016 617.551 732.035 620.245 730.924Z"/><defs><linearGradient id="gradient_0" gradientUnits="userSpaceOnUse" x1="373.18396" y1="782.24463" x2="625.3067" y2="371.96161"><stop offset="0" stop-color="#F9E89A"/><stop offset="1" stop-color="#FDFFF7"/></linearGradient></defs><path fill="url(#gradient_0)" d="M579.382 346.442C581.427 346.479 585.171 346.437 587.052 346.763C586.89 346.907 586.729 347.051 586.567 347.195C581.382 349.423 571.557 350.683 566.01 351.986C557.16 354.064 548.903 356.498 540.698 359.818C511.467 371.645 485.908 392.728 463.7 414.658C435.641 442.365 410.07 475.8 390.251 509.913C385.844 517.498 383.164 523.782 379.37 531.433C377.148 535.914 372.757 543.826 370.506 548.151C368.371 552.253 359.222 574.307 357.515 575.881L356.292 576.51C356.666 577.914 357.173 577.854 358.665 578.969C358.506 582.726 353.377 591.36 351.683 596.602C345.501 615.723 332.759 660.873 336.99 680.155C334.056 683.029 332.607 684.019 334.577 688.202C338.534 688.041 339.214 690.434 341.946 692.627L342.747 692.807C343.047 695.58 339.454 704.956 338.74 709.037C340.648 708.715 343.563 708.396 345.385 709.089L346.597 707.742L347.163 708.16C346.704 712.019 343.581 718.35 343.434 720.539C350.29 723.292 346.486 722.943 349.208 727.012C350.172 730.83 348.88 734.618 346.372 737.557C347.518 747.345 367.269 768.593 375.786 775.051C376.503 775.596 377.594 776.609 378.477 776.767C400.57 797.925 448.575 814.076 478.878 818.136C489.395 819.545 498.247 818.714 507.388 819.639C506.222 821.768 505.066 824.278 503.985 826.482C459.057 826.097 403.553 808.59 369.496 778.767C350.804 762.4 340.322 747.107 333.78 722.944C331.656 715.101 329.634 707.434 329.266 699.163C326.662 631.177 353.463 561.452 387.501 503.727C410.535 464.664 441.632 427.188 475.245 396.933C504.921 370.222 538.658 349.445 579.382 346.442Z"/><path d="M341.946 692.627L342.747 692.807C343.047 695.58 339.454 704.956 338.74 709.037C338.209 709.232 337.858 709.214 337.277 709.277L336.584 708.517C335.797 704.078 339.882 696.785 341.946 692.627Z"/><path d="M345.385 709.089L346.597 707.742L347.163 708.16C346.704 712.019 343.581 718.35 343.434 720.539C342.883 722.211 343.098 722.244 341.909 723.375L340.966 723.164C338.821 719.469 343.46 712.746 345.385 709.089Z"/><path d="M349.208 727.012C350.172 730.83 348.88 734.618 346.372 737.557C344.16 733.958 347.295 730.205 349.208 727.012Z"/><path fill="#927553" d="M590.76 345.716C596.108 345.498 612.978 347.488 617.213 351.277C617.289 351.893 617.401 352.277 617.318 352.864L617.886 353.174C620.344 354.042 624.005 356.78 626.312 358.255C640.732 367.473 652.485 381.228 659.803 396.789C678.355 436.243 683.938 489.258 683.63 532.308L680.716 536.051C672.617 546.218 651.335 567.533 639.996 572.879C653.128 538.178 663.093 506.82 662.303 469.506C661.304 422.315 644.23 375.728 599.938 353.48C596.985 351.997 588.96 348.854 587.052 346.763C585.171 346.437 581.427 346.479 579.382 346.442C583.663 345.597 586.354 346.554 590.76 345.716Z"/><path fill="#E0CA94" d="M617.886 353.174C620.344 354.042 624.005 356.78 626.312 358.255C640.732 367.473 652.485 381.228 659.803 396.789C678.355 436.243 683.938 489.258 683.63 532.308L680.716 536.051C679.438 533.001 680.087 516.059 679.676 511.356C678.154 493.949 677.1 474.637 673.941 457.53C668.365 427.337 659.251 392.665 636.469 370.769C628.784 363.384 622.945 360.412 614.887 354.683L615.031 354.155L617.318 352.864L617.886 353.174Z"/><path d="M633.18 607.51C635.326 607.657 635.505 607.591 637.269 608.69C642.188 615.517 633.469 618.137 628.595 620.133C624.949 621.625 618.369 624.309 615.079 621.109C613.18 613.253 627.661 609.016 633.18 607.51Z"/><path fill="#A2A3B5" d="M630.267 611.123C632.025 610.952 633.657 610.9 635.182 611.891L635.252 612.934C632.571 616.319 626.194 617.899 622.2 619.317C620.768 619.61 619.505 620.055 618.114 619.406L617.904 618.492C620.377 614.791 626.109 612.276 630.267 611.123Z"/><path d="M341.204 672.995C340.377 677.417 338.292 685.398 334.577 688.202C332.607 684.019 334.056 683.029 336.99 680.155C338.523 677.162 339.241 675.751 341.204 672.995Z"/><path d="M357.515 575.881C359.697 576.895 360.261 576.98 361.753 578.753L361.587 579.307C360.102 579.497 360.131 579.403 358.665 578.969C357.173 577.854 356.666 577.914 356.292 576.51L357.515 575.881Z"/><path d="M447.927 513.126C452.12 514.448 456.181 517.708 459.948 519.99C464.527 522.766 469.515 525.299 474.534 527.176C509.424 540.226 542.118 539.716 578.516 538.886C574.796 571.149 561.984 598.167 539.548 621.709C530.314 631.318 520.464 638.832 507.834 643.416C488.526 650.423 467.182 649.192 448.639 640.365C443.832 638.076 438.607 635.127 436.808 629.792C434.782 623.783 434.683 616.599 434.174 610.317C431.619 578.804 433.498 541.723 447.927 513.126Z"/><path fill="#883D3A" d="M449.905 517.239C454.947 521.569 454.523 533.446 456.901 539.637C466.546 548.671 486.712 553.203 499.503 556.154C498.372 559.461 497.435 562.92 496.799 566.357C496.415 568.428 495.473 571.65 496.729 573.486C498.783 572.089 501.304 559.744 502.171 556.517C518.173 559.862 538.59 560.074 554.84 558.1C564.734 556.898 567.268 553.454 573.073 546.089C567.657 572.09 561.875 587.772 545.268 609.211C539.365 616.621 533.959 621.062 525.43 625.158C525.327 620.945 525.152 616.874 523.767 612.848C522.227 608.373 519.32 604.291 514.925 602.279C508.271 599.232 501.494 601.809 495.196 604.327C493.971 603.73 492.74 603.166 491.466 602.682C486.308 600.722 480.845 600.862 475.846 603.234C465.938 607.934 458.696 619.404 455.002 629.324C450.007 627.756 445.165 625.36 440.332 623.335C435.734 593.294 436.256 544.475 449.905 517.239Z"/><path fill="white" d="M455.997 522.736C483.016 537.079 510.05 541.84 540.363 542.82C550.027 543.132 559.795 542.359 569.415 543.501C567.84 545.79 566.179 547.806 564.298 549.847C562.027 551.74 559.623 552.638 556.75 553.28C550.629 554.647 544.088 554.768 537.829 554.878C513.029 555.311 481.062 551.837 459.918 538.359C458.294 533.218 457.162 527.994 455.997 522.736Z"/><path fill="#E39982" d="M506.946 603.662C510.928 603.967 514.464 605.155 517.257 608.157C522.054 613.31 522.16 620.037 521.953 626.629C512.093 629.255 502.27 631.288 492.121 632.396C487.158 632.768 482.194 632.799 477.224 632.583C479.391 626.526 482.702 620.515 486.675 615.457C491.96 608.73 498.324 604.669 506.946 603.662Z"/><path fill="white" d="M442.3 627.89C447.093 629.443 451.584 631.525 456.509 632.803C480.635 639.065 504.602 635.82 527.847 627.875L523.402 631.213C520.728 633.079 517.852 634.742 514.922 636.174C497.229 644.827 477.864 646.157 459.222 639.691C452.598 637.393 445.546 634.535 442.3 627.89Z"/><path fill="#E39982" d="M480.54 604.598C481.438 604.486 482.345 604.378 483.25 604.365C485.477 604.331 489.045 604.606 490.676 606.242C490.641 607.884 485.175 612.952 483.959 614.635C480.041 620.061 477.177 626.186 475.067 632.51L468.414 631.866C464.831 631.492 461.285 630.751 457.745 630.092C463.282 619.74 469.548 609.729 480.54 604.598Z"/><path d="M552.714 452.587C590.709 448.58 593.772 499.13 573.439 519.833C564.403 529.034 559.655 531.96 546.662 532.816C513.384 532.786 504.535 501.544 521.24 476.548C529.437 464.282 537.973 455.949 552.714 452.587Z"/><path fill="white" d="M554.279 456.636C570.158 455.342 580.554 468.157 581.365 482.866C582.642 506.026 569.562 526.687 545.279 528.363C498.646 525.776 515.451 462.712 554.279 456.636Z"/><path d="M531.046 482.835C532.766 482.867 532.862 482.769 534.483 483.485C537.424 487.093 534.714 490.575 531.929 493.289L530.014 493.398C526.07 490.928 529.127 485.827 531.046 482.835Z"/><path d="M474.009 439.565C513.281 436.93 505.022 500.92 464.125 510.913C422.872 517.761 436.445 449.405 474.009 439.565Z"/><path fill="white" d="M474.383 443.128C484.613 441.808 492.607 448.276 494.968 458.085C499.887 478.515 483.948 501.974 464.167 507.371C427.185 514.226 442.372 451.528 474.383 443.128Z"/><path d="M484.629 468.666C490.285 470.803 487.709 480.016 483.449 483.182C477.949 478.885 480.686 472.919 484.629 468.666Z"/><path d="M570.626 420.133C583.403 418.471 598.516 423.255 607.672 432.391C605.997 440.451 605.941 445.211 602.846 453.211C601.148 452.312 597.412 449.36 595.534 448.093C588.739 443.511 582.868 442.027 574.964 440.567C561.052 439.685 552.041 442.852 541.037 451.13C540.163 451.788 539.525 451.706 538.574 451.607C533.841 448.481 535.248 444.765 538.183 440.714C546.099 429.789 557.316 422.557 570.626 420.133Z"/><path fill="#6C2C2F" d="M574.281 425.165C583.738 424.72 593.743 428.671 601.48 433.866C601.2 437.655 600.79 440.922 600.273 444.692C592.637 438.466 584.135 436.2 574.572 435.036C560.011 434.654 555.769 435.856 543.24 443.705C550.527 432.261 560.947 426.717 574.281 425.165Z"/><path d="M483.668 402.884C494.141 402.749 500.489 406.834 507.085 414.707C514.785 423.898 514.671 444.561 504.4 451.959C500.937 446.405 499.409 434.706 494.298 428.032C488.614 420.608 483.721 417.745 474.751 416.019C477.107 410.469 479.688 407.313 483.668 402.884Z"/><path fill="#6C2C2F" d="M485.846 407.293C495.776 408.168 505.355 417.948 507.105 427.603C507.598 430.324 507.164 437.739 505.497 440.047L504.973 439.282C501.601 427.308 494.408 413.899 480.47 412.73C482.276 410.971 484.073 409.095 485.846 407.293Z"/><path d="M504.42 660.119C505.832 659.966 506.607 660.026 508.002 660.463C508.698 661.041 509.171 661.452 509.505 662.332C510.025 663.702 509.828 665.069 509.067 666.306C505.708 671.774 492.162 676.034 486.021 677.585C483.557 677.611 481.48 677.578 479.548 675.868C479.271 674.561 479.314 673.979 480.086 672.836C484.557 666.21 496.96 661.632 504.42 660.119Z"/><path fill="#A2A3B5" d="M505.58 663.092L506.319 664.024L505.844 665.335C502.006 669.212 489.448 673.576 483.992 674.947L483.279 674.57L483.059 673.836C483.161 673.655 483.246 673.463 483.365 673.293C487.203 667.823 499.393 664.4 505.58 663.092Z"/><path d="M373.116 643.608C374.067 643.602 375.375 643.628 376.272 643.963C377.554 644.441 377.78 644.833 378.431 645.938C378.436 646.732 378.436 647.439 378.141 648.191C375.444 655.065 365.816 661.284 359.26 663.952C357.962 663.915 357.016 663.721 355.858 663.157C354.673 662.58 353.527 661.774 353.277 660.395C352.947 658.575 354.313 656.409 355.308 655.009C359.419 649.223 366.13 644.778 373.116 643.608Z"/><path fill="#D3D4E6" d="M372.413 646.505C373.399 646.467 374.016 646.504 374.941 646.861L375.038 647.762C372.176 653.245 364.771 657.904 359.25 660.323C359.07 660.344 358.891 660.389 358.711 660.385C357.45 660.354 357.14 660.367 356.261 659.464C356.344 658.811 356.314 658.767 356.608 658.055C358.771 652.821 367.315 648.196 372.413 646.505Z"/><path d="M561.619 705.612C562.573 705.584 563.515 705.655 564.462 705.773C566.231 705.993 567.379 706.411 568.499 707.85C568.902 709.408 569.111 710.577 568.27 712.087C565.524 717.018 555.456 719.647 550.357 720.998C548.131 721.276 545.412 721.4 543.354 720.337C542.463 719.876 542.391 719.549 542.061 718.673C542.211 717.576 542.42 716.832 543.036 715.895C546.943 709.955 554.89 706.824 561.619 705.612Z"/><path fill="#D3D4E6" d="M560.675 708.572C562.053 708.482 563.464 708.282 564.801 708.708C565.572 708.955 565.555 709.255 565.924 709.897C565.866 710.071 565.831 710.255 565.75 710.419C563.776 714.408 554.497 716.888 550.448 717.911C548.925 718.305 547.337 718.737 545.88 717.968C545.618 717.035 545.439 717.198 545.888 716.485C548.531 712.288 556.017 709.579 560.675 708.572Z"/><path d="M442.208 766.054C444.765 765.77 447.302 765.759 449.754 766.663C451.137 767.172 451.568 767.787 452.116 769.045C452.06 770.367 451.841 771.248 451.127 772.349C448.152 776.937 442.421 778.249 437.465 779.427C434.766 779.886 431.003 780.644 428.394 779.443C427.11 778.852 426.87 778.325 426.419 777.043C426.572 776.151 426.711 775.381 427.169 774.586C430.219 769.303 436.681 767.383 442.208 766.054Z"/><path fill="#D3D4E6" d="M443.72 769.131C445.258 769.051 447.572 768.709 448.821 769.83L448.659 770.828C445.432 774.518 439.44 775.68 434.87 776.618C433.495 776.961 432.037 777.476 430.617 777.201C429.803 777.043 430.009 776.996 429.571 776.217C429.794 775.64 429.799 775.521 430.249 774.968C433.174 771.371 439.318 769.742 443.72 769.131Z"/><path d="M393.038 586.118C394.4 586.089 395.843 586.008 397.168 586.375C398.712 586.803 400.714 588.111 401.301 589.652C401.755 590.843 401.512 592.035 400.868 593.092C398.296 597.312 391.246 598.266 386.877 599.334C384.603 599.74 381.189 600.571 379.07 599.199C377.961 598.481 377.943 597.882 377.702 596.696C377.999 595.496 378.301 594.604 379.04 593.595C382.282 589.172 387.818 587.013 393.038 586.118Z"/><path fill="#D3D4E6" d="M390.677 589.579C391.75 589.472 392.825 589.364 393.902 589.298C395.71 589.186 397.014 589.309 398.4 590.531L398.098 591.512C395.013 594.291 391.549 594.974 387.637 596.024C385.399 596.518 383.152 597.35 381.023 596.285L381.189 595.299C383.915 592.346 387.055 591.106 390.677 589.579Z"/><path d="M642.547 481.112C658.66 479.24 655.667 491.609 642.549 493.51C625.276 493.9 627.609 484.691 642.547 481.112Z"/><defs><linearGradient id="gradient_1" gradientUnits="userSpaceOnUse" x1="643.12329" y1="489.76297" x2="640.87671" y2="484.23703"><stop offset="0" stop-color="#9495A5"/><stop offset="1" stop-color="#B0ADB5"/></linearGradient></defs><path fill="url(#gradient_1)" d="M644.557 483.122C647.211 483.026 649.132 482.556 651.035 484.577C650.787 489.367 643.872 490.513 640.122 490.938C637.766 490.911 633.438 491.391 633.472 488.304C636.218 484.732 640.372 483.83 644.557 483.122Z"/><path d="M625.052 391.64C628.304 391.474 632.842 391.762 635.056 394.458C637.949 402.279 624.477 401.107 619.879 402.794C616.725 403.774 612.257 405.814 609.686 402.906C608.121 396.068 620.033 392.5 625.052 391.64Z"/><path fill="#A2A3B5" d="M613.054 398.826C617.151 395.709 631.428 390.072 633.486 397.205C630.964 398.509 614.375 401.84 612.006 401.496L611.41 400.785C611.868 399.519 611.928 399.62 613.054 398.826Z"/><defs><linearGradient id="gradient_2" gradientUnits="userSpaceOnUse" x1="623.43073" y1="399.13733" x2="620.65759" y2="394.51007"><stop offset="0" stop-color="#8D93AC"/><stop offset="1" stop-color="#AFB3CD"/></linearGradient></defs><path fill="url(#gradient_2)" d="M613.054 398.826C617.151 395.709 631.428 390.072 633.486 397.205C625.973 392.317 617.884 401.925 613.054 398.826Z"/><path d="M561.62 385.576C564.978 386.014 568.417 387.452 567.811 391.452C565.039 395.375 557.23 396.119 552.166 397.471C549.885 398.033 546.825 398.374 545.748 395.897C546.976 389.351 556.057 386.888 561.62 385.576Z"/><path fill="#A2A3B5" d="M558.82 388.575L559.505 388.494C561.706 388.25 565.338 387.784 565.606 390.881C563.43 393.172 558.509 393.331 555.368 394.139C553.559 394.821 550.833 396.242 549.166 394.958C549.972 391.641 555.869 389.566 558.82 388.575Z"/><path d="M494.225 498.507C494.47 498.487 494.714 498.463 494.96 498.447C499.131 498.173 503.058 500.362 506.099 503.081C507.822 504.623 509.501 506.707 509.491 509.14C509.477 512.479 505.668 515.114 503.487 517.288C502.144 517.304 501.476 517.26 500.304 516.583C500.656 513.642 504.037 513.076 505.696 511.171C506.228 510.56 506.434 510.166 506.303 509.372C505.911 507 503.377 505.408 501.624 503.984C499.195 502.357 495.961 500.794 493.179 502.633C485.603 507.643 494.378 513.923 493.399 518.873L492.446 518.653C484.319 511.661 483.409 502.963 494.225 498.507Z"/><path d="M394.315 527.554C395.786 527.982 396.311 528.342 397.344 529.396C397.523 530.171 397.797 530.656 397.5 531.436C395.886 535.672 387.679 539.123 383.636 540.717C383.233 540.731 382.619 540.775 382.236 540.678C381.037 540.376 380.857 539.93 380.393 538.921C380.508 538.122 380.615 537.392 380.999 536.67C383.373 532.208 389.61 528.805 394.315 527.554Z"/><path fill="#D3D4E6" d="M392.819 530.419L393.95 530.834L394.238 531.679C392.748 534.395 387.865 535.933 385.141 537.177L384.381 537.248L384.385 536.357C386.727 533.692 389.594 531.849 392.819 530.419Z"/><path fill="#883D3A" d="M542.102 778.039C543.688 778.407 545.255 778.788 546.73 779.495C549.947 781.038 553.431 783.976 554.484 787.513C554.959 789.105 554.966 790.87 554.205 792.372C552.376 795.981 546.894 800.333 544.206 803.716C539.529 809.603 535.181 816.512 531.496 823.049C515.764 850.957 505.952 884.298 514.802 916.106C512.461 917.09 510.017 917.823 507.605 918.612C503.931 919.716 499.949 919.94 496.146 920.234C493.886 909.377 493.17 894.225 493.607 883.091C494.063 871.45 496.309 859.97 500.059 848.948C506.136 831.084 528.108 790.917 542.102 778.039Z"/><path fill="#883D3A" d="M747.073 457.771C747.521 457.952 750.096 459.778 750.845 460.263C754.155 462.409 756.471 463.42 760.135 464.762C756.025 469.549 752.548 475.427 748.936 480.641C722.014 519.496 692.481 557.575 658.174 590.236C653.378 586.143 648.321 579.803 644.332 574.808C674.555 556.72 726.571 488.419 747.073 457.771Z"/><path fill="#883D3A" d="M344.751 763.144C348.214 766.94 351.554 770.853 354.928 774.73C332.467 782.979 311.196 792.795 291.257 806.171C284.94 810.409 279.141 815.408 272.804 819.632L272.06 819.189C268.831 814.228 264.825 809.961 259.92 806.64C288.319 786.882 311.423 773.447 344.751 763.144Z"/><path fill="#856C65" d="M241.986 812.898C242.506 813.117 243.031 813.328 243.533 813.587C252.368 818.134 257.583 827.025 260.697 836.05C253.409 845.153 242.704 854.096 232.286 859.374C229.344 856.395 226.56 853.225 223.718 850.148C217.688 844.32 210.796 839.39 205.024 833.324C208.434 827.059 209.504 821.814 209.925 814.717C214.076 817.598 218.799 820.457 222.015 824.41C228.828 820.963 235.403 816.772 241.986 812.898Z"/><path fill="#883D3A" d="M385.898 377.86C392.548 378.816 396.51 378.782 403.158 378.057C399.814 395.018 394.813 459.71 399.653 474.627C397.131 478.048 394.861 481.643 392.548 485.21C390.056 489.196 387.458 493.099 384.868 497.022C384.373 475.897 384.706 454.541 385.329 433.419C385.875 414.909 387.174 396.316 385.898 377.86Z"/><path fill="white" d="M757.08 401.636C766.553 402.636 772.396 411.516 779.397 417.372C782.981 420.369 786.487 423.226 790.078 426.193C781.313 427.042 773.142 425.415 765.016 421.534C762.927 420.536 760.565 418.091 757.452 416.561C755.287 416.953 756.023 416.409 754.914 417.868C755.197 419.371 756.984 420.791 758.152 421.681C767.746 428.98 778.937 431.586 790.688 430.081C793.045 429.322 792.532 428.666 794.444 427.863C808.128 428.289 798.091 443.185 793.787 448.828C781.232 449.828 772.924 448.087 761.685 442.186C748.18 435.096 734.089 405.949 757.08 401.636Z"/><path fill="white" d="M407.719 331.701C411.725 331.25 417.215 332.653 420.828 334.381C436.537 341.893 416.024 362.676 406.66 365.697C397.504 362.733 401.223 363.213 399.151 356.952L398.292 356.769L396.942 357.916C395.619 362.337 400.153 365.644 403.492 367.584C394.62 367.593 388.057 366.945 380.203 362.621C374.575 357.344 375.806 351.664 377.36 344.98C379.757 346.794 380.427 347.244 383.132 348.531C387.449 347.247 389.387 346.766 392.991 343.885C394.499 345.376 397.738 348.927 399.851 349.138C405.366 349.689 410.839 349.705 416.33 351.203C418.12 351.691 419.902 350.01 420.265 348.022C415.648 345.201 388.489 348.669 399.381 334.377C401.381 331.753 404.729 331.938 407.719 331.701Z"/><path fill="#856C65" d="M526.454 924.435C528.502 927.175 531.267 960.229 532.169 966.65C524.949 969.693 518.149 970.442 510.414 970.94C510.189 968.079 509.699 965.26 509.239 962.43C506.684 954.835 503.906 948.222 497.407 943.173C496.483 940.368 495.804 937.445 495.042 934.59C497.601 934.995 500.193 935.285 502.787 935.306C512.768 935.385 519.52 931.316 526.454 924.435Z"/><path fill="white" d="M481.472 943.512C485.581 943.354 489.86 945.256 493.098 947.674C500.592 953.273 503.863 961.664 505.213 970.62C498.934 970.664 492.654 970.559 486.375 970.48C478.435 970.118 470.658 969.33 462.807 968.094C463.728 963.593 464.91 959.078 467.05 954.985C470.277 948.814 474.956 945.495 481.472 943.512Z"/><path fill="white" d="M183.266 805.204C187.432 804.778 192.203 804.818 196.365 805.399C199.205 805.796 201.516 806.542 203.228 808.968C205.74 812.528 205.934 818.974 204.997 823.116C203.933 827.813 202.08 829.739 198.162 832.177C207.343 839.214 223.839 855.005 230.636 864.05C230.021 865.239 227.991 865.97 226.777 866.62C226.629 866.619 226.478 866.65 226.333 866.618C224.363 866.185 221.468 862.549 219.971 861.085C211.4 852.704 202.942 843.935 195.203 834.769C187.344 825.462 179.982 815.849 171.955 806.652C175.727 805.939 179.441 805.517 183.266 805.204Z"/><path fill="white" d="M748.449 436.705C759.886 447.324 770.778 453.44 786.814 454.005C785.023 457.258 784.325 458.402 782.03 461.299C775.91 466.623 765.904 463.194 759.327 460.127C749.581 455.583 743.466 447.05 748.449 436.705Z"/><path fill="#E0CA94" d="M598.682 321.622C606.503 328.481 609.275 332.957 614.388 342.1C615.518 339.934 616.332 337.79 618.241 336.39L619.182 336.618C620.676 339.909 619.298 349.837 617.886 353.174L617.318 352.864C617.401 352.277 617.289 351.893 617.213 351.277C612.978 347.488 596.108 345.498 590.76 345.716C588.257 337.265 586.199 331.539 582.631 323.358C588.431 327.23 593.022 331.023 598.517 335.185C599.512 335.939 600.046 335.712 600.953 335.543C602.626 332.735 599.628 324.702 598.682 321.622Z"/><path fill="white" d="M777.163 385.217C796.683 389.636 794.491 402.631 786.366 416.795C784.127 416.614 774.609 407.451 772.164 405.317C775.859 398.509 776.778 392.798 777.163 385.217Z"/><path fill="white" d="M167.959 807.246C168.683 807.674 168.656 807.584 169.132 808.053C175.035 813.88 180.226 821.257 185.549 827.662C193.978 837.804 202.689 847.555 211.707 857.178C213.646 859.248 222.135 867.132 222.124 869.658C221.063 869.691 220.234 869.762 219.239 869.331C215.042 867.513 210.265 861.811 206.949 858.573C194.227 846.149 182.239 834.248 172.361 819.314C170.606 816.661 167.932 813.102 167.208 809.983C166.902 808.667 167.308 808.363 167.959 807.246Z"/><path fill="white" d="M384.139 308.022C385.802 307.918 386.131 307.974 387.733 308.151C389.104 309.335 388.134 313.393 387.512 314.364C384.018 319.812 390.763 339.259 388.694 342.278C386.162 341.388 386.005 337.754 383.55 337.339L382.722 338.642C382.67 339.846 382.746 341.645 382.763 342.897C380.732 342.591 379.196 340.613 378.243 338.921C371.844 327.57 371.27 314.91 384.139 308.022Z"/><path fill="white" d="M517.592 908.379C518.566 908.393 519.609 908.424 520.565 908.629C522.535 909.051 524.977 910.68 525.847 912.55C526.787 914.574 526.262 917.104 525.444 919.07C523.336 924.136 518.738 927.981 513.749 930.05C508.64 932.169 500.469 933.307 495.376 930.901C491.698 929.164 491.913 924.563 490.74 921.172L490.597 920.772C489.753 919.644 488.798 918.476 488.285 917.152C487.656 915.527 487.142 913.292 487.819 911.647C488.853 911.106 488.909 911.1 490.063 911.283C491.632 914.882 490.523 920.301 492.537 923.48C492.899 924.051 492.993 923.91 493.793 924.123C500.762 925.979 511.394 922.63 517.278 918.86C519.302 917.563 520.609 916.336 521.149 913.963C519.556 912.395 518.003 911.136 517.641 908.809C517.618 908.667 517.608 908.522 517.592 908.379Z"/><path fill="white" d="M532.945 970.158C533.287 970.501 533.593 971.275 533.649 971.738C533.807 973.032 533.273 973.453 532.486 974.323C515.81 980.705 479.401 980.31 462.217 975.146L461.229 974.146C461.211 973.214 461.105 972.482 461.572 971.633C462.222 970.455 469.079 971.993 470.705 972.234C489.664 975.04 514.57 975.834 532.945 970.158Z"/><path fill="white" d="M396.274 306.047C409.484 306.673 406.936 310.557 404.5 320.753C404.032 322.709 403.804 325.803 403.594 327.85C400.397 328.833 399.029 329.154 396.131 330.838C394.263 332.928 394.055 333.398 393.145 336.064C391.227 328.957 387.171 309.635 396.274 306.047Z"/><path fill="white" d="M247.866 804.189C248.102 804.23 248.339 804.263 248.573 804.313C254.109 805.487 262.944 814.64 265.998 819.335C267.991 822.398 271.243 828.117 270.065 831.812C269.444 833.758 268.167 834.483 266.502 835.413C266.339 835.496 266.166 835.562 266.012 835.663C265.292 836.132 265.081 836.409 264.223 836.738C264.385 836.158 264.574 835.591 264.602 834.981C264.671 833.453 263.532 831.403 262.876 830.039C258.386 820.692 251.735 815.885 243.911 809.403C245.145 807.587 246.491 805.897 247.866 804.189Z"/><path fill="white" d="M796.368 399.238C800.642 400.545 804.549 402.003 805.801 406.732C807.12 411.711 803.733 420.662 801.323 424.845L800.389 425.002C795.387 423.636 793.425 423.268 789.464 419.803C793.181 411.656 794.134 407.872 796.368 399.238Z"/><path fill="white" d="M764.337 378.879C779.686 381.256 771.324 401.222 768.821 401.857L766.438 400.428C762.167 398.43 760.166 398.083 755.665 397.401C757.196 391.577 759.447 382.566 764.337 378.879Z"/><path fill="white" d="M414.316 307.528C421.894 308.002 424.861 311.367 424.008 319.307C423.774 321.478 422.135 327.766 420.503 329.062L418.866 328.44C414.221 326.811 412.339 326.46 407.564 326.543C408.381 320.468 408.517 310.543 414.316 307.528Z"/><path fill="white" d="M381.356 367.33C387.415 369.255 394.645 370.06 401 369.835C403.784 369.736 406.061 369.019 409.329 368.991L409.781 369.679L409.049 372.24C409.498 373.806 409.536 373.217 409.271 374.695L408.358 374.331C395.509 376.841 390.033 376.845 378.255 371.71C380.77 370.028 381.024 370.339 381.356 367.33Z"/><path fill="#FDFDDA" d="M448.291 325.297C460.674 303.577 477.152 282.331 492.952 263.049C526.612 221.971 566.592 187.025 605.933 151.547C610.047 185.262 611.296 219.585 616.551 253.272C618.195 263.808 620.47 276.115 621.099 286.554C647.206 255.728 674.666 224.911 706.561 199.975C700.955 244.641 699.981 283.686 699.861 328.577C728.487 307.903 759.022 289.836 790.91 274.683C797.196 271.696 803.249 268.677 809.863 266.449C807.571 272.314 805.288 280.358 803.221 286.505C796.857 305.428 791.336 324.532 783.865 343.073C802.018 329.808 818.887 317.133 837.848 304.676C827.622 325.778 818.849 349.303 808.5 370.526C804.816 378.082 801.45 387.592 797.268 394.694C791.247 385.924 786.735 383.088 776.363 380.472C772.162 375.435 764.313 371.578 759.183 377.273C754.517 382.451 751.839 392.476 750.262 399.124C736.279 407.925 740.154 419.088 744.699 431.978C741.809 442.009 740.267 443.903 744.592 453.584C727.941 477.726 710.768 500.178 691.442 522.272C690.342 512.449 690.245 502.237 689.322 492.288C684.755 443.032 673.893 375.589 625.543 350.027C626.849 342.1 624.715 330.083 622.92 322.316C619.755 325.156 617.606 327.186 615.227 330.796C608.121 320.903 598.508 311.526 586.567 307.791C588.132 311.464 591.977 321.119 593.689 324.184C582.486 316.609 581.146 316.448 567.793 313.786C575.705 324.959 577.111 325.783 581.832 338.728C511.244 346.096 465.081 392.557 421.619 445.013C415.261 452.686 409.681 461.732 403.895 468.765C402.772 450.388 404.589 427.887 405.446 409.218C405.788 401.783 407.014 384.553 408.265 377.661C409.644 376.655 410.148 376.872 412.027 376.654L412.833 375.992C412.882 373.754 411.802 371.145 413.305 369.614C422.285 360.462 443.575 344.186 426.175 331.593C429.053 321.766 433.967 307.366 421.517 303.858C417.389 302.694 413.594 303.536 409.763 305.913C402.819 302.07 400.477 298.403 390.995 304.632L391.862 303.985C385.735 303.786 381.174 303.619 376.476 308.175C366.431 317.915 368.59 328.827 373.744 339.692C370.669 351.288 368.569 358.325 378.407 367.091C377.01 368.405 376.007 369.05 375.523 370.884C376.259 374.055 379.271 374.61 381.991 376.18C379.832 408.321 378.783 440.825 378.255 473.033C378.064 484.66 377.893 496.251 377.537 507.876C373.23 514.447 368.747 523.212 365.224 530.247C335.496 589.612 298.249 698.183 341.977 758.688C319.384 765.226 301.287 773.597 281.293 786.177C274.603 790.386 261.676 800.047 255.656 803.097C246.992 797.415 243.615 800.479 239.039 808.924C234.792 811.495 227.342 815.369 222.716 817.314C218.096 815.063 214.042 811.754 209.667 809.014C204.193 794.73 179.616 798.473 168.07 801.35C161.2 787.417 152.991 769.052 147.52 754.506C158.133 761.043 167.291 768.296 177.408 775.213C189.137 783.231 202.331 791.652 214.542 798.826C212.409 792.822 210.975 785.966 209.127 779.8C195.587 734.632 181.799 690.003 173.415 643.469C195.42 650.358 237.567 670.12 256.706 682.397C252.354 675.168 246.351 660.138 242.767 651.665C227.548 615.683 214.416 575.448 209.331 536.483C208.272 528.375 208.478 517.918 208.639 509.759C212.915 514.232 216.969 520.151 221.04 524.922C244.765 552.72 261.142 584.322 280.104 615.392C279.993 604.439 278.83 593.259 278.678 582.177C278.327 556.416 278.674 530.786 279.223 505.033C279.556 489.457 279.153 474.005 279.868 458.404C297.288 478.117 306.241 497.891 322.003 516.924C322.113 493.95 319.176 473.888 316.694 451.142L308.61 381.215C306.495 363.24 304.09 344.982 303.194 326.933C302.7 316.982 302.799 306.269 302.738 296.261C314.433 314.986 322.702 347.026 329.943 368.509C332.95 377.428 339.021 397.116 340.654 405.739C344.484 390.567 348.57 377.157 354.391 362.482C357.396 354.906 361.653 346.493 364.251 338.991C367.654 329.164 364.922 319.224 371.383 309.58C377.811 299.984 383.341 300.965 393.508 300.319C395.978 300.162 400.06 299.255 402.577 298.704C413.552 280.188 422.811 253.394 433.026 233.773C434.179 241.165 437.257 251.733 438.856 259.449C443.484 281.781 447.743 302.452 448.291 325.297Z"/><path fill="#FDFDDA" d="M804.592 440.848C815.681 432.184 830.319 423.593 842.448 416.485C849.844 412.151 861.221 405.527 868.969 402.037C865.392 409.969 859.838 418.102 854.906 425.297C825.256 468.558 792.73 511.261 759.635 551.934C769.362 546.273 778.629 542.933 789.045 538.822C797.725 535.397 806.422 531.79 815.236 528.738C803.844 541.919 795.626 555.236 785.097 568.534C760.162 600.026 738.885 634.75 714.843 666.611C731.515 661.516 749.406 654.649 765.874 649.901C742.807 686.372 716.907 720.744 693.432 756.923C691.257 760.275 688.961 763.636 686.893 767.049C708.497 758.586 732.663 746.276 753.452 739.105C732.888 768.378 707.826 803.816 689.886 834.886L736.26 829.421C744.176 828.465 753.389 827.605 761.108 826.245C723.268 852.352 685.346 883.929 648.048 911.298C663.804 909.031 680.329 908.69 695.364 906.26C679.829 915.835 665.658 927.07 649.507 935.99C641.161 940.6 633.602 946.097 624.919 950.668L623.383 951.267C622.968 952.439 623.027 952.001 623.026 953.244C622.073 954.444 615.454 956.507 613.444 957.378L614.156 957.46C615.003 957.55 615.457 957.571 616.293 957.582L616.561 958.208C615.582 959.362 614.971 960.09 613.845 961.141C609.756 961.255 605.277 961.469 601.22 961.384C585.43 963.772 553.718 963.621 537.184 963.498C536.551 956.34 531.069 911.994 528.357 908.217C525.623 904.411 521.921 903.462 517.536 902.821C515.153 874.867 521.37 855.244 533.26 830.66C555.692 829.687 587.317 813.365 604.271 798.678C655.813 754.031 673.547 674.148 684.271 609.981C686.365 597.453 689.542 576.255 690.524 563.789C701.167 552.711 713.687 536.945 723.055 524.715C737.092 506.388 752.228 486.113 764.251 466.487C779.575 470.604 785.748 469.823 792.249 454.35C798.694 450.437 800.531 446.992 804.592 440.848Z"/><path fill="#F97316" d="M613.444 957.378L614.156 957.46C615.003 957.55 615.457 957.571 616.293 957.582L616.561 958.208C615.582 959.362 614.971 960.09 613.845 961.141C609.756 961.255 605.277 961.469 601.22 961.384C604.501 960.72 610.103 958.556 613.444 957.378Z"/><path fill="#AD1F15" d="M490.912 201.954C509.678 155.481 575.354 104.188 616.889 77.0443C628.039 69.7569 698.207 30.965 707.185 32.9824C707.639 34.1002 707.935 34.3394 707.172 35.546C700.67 45.833 693.529 55.8979 688.486 67.0384C671.552 104.45 654.942 142.182 663.424 184.117C671.531 177.309 682.558 163.678 690.332 155.576C718.426 126.303 745.964 94.5059 781.628 74.2284C784.676 72.4956 791.975 67.5825 795.051 68.8275C795.22 70.2528 795.017 70.7722 794.165 72.0894C770.931 107.986 744.66 146.835 739.961 190.374C739.102 198.339 739.205 207.037 741.679 214.6L741.902 215.261C748.736 209.859 755.368 202.061 761.63 195.838C803.18 154.543 850.319 117.623 903.683 92.8643C908.973 90.4104 933.358 79.1888 937.448 81.7922C936.857 84.752 920.676 100.686 917.732 104.461C888.443 142.029 854.444 193.296 845.491 240.605C864.87 224.825 883.687 200.643 898.989 180.757C902.396 176.329 900.974 167.037 904.025 164.069L904.709 164.336C905.867 168.774 903.341 179.411 902.888 184.737C901.305 200.295 901.27 216.701 897.696 231.999C893.189 251.293 887.083 267.258 884.75 287.237C891.717 281.11 903.655 269.799 908.925 262.412C915.583 253.08 920.365 239.265 927.046 229.286C931.92 221.607 937.018 214.075 943.234 207.416C948.472 201.803 954.452 197.423 958.053 190.55C959.048 188.65 961.822 183.394 964.33 184.598C964.371 188.352 958.953 194.694 957.185 199.032C948.861 219.032 938.801 236.375 934.984 258.053C930.04 286.129 934.233 314.066 933.353 342.35C933.225 346.481 932.956 350.63 932.845 354.74C930.685 434.897 871.104 494.114 828.616 556.396C826.663 559.26 818.459 570.664 822.962 573.204C834.64 573.622 870.149 551.351 881.286 545.558C899.575 536.044 918.683 527.809 936.075 516.402C942.752 512.267 949.141 507.902 955.46 503.251C958.138 501.28 968.559 491.746 971.073 492.404C974.349 501.442 954.506 530.2 948.924 538.258C910.306 593.997 859.672 640.102 819.236 694.535C812.963 702.979 805.62 712.235 801.054 721.661C810.006 719.176 818.535 714.853 827.081 711.256C844.823 703.791 862.825 694.617 880.704 687.652C877.435 694.007 873.477 698.165 868.807 703.524C849.947 725.168 831.374 747.03 811.442 767.713C806.589 772.748 801.813 777.898 797.42 783.341C806.665 781.623 817.474 778.507 826.72 776.059C857.123 768.008 880.871 760.41 908.403 745.691C904.07 753.656 887.509 772.987 881.252 780.696C859.263 807.791 835.503 834.656 808.851 857.212C794.051 869.738 778.047 881.898 762.915 894.073C755.863 899.747 747.909 905.088 741.181 911.06C761.532 910.819 784.555 903.685 804.098 898.154C805.342 897.802 805.437 898.063 806.275 898.688C806.028 900.202 805.521 900.758 804.352 901.951C792.654 913.891 779.728 922.989 764.984 930.687C711.951 958.376 653.886 964.353 595.031 966.477C575.884 967.168 556.462 966.949 537.558 967.853L537.184 963.498C553.718 963.621 585.43 963.772 601.22 961.384C605.277 961.469 609.756 961.255 613.845 961.141C614.971 960.09 615.582 959.362 616.561 958.208L616.293 957.582C615.457 957.571 615.003 957.55 614.156 957.46L613.444 957.378C615.454 956.507 622.073 954.444 623.026 953.244C631.437 952.995 638.582 951.365 646.856 949.827C647.305 952.982 647.767 955.794 648.368 958.923C658.972 957.64 669.643 956.892 680.194 954.821C720.426 946.922 766.295 932.65 796.887 904.274C788.144 906.505 743.102 919.057 738.26 912.132C737.958 909 742.001 905.634 744.35 903.817C776.513 878.949 809.47 854.234 837.874 825.043C859.381 802.94 878.662 778.573 898.037 754.638C889.24 758.99 880.273 762.718 871.05 766.069C861.854 769.41 802.184 788.477 796.523 786.121C795.144 785.548 795.012 785.257 794.45 783.977C794.48 781.747 796.357 779.336 797.842 777.717C822.809 750.502 847.222 722.869 871.634 695.18C858.547 700.123 810.892 724.663 800.021 724.667C798.263 723.754 799.013 724.383 797.891 722.499C796.314 706.08 910.61 584.276 925.504 563.888C939.801 544.318 958.119 523.696 966.782 498.779C941.085 519.931 912.695 534.091 883.085 548.688C871.053 555.082 859.657 562.321 847.341 568.19C795.337 593.14 824.767 555.9 839.258 535.571C872.349 489.152 910.158 447.207 924.264 390.337C935.422 345.353 924.501 301.674 931.554 256.76C934.459 238.261 944.658 219.986 952.016 202.837C940.368 214.312 931.694 226.494 924.135 240.944C919.077 250.611 915.344 261.406 907.83 269.18C903.64 273.514 887.577 291.023 882.564 291.298C882.432 291.166 882.284 291.049 882.17 290.902C877.752 285.224 890.415 247.443 892.492 239.89C893.725 235.407 894.689 230.883 895.449 226.297C897.667 212.917 898.307 199.293 899.118 185.772C892.499 195.273 851.994 244.468 843.211 245.063C842.49 244.145 842.016 243.068 842.227 241.876C851.855 187.578 894.212 123.867 930.2 85.7713C861.918 110.349 801.664 158.819 751.88 210.507C750.42 212.001 744.418 217.817 742.636 218.153C734.32 219.722 736.252 195.771 736.545 192.028C739.937 148.69 766.171 109.625 788.79 74.1848C782.277 76.8808 774.287 82.4541 768.387 86.5915C738.279 107.706 713.852 136.009 688.634 162.549C681.548 170.007 672.537 181.003 664.288 187.326C663.446 187.971 663.461 187.719 662.35 187.439C660.496 185.763 659.885 183.387 659.394 180.997C650.189 136.154 678.17 75.0565 701.365 38.0019C629.515 64.4641 554.59 118.331 507.209 179.426C500.742 187.765 493.699 202.396 489.061 212.122C487.881 204.668 487.086 193.467 486.617 185.873C484.748 155.658 484.507 123.882 489.603 93.9974C491.861 80.7521 495.41 67.5728 498.697 54.5459C444.664 105.06 406.775 164.972 379.838 233.395C372.726 251.46 365.981 269.69 358.712 287.656C356.673 283.066 352.8 268.745 351.4 263.351C337.586 210.13 329.738 147.66 338.434 93.1368C331.754 104.855 324.512 116.241 318.053 128.108C283.03 192.456 257.618 263.366 262.529 337.638C263.435 351.342 273.163 405.357 268.575 414.362C260.678 418.722 241.933 382.159 238.508 375.581C239.556 384.94 240.268 448.896 235.76 452.433C235.255 452.36 234.935 452.351 234.452 452.081C224.488 446.509 197.372 342.741 192.621 327.723C183.989 348.09 175.19 382.439 171.09 404.029C167.317 423.9 162.636 451.522 161.492 471.483C160.207 499.074 165.107 526.409 170.39 553.365C173.058 566.976 174.831 580.5 178.792 593.798C179.226 595.255 179.13 595.963 178.323 597.121C174.813 598.117 167.331 593.534 164.351 591.42C141.532 575.229 125.139 551.538 116.036 525.25C115.044 522.387 114.177 518.947 112.994 516.262L112.602 515.389C108.661 569.136 117.417 623.012 132.37 674.691C135.481 685.444 141.239 695.669 144.894 706.328C117.683 698.91 87.6449 667.186 70.3792 645.236C77.0269 714.518 93.2204 788.87 131.812 847.96C133.221 850.117 136.819 854.368 137.293 856.711C136.591 857.302 136.515 857.592 135.689 857.67C132.568 857.963 127.4 855.285 124.382 854.12C108.336 847.923 93.6645 839.936 80.2955 829.016C75.7874 825.334 72.0453 821.619 67.6976 817.875C90.3865 862.882 158.398 901.435 206.565 912.396C216.961 914.937 227.788 916.685 238.362 918.362C299.826 928.112 362.567 932.816 420.846 956.385C426.962 958.859 452.735 970.696 457.25 971.114C457.394 973.224 457.483 974.843 457.469 976.954C456.057 974.94 439.292 968.943 436.003 967.401C361.915 932.663 280.687 933.599 202.749 915.671C157.081 905.165 72.779 857.371 61.2855 807.89C65.6604 810.886 75.0544 820.55 79.7244 824.554C96.6514 839.066 110.644 845.16 130.781 852.903C123.257 843.219 115.301 827.898 110.003 816.709C87.7062 769.624 75.0103 715.568 68.9163 663.99C67.9219 655.574 66.7381 644.536 66.4341 635.975C66.385 634.591 66.8483 634.449 67.6111 633.829L68.4459 634.233C68.6795 634.956 68.9181 635.675 69.1865 636.386C74.8036 651.255 106.814 680.297 120.261 689.935C126.219 694.206 132.469 697.759 139.165 700.733C130.813 681.672 126.471 668.027 121.739 647.611C111.27 603.397 105.72 557.859 109.373 512.422C109.685 508.537 107.929 494.18 111.139 493.02C112.927 494.114 112.945 498.795 113.273 501.102C118.325 536.691 142.629 576.843 174.789 593.938C171.746 581.182 169.86 567.816 167.311 554.877C163.054 533.266 158.644 509.918 158.049 487.836C157.178 455.504 164.652 418.739 171.232 387.132C173.242 377.476 186.998 324.68 192.929 320.936L193.924 321.238C198.106 332.652 200.841 346.004 204.555 357.751C208.832 371.28 212.512 384.944 217.102 398.427C222.74 414.989 226.494 431.593 234.535 447.306C236.412 433.331 235.721 413.967 235.829 399.678C235.894 391.076 235.687 381.283 234.827 372.719C234.452 368.984 231.857 359.41 233.025 356.721L233.708 356.508C236.448 358.141 238.929 367.068 240.321 370.385C245.192 381.996 256.29 403.605 266.51 410.86C266.993 386.35 261.252 364.518 259.314 340.682C252.328 254.75 287.693 168.587 332.51 97.0232C335.04 92.9831 341.834 79.6023 345.172 78.1362C345.798 78.5894 346.013 78.5333 345.864 79.1647C344.522 84.8376 342.451 87.5047 341.548 93.6445C339.714 107.807 338.244 122.601 338.143 136.913C337.951 164.419 341.043 193.778 345.522 220.85C348.669 239.863 353.977 259.552 358.81 278.045C362.555 270.195 365.797 260.696 368.824 252.475C392.95 186.961 425.426 124.929 474.606 74.6133C478.889 70.2311 499.939 46.7743 502.909 46.9553C503.396 50.5594 498.173 71.1768 496.824 76.3691C486.019 117.969 488.593 159.37 490.912 201.954Z"/><defs><linearGradient id="gradient_3" gradientUnits="userSpaceOnUse" x1="614.86902" y1="956.0517" x2="646.94983" y2="954.98749"><stop offset="0" stop-color="#F9D557"/><stop offset="1" stop-color="#FFFBA9"/></linearGradient></defs><path fill="url(#gradient_3)" d="M623.026 953.244C631.437 952.995 638.582 951.365 646.856 949.827C647.305 952.982 647.767 955.794 648.368 958.923C636.842 959.68 625.409 961.054 613.845 961.141C614.971 960.09 615.582 959.362 616.561 958.208L616.293 957.582C615.457 957.571 615.003 957.55 614.156 957.46L613.444 957.378C615.454 956.507 622.073 954.444 623.026 953.244Z"/><path fill="#AD1F15" d="M484.461 238.46C525.82 172.804 573.618 116.963 641.049 76.9608C645.281 74.4498 657.584 66.6249 662.006 67.7693C664.315 71.0324 660.322 82.2416 659.163 86.451C651.893 112.861 646.252 139.632 646.47 167.161C646.599 183.445 645.657 204.642 652.779 219.516C659.31 213.348 667.118 202.61 672.697 195.491C680.482 185.555 724.358 135.297 735.777 137.503C737.691 139.519 736.205 144.101 735.587 146.615C726.988 181.537 720.845 216.913 727.602 252.778C756.724 213.282 831.032 144.071 877.102 126.081C875.251 131.827 872.744 135.698 870.033 141.034C853.811 172.972 838.017 206.721 831.666 242.214C829.766 252.832 828.263 267.041 830.225 277.496C837.38 271.262 844.971 263.372 851.042 256.952C856.574 251.101 884.512 217.601 889.82 215.563L890.592 215.914C891.528 217.868 891.096 220.236 890.431 222.243C876.942 262.986 855.608 306.424 854.403 349.902C865.351 333.656 877.773 319.877 890.33 304.873C893.994 300.495 906.159 285.915 910.281 283.07C912.093 282.993 911.22 282.792 912.892 284.028C912.577 290.808 911.114 297.398 910.249 304.081C905.204 343.058 907.622 375.729 893.527 413.19C869.207 477.83 823.32 530.007 793.254 591.816C791.65 595.113 786.316 604.662 788.628 607.819C796.924 608.284 883.517 558.691 895.947 552.159C900.711 549.655 911.242 543.534 916.77 541.57C917.811 541.2 919.006 542.019 919.71 542.585C919.884 545.811 915.959 550.608 914.023 553.122C899.831 571.558 882.026 589.333 866.422 606.8C844.577 631.252 780.822 704.125 776.176 735.488C775.762 738.276 775.577 740.389 777.302 742.711C782.585 743.082 822.42 721.764 830.766 720.704C833.241 720.39 834.126 719.417 836.368 721.448C836.503 722.712 836.402 723.294 835.654 724.36C831.964 729.622 825.692 734.574 821.051 739.102C808.577 751.271 775.448 782.543 770.238 797.318C769.695 798.86 769.342 800.542 770.184 802.043C774.937 810.515 846.844 774.598 853.291 777.774C854.54 778.389 854.67 779.056 855.107 780.26C854.636 785.069 842.361 795.332 838.529 799.077C830.846 806.585 822.48 813.81 814.589 821.117C790.293 843.613 765.583 865.487 740.089 886.617C736.089 889.933 722.117 901.941 722.428 906.94C722.915 914.767 739.1 913.942 743.633 919.206C744.07 922.95 737.007 925.125 733.97 926.179C706.785 935.62 675.535 946.79 646.856 949.827C638.582 951.365 631.437 952.995 623.026 953.244C623.027 952.001 622.968 952.439 623.383 951.267L624.919 950.668C627.278 950.714 629.212 950.363 631.52 950.018C665.089 944.991 697.994 935.687 729.937 924.323C732.716 923.335 736.79 922.106 739.005 920.196C738.09 918.227 733.491 918.098 731.46 917.427C727.027 915.963 721.095 914.284 719.401 909.418C718.53 906.92 719.784 901.96 721.324 900.075C728.177 891.683 738.426 883.293 746.545 876.423L778.852 849.052C801.825 829.223 823.588 807.26 846.529 787.337C848.463 785.658 849.953 783.862 851.132 781.571C850.132 780.928 848.989 781.281 847.876 781.557C842.401 782.917 836.878 785.547 831.614 787.615C817.42 793.192 788.948 805.368 774.744 806.925C772.639 807.155 769.726 806.793 768.094 805.293C766.692 804.003 766.216 802.496 766.247 800.64C766.521 783.959 819.256 736.012 833.658 722.686C821.11 726.981 808.877 733.149 796.735 738.498C792.213 740.491 787.623 742.804 782.9 744.267C780.927 744.878 777.718 745.857 775.715 744.928C774.118 744.188 773.249 742.396 772.934 740.76C767.83 714.222 840.407 630.657 859.758 609.005L895.912 569.092C901.991 562.335 911.113 552.58 916.225 545.379L916.716 544.68C883.848 562.556 851.477 581.424 818.099 598.288C812.037 601.351 790.885 613.584 785.206 609.829C783.185 605.967 785.856 599.762 787.576 596.015C815.452 535.275 860.717 483.773 886.564 422.165C891.094 409.981 897.123 395.867 898.954 382.966C903.52 350.801 903.706 319.576 909.759 287.391C890.673 307.321 872.957 331.444 855.071 352.527C854.367 353.357 853.833 353.189 852.989 353.069C847.044 346.561 857.896 306.772 860.343 297.655C867.269 271.852 879.091 247.314 887.15 221.892C877.688 230.2 837.614 280.208 829.321 280.269C824.784 276.906 825.91 261.924 826.431 256.679C830.811 212.607 850.834 170.528 871.31 131.869C858.985 137.722 845.71 146.068 834.935 154.268C800.824 180.226 768.005 208.607 740.458 241.558C738.152 244.317 730.335 255.447 726.951 254.948C723.507 251.899 722.326 242.626 721.933 238.134C719.122 205.929 725.548 171.513 733.968 140.55C714.946 150.613 687.912 182.126 673.958 198.77C668.337 205.475 659.085 218.293 652.318 223.254C651.513 222.347 650.195 220.796 649.66 219.773C645.497 211.823 644.061 199.774 643.493 190.903C641.684 162.622 643.899 134.013 650.499 106.448C653.385 94.3926 656.985 82.6263 659.97 70.5965C650.051 74.5407 639.387 81.4291 630.633 87.1351C575.339 123.176 530.633 172.165 494.956 227.353C493.102 230.221 486.043 241.771 484.4 243.243C481.008 241.53 480.138 235.652 479.34 232.152C473.725 207.511 472.759 181.689 473.089 156.508C473.316 139.166 474.374 122.242 472.541 104.923C454.011 124.833 437.778 157.712 424.82 181.749C412.75 203.25 401.782 224.316 391.331 246.761C383.028 262.873 377.82 282.609 368.297 297.939C356.027 316.711 342.882 289.506 339.479 279.443C327.723 244.681 323.315 207.594 313.51 172.274C296.691 196.437 283.452 266.018 281.159 296.254C279.761 314.697 279.644 337.099 281.553 355.638C283.183 371.459 285.046 387.855 286.825 403.737C287.304 412.282 289.82 423.162 288.625 431.591C285.155 456.075 261.408 431.551 256.008 422.761C255.927 440.284 257.661 460.72 251.109 477.256C249.58 481.115 247.142 485.793 243.047 487.379C241.232 488.082 239.345 487.796 237.657 486.913C219.45 477.395 202.44 398.71 196.079 377.9C175.951 438.435 177.398 494.982 190.771 556.664C194.765 575.086 199.61 594.314 201.301 613.059C201.887 619.552 196.753 628.861 188.742 627.442C165.067 621.774 144.602 597.141 130.04 579.045C125.854 604.035 145.265 661.125 154.556 685.737C158.309 695.678 164.891 708.801 166.374 719.115C166.733 721.612 166.163 723.801 164.568 725.779C163.303 727.346 161.351 728.07 159.402 728.296C143.119 730.179 108.504 700.466 95.9148 690.091C95.8362 717.058 119.901 777.455 130.164 803.69C134.684 814.531 139.927 825.043 144.671 835.785C146.638 840.239 149.055 844.959 151.187 849.319C153.985 855.042 157.214 860.152 159.393 866.094C162.7 875.112 147.879 876.685 146.744 871.75C148.642 870.488 152.251 871.484 155.772 870.285C157.087 868.714 156.354 867.309 155.636 865.533C152.942 858.871 149.013 852.178 145.84 845.677C140.204 834.127 134.869 822.426 129.665 810.676C121.166 791.487 88.0875 706.137 92.9004 689.469C93.3663 687.855 94.0929 687.277 95.538 686.533C102.476 688.883 127.613 713.871 138.247 717.29C143.493 718.977 156.137 729.88 162.298 723.031C163.969 721.173 162.454 716.557 161.867 714.334C153.235 693.226 115.423 593.28 128.612 575.778C132.379 574.267 139.202 585.4 142.068 588.602C154.28 602.242 168.515 616.919 185.772 623.859C194.295 627.287 199.174 616.969 197.818 609.961C188.561 557.485 173.796 505.13 177.964 451.171C178.893 439.143 188.616 375.931 196.577 371.041C197.642 371.36 198.036 371.781 198.361 372.966C208.013 408.101 215.27 444.748 232.774 477.065C237.836 485.177 242.928 488.409 247.271 477.699C253.745 461.732 252.429 445.481 252.482 428.695C252.492 425.514 252.111 419.215 254.088 416.734C256.502 416.692 261.545 424.645 263.509 426.764C290.064 456.423 286.839 424.133 283.868 405.472C273.604 341.398 273.645 280.177 292.292 217.532C294.996 208.45 305.751 170.513 313.911 167.726C315.379 167.997 315.886 168.063 316.57 169.543C319.239 175.315 320.575 185.751 321.99 192.184C327.419 216.861 338.293 281.557 353.064 297.681C354.576 299.331 356.636 300.879 358.97 300.911C363.204 300.969 365.673 296.577 367.485 293.32C375.916 278.159 381.224 260.802 388.466 244.993C398.407 223.296 409.935 202.492 421.222 181.49C432.069 161.306 454.044 117.486 469.991 103.605C471.372 102.403 472.619 101.588 474.476 101.696C477.994 105.156 477.016 133.548 476.877 139.388C476.351 161.554 475.526 184.285 478.378 206.327C479.536 215.275 481.19 230.178 484.461 238.46Z"/></svg>