<svg xmlns="http://www.w3.org/2000/svg" xmlns:xlink="http://www.w3.org/1999/xlink" viewBox="0 0 910.15 950.59"><defs><style>.cls-1{fill:#f97316;}.cls-2{fill:#fdfdda;}.cls-3{fill:#e0ca94;}.cls-4{fill:#927553;}.cls-5{fill:url(#linear-gradient);}.cls-6{fill:#a2a3b5;}.cls-7{fill:#883d3a;}.cls-8{fill:#fff;}.cls-9{fill:#e39982;}.cls-10{fill:#6c2c2f;}.cls-11{fill:#d3d4e6;}.cls-12{fill:url(#linear-gradient-2);}.cls-13{fill:url(#linear-gradient-3);}.cls-14{fill:#856c65;}.cls-15{fill:#ad1f15;}.cls-16{fill:url(#linear-gradient-4);}</style><linearGradient id="linear-gradient" x1="373.57" y1="241.52" x2="625.7" y2="651.8" gradientTransform="matrix(1, 0, 0, -1, 0, 1024)" gradientUnits="userSpaceOnUse"><stop offset="0" stop-color="#f9e89a"/><stop offset="1" stop-color="#fdfff7"/></linearGradient><linearGradient id="linear-gradient-2" x1="643.44" y1="534.37" x2="641.19" y2="539.89" gradientTransform="matrix(1, 0, 0, -1, 0, 1024)" gradientUnits="userSpaceOnUse"><stop offset="0" stop-color="#9495a5"/><stop offset="1" stop-color="#b0adb5"/></linearGradient><linearGradient id="linear-gradient-3" x1="623.88" y1="625.13" x2="621.1" y2="629.76" gradientTransform="matrix(1, 0, 0, -1, 0, 1024)" gradientUnits="userSpaceOnUse"><stop offset="0" stop-color="#8d93ac"/><stop offset="1" stop-color="#afb3cd"/></linearGradient><linearGradient id="linear-gradient-4" x1="614.87" y1="67.98" x2="646.95" y2="69.04" gradientTransform="matrix(1, 0, 0, -1, 0, 1024)" gradientUnits="userSpaceOnUse"><stop offset="0" stop-color="#f9d557"/><stop offset="1" stop-color="#fffba9"/></linearGradient></defs><g id="Layer_1" data-name="Layer 1"><path class="cls-1" d="M490.91,202c18.77-46.47,84.44-97.76,126-124.91C628,69.76,698.21,31,707.18,33c.46,1.12.75,1.36,0,2.57C700.67,45.83,693.53,55.9,688.49,67c-16.94,37.41-33.55,75.14-25.07,117.08,8.11-6.81,19.14-20.44,26.91-28.54,28.1-29.28,55.63-61.07,91.3-81.35,3-1.73,10.34-6.65,13.42-5.4a3.92,3.92,0,0,1-.89,3.26c-23.23,35.9-49.5,74.75-54.2,118.28-.86,8-.75,16.67,1.72,24.23l.22.66c6.84-5.4,13.47-13.2,19.73-19.42,41.55-41.3,88.69-78.22,142-103,5.29-2.45,29.68-13.67,33.77-11.07-.59,3-16.77,18.9-19.72,22.67C888.44,142,854.44,193.3,845.49,240.6c19.38-15.78,38.2-40,53.5-59.84,3.41-4.43,2-13.72,5-16.69l.68.27c1.16,4.43-1.37,15.07-1.82,20.4-1.59,15.55-1.62,32-5.19,47.26-4.51,19.29-10.62,35.26-13,55.24,7-6.13,18.91-17.44,24.17-24.83,6.66-9.33,11.44-23.15,18.13-33.12,4.87-7.68,10-15.22,16.18-21.87,5.24-5.62,11.22-10,14.82-16.87,1-1.9,3.77-7.16,6.28-6,0,3.75-5.38,10.09-7.15,14.43-8.32,20-18.38,37.35-22.2,59-4.94,28.08-.75,56-1.63,84.3-.13,4.13-.39,8.28-.51,12.39C930.68,434.9,871.1,494.11,828.62,556.4c-2,2.86-10.16,14.26-5.66,16.8,11.68.42,47.19-21.85,58.33-27.64,18.29-9.52,37.39-17.75,54.79-29.16,6.67-4.13,13.06-8.5,19.38-13.15,2.68-2,13.1-11.5,15.61-10.85,3.28,9-16.56,37.8-22.15,45.86C910.31,594,859.67,640.1,819.24,694.53c-6.28,8.45-13.62,17.7-18.19,27.13,9-2.48,17.48-6.81,26-10.4,17.74-7.47,35.75-16.64,53.62-23.61-3.27,6.36-7.22,10.51-11.89,15.87C850,725.17,831.37,747,811.44,767.71c-4.85,5-9.63,10.19-14,15.63,9.24-1.72,20.05-4.83,29.3-7.28,30.4-8,54.15-15.65,81.68-30.37-4.33,8-20.89,27.3-27.15,35-22,27.09-45.75,54-72.4,76.51-14.8,12.53-30.8,24.69-45.94,36.86-7,5.68-15,11-21.73,17,20.35-.24,43.37-7.38,62.92-12.91,1.24-.35,1.34-.09,2.18.54-.25,1.51-.76,2.07-1.93,3.26A152.62,152.62,0,0,1,765,930.69c-53,27.69-111.09,33.66-170,35.79-19.15.69-38.57.47-57.47,1.37,0,2.21.46,6.49-1.39,8.2-10.07,9.31-71.1,10.22-78.7.9-1.41-2-18.18-8-21.47-9.55-74.08-34.74-155.31-33.8-233.25-51.73-45.67-10.51-130-58.3-141.46-107.78,4.37,3,13.76,12.66,18.43,16.66,16.93,14.52,30.92,20.61,51.06,28.35-7.52-9.68-15.48-25-20.78-36.19C87.71,769.62,75,715.57,68.92,664c-1-8.42-2.18-19.45-2.49-28,0-1.38.42-1.52,1.18-2.14l.84.4c.23.73.47,1.44.74,2.16,5.61,14.87,37.62,43.91,51.07,53.54a105.61,105.61,0,0,0,18.9,10.8c-8.35-19.06-12.69-32.7-17.42-53.12-10.47-44.21-16-89.75-12.37-135.19.31-3.88-1.44-18.24,1.77-19.4,1.79,1.09,1.8,5.78,2.13,8.08,5,35.59,29.36,75.74,61.52,92.84-3-12.76-4.93-26.12-7.48-39.06-4.26-21.61-8.67-45-9.26-67-.87-32.34,6.6-69.1,13.18-100.71,2-9.65,15.77-62.45,21.7-66.19l1,.3c4.19,11.41,6.92,24.76,10.63,36.51,4.28,13.53,8,27.19,12.55,40.68,5.64,16.56,9.39,33.16,17.44,48.88,1.87-14,1.18-33.34,1.29-47.63a263.64,263.64,0,0,0-1-27c-.38-3.74-3-13.31-1.81-16l.69-.21c2.74,1.63,5.22,10.56,6.61,13.88,4.87,11.61,16,33.22,26.19,40.47.48-24.51-5.26-46.34-7.2-70.18-7-85.93,28.38-172.09,73.2-243.66,2.53-4,9.32-17.42,12.66-18.88.63.45.84.39.69,1-1.34,5.68-3.41,8.34-4.31,14.48a360.07,360.07,0,0,0-3.41,43.27c-.19,27.51,2.9,56.87,7.38,83.94,3.15,19,8.46,38.7,13.29,57.2,3.74-7.85,7-17.35,10-25.57C393,187,425.43,124.93,474.61,74.61c4.28-4.38,25.33-27.84,28.3-27.65.49,3.6-4.74,24.22-6.09,29.41C486,118,488.59,159.37,490.91,202Z" transform="translate(-61.29 -32.91)"/><path d="M391.86,304l-.87.65c9.49-6.23,11.83-2.56,18.77,1.28,3.83-2.37,7.63-3.22,11.76-2.05,12.45,3.51,7.53,17.91,4.65,27.73,17.41,12.6-3.88,28.87-12.87,38-1.5,1.53-.42,4.14-.47,6.38l-.8.66c-1.88.22-2.39,0-3.76,1-1.26,6.89-2.48,24.12-2.82,31.56-.86,18.67-2.68,41.17-1.56,59.55,5.79-7,11.37-16.08,17.73-23.76,43.46-52.45,89.62-98.91,160.21-106.28-4.72-13-6.12-13.77-14-24.94,13.36,2.66,14.7,2.82,25.9,10.39-1.71-3.06-5.56-12.72-7.12-16.39,11.94,3.74,21.55,13.11,28.66,23a40.1,40.1,0,0,1,7.69-8.48c1.8,7.76,3.93,19.78,2.62,27.71,48.35,25.56,59.22,93,63.78,142.26.92,9.95,1,20.16,2.12,30a744.49,744.49,0,0,0,53.15-68.69c-4.32-9.68-2.78-11.57.11-21.6-4.55-12.89-8.42-24.06,5.56-32.86,1.58-6.64,4.26-16.67,8.92-21.85,5.13-5.69,13-1.84,17.18,3.2,10.37,2.62,14.89,5.45,20.91,14.22,19,5.73,14.77,18.8,8,33.43,1.89,5.83,1.49,7.05-.71,12.73-4.06,6.14-5.9,9.59-12.34,13.5-6.5,15.47-12.67,16.25-28,12.14-12,19.62-27.16,39.9-41.2,58.23-9.36,12.23-21.88,28-32.53,39.07-1,12.47-4.16,33.66-6.25,46.19-10.72,64.17-28.46,144-80,188.7-16.95,14.68-48.58,31-71,32-11.89,24.58-18.11,44.21-15.72,72.16,4.38.64,8.08,1.59,10.82,5.4s8.19,48.12,8.82,55.28l.38,4.35c0,2.21.46,6.49-1.39,8.2-10.07,9.31-71.1,10.22-78.7.9,0-2.11-.08-3.73-.22-5.84-4.52-.41-30.29-12.25-36.4-14.72-58.28-23.57-121-28.28-182.49-38-10.57-1.68-21.4-3.42-31.79-6-8-15.27-24.52-58-25.87-74.58-.35-.7-3-3.92-3.67-5-4.81-7.21-11.44-14.27-14.22-22.58-1.67-5,.3-7.84,5.26-8.92,11.55-2.88,36.12-6.62,41.6,7.66,4.37,2.74,8.43,6,13.05,8.3A154,154,0,0,0,239,808.92c4.58-8.44,8-11.51,16.62-5.82,6-3.05,18.94-12.71,25.63-16.92,20-12.58,38.09-20.95,60.69-27.49-43.73-60.51-6.48-169.08,23.24-228.44a239.08,239.08,0,0,1,12.32-22.37c.35-11.63.52-23.22.72-34.85.52-32.2,1.57-64.71,3.73-96.85-2.72-1.57-5.73-2.13-6.47-5.3.49-1.83,1.49-2.48,2.89-3.79-9.84-8.76-7.74-15.8-4.67-27.4-5.15-10.86-7.31-21.77,2.74-31.52C381.17,303.62,385.73,303.79,391.86,304Z" transform="translate(-61.29 -32.91)"/><path class="cls-2" d="M273.9,825.52C299.14,808.25,329.74,788,359.69,780c30.67,26,61,40,100.52,48.33,13.94,2.93,25.51,4.75,40,4.17-11.09,25.18-15.06,45.75-11.19,73.12-12,8.29.48,21.7,2.23,34.2-23-8.08-31.54,12.91-34,31.26-4.52-.41-30.29-12.25-36.4-14.72-58.28-23.57-121-28.28-182.49-38-10.57-1.68-21.4-3.42-31.79-6-8-15.27-24.52-58-25.87-74.58,5.73,6.48,32.39,37.2,39.56,37.33,5.6.1,10.23-3.38,13.89-7.23,5.77-6,12.08-10.48,18.39-15.84,3.25-2.75,6.23-6,9.56-8.57,3.06-2.4,7.13-2.6,10-5.51a9.29,9.29,0,0,0,2.92-7A19.27,19.27,0,0,0,273.9,825.52Z" transform="translate(-61.29 -32.91)"/><path class="cls-3" d="M590.76,345.72c5.35-.22,22.22,1.77,26.45,5.56a5.34,5.34,0,0,1,.11,1.58l.57.31c2.45.87,6.12,3.61,8.42,5.09a93,93,0,0,1,33.49,38.53c18.55,39.45,24.14,92.47,23.83,135.52l-2.91,3.74c-8.1,10.17-29.38,31.48-40.72,36.83.49,3,3,5.92,4.85,8.4,3.94,4.49,8.33,9.92,12.69,13.85,5.88-3.52,14.25-12.15,19.31-17.09,1.86-2.13,3.78-4.41,5.75-6.42-.83,6.73-1.54,13.62-2.59,20.31C666,681.66,642.43,804.22,536,823.83a82.45,82.45,0,0,1,4.33-7.73A122.05,122.05,0,0,1,552.07,800c10.77-13.06,2.19-21.87-11.25-25.24-12.07,9-25,32.3-33.43,44.86-1.17,2.13-2.32,4.64-3.41,6.84-44.92-.38-100.43-17.89-134.48-47.71-18.7-16.37-29.18-31.66-35.72-55.83-2.12-7.84-4.15-15.51-4.51-23.78-2.61-68,24.19-137.71,58.23-195.43,23-39.07,54.13-76.54,87.74-106.8,29.68-26.71,63.42-47.48,104.14-50.49C583.66,345.6,586.35,346.55,590.76,345.72Z" transform="translate(-61.29 -32.91)"/><path class="cls-4" d="M682.6,571.62c-.83,6.73-1.54,13.62-2.59,20.31C666,681.66,642.43,804.22,536,823.83a82.45,82.45,0,0,1,4.33-7.73A122.05,122.05,0,0,1,552.07,800c10.77-13.06,2.19-21.87-11.25-25.24-12.07,9-25,32.3-33.43,44.86-9.14-.93-18-.1-28.51-1.5-30.3-4.06-78.31-20.22-100.4-41.37,3,.88,12.25,6.11,16.1,7.62A155.45,155.45,0,0,0,429,793.82c17.78,2.47,38.82,3.92,55.61-3.21,6.46-2.75,13.94-8.23,19.58-12.4,48.74-36,86.21-76.59,112.87-131.4,2.64-5.44,10.86-21.61,11.58-26.68,4.88-2,13.6-4.61,8.68-11.44-1.76-1.1-1.94-1-4.09-1.18,4.28-8.59,8.2-17.27,11.67-26.23,3.94,4.49,8.33,9.92,12.69,13.85,5.88-3.52,14.25-12.15,19.31-17.09C678.71,575.91,680.63,573.63,682.6,571.62Z" transform="translate(-61.29 -32.91)"/><path class="cls-3" d="M682.6,571.62c-.83,6.73-1.54,13.62-2.59,20.31C666,681.66,642.43,804.22,536,823.83a82.45,82.45,0,0,1,4.33-7.73c4.26-.69,8.21-2.24,12.26-3.64,92-31.81,113.16-150.39,124.26-234.42C678.71,575.91,680.63,573.63,682.6,571.62Z" transform="translate(-61.29 -32.91)"/><path d="M630.9,717l1.42-.07.4.45C628,722,609.37,728.11,602.2,731a5.62,5.62,0,0,1-1.26.35C603.49,727.39,625.68,718.84,630.9,717Z" transform="translate(-61.29 -32.91)"/><path d="M614.37,740.47l1.33,0,.23.67c-2.71,3.49-13.09,6.86-17.32,8.35l-.88.25-.16-.68C602.17,745.53,609,742.57,614.37,740.47Z" transform="translate(-61.29 -32.91)"/><path d="M600.34,766.52l.83.25c-1.95,3.28-10.44,5.8-14.06,6.8l-.71-.29C587.63,770.74,597.48,767.7,600.34,766.52Z" transform="translate(-61.29 -32.91)"/><path d="M607.94,754.49l.51.06.07.54c-3.43,3.14-8.63,5-12.81,6.95-.83-.56-.55-.17-.81-1.2C597.75,758,604.24,756.14,607.94,754.49Z" transform="translate(-61.29 -32.91)"/><path d="M620.24,730.92c.58.07.24,0,.94.46-1.45,2.28-5.09,3.27-7.56,4.14a7.92,7.92,0,0,1-1.36-.18l.08-.68A42.94,42.94,0,0,1,620.24,730.92Z" transform="translate(-61.29 -32.91)"/><path class="cls-5" d="M579.38,346.44a68.52,68.52,0,0,1,7.67.32l-.48.44c-5.19,2.22-15,3.48-20.56,4.79a169,169,0,0,0-25.31,7.83c-29.23,11.82-54.79,32.91-77,54.84a463.9,463.9,0,0,0-73.45,95.25c-4.41,7.59-7.09,13.87-10.88,21.52-2.22,4.48-6.61,12.4-8.86,16.72-2.14,4.1-11.29,26.16-13,27.73l-1.23.63c.38,1.4.88,1.34,2.38,2.46-.16,3.76-5.29,12.39-7,17.63-6.18,19.12-18.92,64.27-14.69,83.56-2.93,2.87-4.38,3.86-2.41,8,3.95-.16,4.63,2.23,7.37,4.43l.8.18c.3,2.77-3.3,12.15-4,16.23,1.91-.32,4.82-.64,6.65.05l1.21-1.35.56.42c-.46,3.86-3.58,10.19-3.73,12.38,6.86,2.75,3.06,2.4,5.78,6.47a11.79,11.79,0,0,1-2.84,10.55c1.15,9.78,20.9,31,29.42,37.49a8.06,8.06,0,0,0,2.69,1.72c22.09,21.15,70.1,37.31,100.4,41.37,10.51,1.4,19.37.57,28.51,1.5-1.17,2.13-2.32,4.64-3.41,6.84-44.92-.38-100.43-17.89-134.48-47.71-18.7-16.37-29.18-31.66-35.72-55.83-2.12-7.84-4.15-15.51-4.51-23.78-2.61-68,24.19-137.71,58.23-195.43,23-39.07,54.13-76.54,87.74-106.8C504.92,370.22,538.66,349.45,579.38,346.44Z" transform="translate(-61.29 -32.91)"/><path d="M342,692.63l.8.18c.3,2.77-3.3,12.15-4,16.23a5.79,5.79,0,0,1-1.46.24l-.7-.76C335.8,704.08,339.88,696.78,342,692.63Z" transform="translate(-61.29 -32.91)"/><path d="M345.39,709.09l1.21-1.35.56.42c-.46,3.86-3.58,10.19-3.73,12.38-.55,1.67-.33,1.7-1.52,2.84l-.94-.22C338.82,719.47,343.46,712.75,345.39,709.09Z" transform="translate(-61.29 -32.91)"/><path d="M349.21,727a11.79,11.79,0,0,1-2.84,10.55C344.16,734,347.3,730.21,349.21,727Z" transform="translate(-61.29 -32.91)"/><path class="cls-4" d="M590.76,345.72c5.35-.22,22.22,1.77,26.45,5.56a5.34,5.34,0,0,1,.11,1.58l.57.31c2.45.87,6.12,3.61,8.42,5.09a93,93,0,0,1,33.49,38.53c18.55,39.45,24.14,92.47,23.83,135.52l-2.91,3.74c-8.1,10.17-29.38,31.48-40.72,36.83,13.13-34.7,23.09-66.06,22.3-103.37-1-47.19-18.07-93.78-62.36-116-3-1.48-11-4.63-12.89-6.72a68.52,68.52,0,0,0-7.67-.32C583.66,345.6,586.35,346.55,590.76,345.72Z" transform="translate(-61.29 -32.91)"/><path class="cls-3" d="M617.89,353.17c2.45.87,6.12,3.61,8.42,5.09a93,93,0,0,1,33.49,38.53c18.55,39.45,24.14,92.47,23.83,135.52l-2.91,3.74c-1.28-3-.63-20-1-24.69-1.53-17.41-2.58-36.72-5.74-53.83-5.58-30.19-14.69-64.86-37.47-86.76-7.69-7.39-13.52-10.36-21.58-16.09l.14-.53,2.29-1.29Z" transform="translate(-61.29 -32.91)"/><path d="M633.18,607.51c2.15.15,2.33.08,4.09,1.18,4.92,6.83-3.8,9.45-8.68,11.44-3.64,1.5-10.22,4.18-13.51,1C613.18,613.25,627.66,609,633.18,607.51Z" transform="translate(-61.29 -32.91)"/><path class="cls-6" d="M630.27,611.12c1.76-.17,3.39-.22,4.91.77l.07,1c-2.68,3.39-9.06,5-13,6.39-1.43.29-2.69.73-4.09.09l-.21-.92C620.38,614.79,626.11,612.28,630.27,611.12Z" transform="translate(-61.29 -32.91)"/><path d="M341.2,673c-.82,4.43-2.91,12.41-6.62,15.21-2-4.18-.52-5.17,2.41-8A46.9,46.9,0,0,1,341.2,673Z" transform="translate(-61.29 -32.91)"/><path d="M357.52,575.88c2.18,1,2.74,1.1,4.23,2.87l-.16.56a4.77,4.77,0,0,1-2.92-.34c-1.5-1.12-2-1.06-2.38-2.46Z" transform="translate(-61.29 -32.91)"/><path d="M447.93,513.13c4.19,1.32,8.25,4.58,12,6.86a88.51,88.51,0,0,0,14.58,7.19c34.89,13.05,67.59,12.54,104,11.71-3.72,32.26-16.54,59.28-39,82.82-9.24,9.61-19.09,17.12-31.72,21.71a76.86,76.86,0,0,1-59.19-3.06c-4.81-2.28-10-5.23-11.83-10.57-2-6-2.13-13.19-2.64-19.47C431.62,578.8,433.5,541.72,447.93,513.13Z" transform="translate(-61.29 -32.91)"/><path class="cls-7" d="M449.9,517.24c5.05,4.33,4.62,16.21,7,22.4,9.65,9,29.81,13.56,42.6,16.51a72.06,72.06,0,0,0-2.7,10.21c-.38,2.07-1.33,5.29-.07,7.13,2-1.4,4.57-13.75,5.44-17,16,3.34,36.42,3.55,52.67,1.58,9.89-1.2,12.43-4.65,18.23-12-5.41,26-11.19,41.68-27.8,63.12a52,52,0,0,1-19.84,15.95c-.1-4.21-.28-8.29-1.66-12.31-1.54-4.48-4.45-8.56-8.85-10.57-6.65-3-13.43-.47-19.72,2.05-1.23-.6-2.46-1.16-3.73-1.65a19.61,19.61,0,0,0-15.62.55c-9.91,4.7-17.15,16.17-20.85,26.09-5-1.56-9.83-4-14.67-6C435.73,593.29,436.26,544.47,449.9,517.24Z" transform="translate(-61.29 -32.91)"/><path class="cls-8" d="M456,522.74c27,14.34,54.05,19.1,84.36,20.08,9.67.31,19.43-.46,29,.68a55.68,55.68,0,0,1-5.11,6.35,16.8,16.8,0,0,1-7.55,3.43c-6.12,1.37-12.66,1.49-18.92,1.6-24.8.43-56.77-3-77.91-16.52C458.29,533.22,457.16,528,456,522.74Z" transform="translate(-61.29 -32.91)"/><path class="cls-9" d="M507,603.66c4,.31,7.51,1.5,10.31,4.5,4.79,5.15,4.9,11.88,4.69,18.47a199.14,199.14,0,0,1-29.83,5.77,125.54,125.54,0,0,1-14.9.18,62.43,62.43,0,0,1,9.45-17.12C492,608.73,498.32,604.67,507,603.66Z" transform="translate(-61.29 -32.91)"/><path class="cls-8" d="M442.3,627.89c4.79,1.55,9.28,3.64,14.21,4.91,24.13,6.27,48.09,3,71.34-4.92l-4.45,3.33a63,63,0,0,1-8.48,5,71.33,71.33,0,0,1-55.7,3.52C452.6,637.39,445.55,634.53,442.3,627.89Z" transform="translate(-61.29 -32.91)"/><path class="cls-9" d="M480.54,604.6c.9-.11,1.81-.22,2.71-.24,2.23,0,5.8.25,7.43,1.88,0,1.64-5.51,6.71-6.72,8.4a66.07,66.07,0,0,0-8.89,17.87l-6.66-.64c-3.58-.38-7.12-1.12-10.67-1.78C463.28,619.74,469.55,609.73,480.54,604.6Z" transform="translate(-61.29 -32.91)"/><path d="M552.71,452.59c38-4,41.06,46.54,20.73,67.24-9,9.2-13.78,12.13-26.78,13-33.28,0-42.12-31.28-25.42-56.27C529.44,464.28,538,456,552.71,452.59Z" transform="translate(-61.29 -32.91)"/><path class="cls-8" d="M554.28,456.64c15.88-1.3,26.27,11.52,27.08,26.23,1.28,23.16-11.8,43.82-36.08,45.49C498.65,525.78,515.45,462.71,554.28,456.64Z" transform="translate(-61.29 -32.91)"/><path d="M531.05,482.83a6.13,6.13,0,0,1,3.43.65c2.94,3.61.23,7.1-2.55,9.81l-1.92.11C526.07,490.93,529.13,485.83,531.05,482.83Z" transform="translate(-61.29 -32.91)"/><path d="M474,439.57c39.27-2.64,31,61.35-9.88,71.34C422.87,517.76,436.45,449.4,474,439.57Z" transform="translate(-61.29 -32.91)"/><path class="cls-8" d="M474.38,443.13c10.23-1.32,18.23,5.15,20.59,14.95,4.92,20.44-11,43.89-30.8,49.29C427.18,514.23,442.37,451.53,474.38,443.13Z" transform="translate(-61.29 -32.91)"/><path d="M484.63,468.67c5.66,2.13,3.08,11.35-1.18,14.51C478,478.89,480.69,472.92,484.63,468.67Z" transform="translate(-61.29 -32.91)"/><path d="M570.63,420.13c12.77-1.66,27.89,3.13,37,12.26-1.67,8.06-1.73,12.82-4.82,20.82-1.7-.9-5.44-3.85-7.32-5.12-6.79-4.58-12.66-6.06-20.57-7.52-13.91-.89-22.92,2.28-33.92,10.56a2.91,2.91,0,0,1-2.47.48c-4.73-3.13-3.32-6.84-.39-10.9A50.83,50.83,0,0,1,570.63,420.13Z" transform="translate(-61.29 -32.91)"/><path class="cls-10" d="M574.28,425.17c9.46-.45,19.46,3.5,27.2,8.7-.28,3.78-.69,7.05-1.21,10.82-7.63-6.22-16.13-8.49-25.7-9.65-14.56-.39-18.8.82-31.33,8.66C550.53,432.26,561,426.72,574.28,425.17Z" transform="translate(-61.29 -32.91)"/><path d="M483.67,402.88c10.47-.13,16.82,3.95,23.41,11.83,7.7,9.19,7.59,29.85-2.68,37.25-3.46-5.56-5-17.25-10.1-23.93-5.69-7.42-10.58-10.29-19.55-12C477.11,410.47,479.69,407.31,483.67,402.88Z" transform="translate(-61.29 -32.91)"/><path class="cls-10" d="M485.85,407.29c9.93.88,19.51,10.66,21.26,20.31.49,2.72.05,10.14-1.61,12.45l-.53-.77c-3.37-12-10.56-25.38-24.5-26.55C482.28,411,484.07,409.1,485.85,407.29Z" transform="translate(-61.29 -32.91)"/><path d="M504.42,660.12a7.55,7.55,0,0,1,3.58.34,4.2,4.2,0,0,1,1.51,1.87,4.43,4.43,0,0,1-.44,4c-3.36,5.46-16.91,9.72-23.05,11.28-2.46,0-4.54,0-6.47-1.72a3.14,3.14,0,0,1,.54-3C484.56,666.21,497,661.63,504.42,660.12Z" transform="translate(-61.29 -32.91)"/><path class="cls-6" d="M505.58,663.09l.74.93-.48,1.32C502,669.21,489.45,673.58,484,675l-.71-.38-.22-.73c.1-.18.19-.38.3-.55C487.2,667.82,499.39,664.4,505.58,663.09Z" transform="translate(-61.29 -32.91)"/><path d="M373.12,643.61a9.78,9.78,0,0,1,3.15.35,3.38,3.38,0,0,1,2.16,2,5.55,5.55,0,0,1-.29,2.25c-2.7,6.88-12.32,13.09-18.88,15.76a7.65,7.65,0,0,1-3.4-.79,4.11,4.11,0,0,1-2.58-2.76c-.33-1.82,1-4,2-5.39A28.4,28.4,0,0,1,373.12,643.61Z" transform="translate(-61.29 -32.91)"/><path class="cls-11" d="M372.41,646.51a5.43,5.43,0,0,1,2.53.35l.1.9c-2.86,5.48-10.27,10.14-15.79,12.56a5,5,0,0,1-.54.07c-1.26,0-1.57,0-2.45-.93a3.6,3.6,0,0,1,.35-1.41C358.77,652.82,367.32,648.2,372.41,646.51Z" transform="translate(-61.29 -32.91)"/><path d="M561.62,705.61a19.24,19.24,0,0,1,2.84.16,5.24,5.24,0,0,1,4,2.08c.4,1.56.61,2.73-.23,4.24-2.75,4.93-12.81,7.56-17.91,8.91-2.23.28-5,.4-7-.66-.89-.46-1-.79-1.29-1.67a5.89,5.89,0,0,1,1-2.77C546.94,710,554.89,706.82,561.62,705.61Z" transform="translate(-61.29 -32.91)"/><path class="cls-11" d="M560.67,708.57a11,11,0,0,1,4.13.14c.77.25.75.55,1.12,1.19a3.16,3.16,0,0,1-.17.52c-2,4-11.25,6.47-15.3,7.49-1.53.39-3.11.83-4.57.06-.26-.94-.44-.77,0-1.49C548.53,712.29,556,709.58,560.67,708.57Z" transform="translate(-61.29 -32.91)"/><path d="M442.21,766.05a16.32,16.32,0,0,1,7.54.61,3.57,3.57,0,0,1,2.37,2.38,5.91,5.91,0,0,1-1,3.31c-3,4.59-8.71,5.9-13.67,7.08-2.69.46-6.46,1.21-9.07,0a3.16,3.16,0,0,1-2-2.4,6.78,6.78,0,0,1,.75-2.45C430.22,769.3,436.68,767.38,442.21,766.05Z" transform="translate(-61.29 -32.91)"/><path class="cls-11" d="M443.72,769.13c1.54-.08,3.85-.42,5.1.7l-.16,1c-3.23,3.69-9.22,4.85-13.79,5.79a10,10,0,0,1-4.25.58c-.82-.16-.61-.2-1.05-1a3.15,3.15,0,0,1,.68-1.25C433.17,771.37,439.32,769.74,443.72,769.13Z" transform="translate(-61.29 -32.91)"/><path d="M393,586.12a14.31,14.31,0,0,1,4.13.26,6.58,6.58,0,0,1,4.13,3.27,3.82,3.82,0,0,1-.43,3.44c-2.57,4.22-9.62,5.18-14,6.24-2.28.41-5.69,1.24-7.81-.13-1.11-.72-1.13-1.32-1.37-2.5a8.07,8.07,0,0,1,1.34-3.11C382.28,589.17,387.82,587,393,586.12Z" transform="translate(-61.29 -32.91)"/><path class="cls-11" d="M390.68,589.58c1.07-.11,2.15-.22,3.22-.28,1.81-.11,3.11,0,4.5,1.23l-.3,1c-3.09,2.78-6.55,3.46-10.46,4.51-2.24.5-4.49,1.33-6.62.26l.17-1C383.92,592.35,387.05,591.11,390.68,589.58Z" transform="translate(-61.29 -32.91)"/><path d="M642.55,481.11c16.11-1.87,13.12,10.5,0,12.4C625.28,493.9,627.61,484.69,642.55,481.11Z" transform="translate(-61.29 -32.91)"/><path class="cls-12" d="M644.56,483.12c2.65-.09,4.57-.56,6.47,1.46-.24,4.79-7.16,5.93-10.91,6.36-2.35,0-6.68.45-6.65-2.64C636.22,484.73,640.37,483.83,644.56,483.12Z" transform="translate(-61.29 -32.91)"/><path d="M625.05,391.64c3.25-.17,7.79.12,10,2.82,2.89,7.82-10.58,6.65-15.18,8.33-3.16,1-7.62,3-10.19.12C608.12,396.07,620,392.5,625.05,391.64Z" transform="translate(-61.29 -32.91)"/><path class="cls-6" d="M613.05,398.83c4.1-3.12,18.38-8.76,20.44-1.63-2.53,1.31-19.11,4.64-21.48,4.3l-.6-.71C611.87,399.52,611.93,399.62,613.05,398.83Z" transform="translate(-61.29 -32.91)"/><path class="cls-13" d="M613.05,398.83c4.1-3.12,18.38-8.76,20.44-1.63C626,392.32,617.88,401.92,613.05,398.83Z" transform="translate(-61.29 -32.91)"/><path d="M561.62,385.58c3.36.43,6.8,1.87,6.19,5.87-2.77,3.93-10.58,4.67-15.64,6-2.28.56-5.34.9-6.42-1.57C547,389.35,556.06,386.89,561.62,385.58Z" transform="translate(-61.29 -32.91)"/><path class="cls-6" d="M558.82,388.58l.69-.09c2.2-.24,5.83-.71,6.1,2.39-2.18,2.29-7.1,2.45-10.24,3.26-1.81.68-4.54,2.1-6.2.82C550,391.64,555.87,389.57,558.82,388.58Z" transform="translate(-61.29 -32.91)"/><path d="M494.23,498.51c.24,0,.48-.05.73-.06,4.17-.28,8.1,1.91,11.14,4.63,1.72,1.54,3.4,3.63,3.39,6.06,0,3.34-3.82,6-6,8.15a5.14,5.14,0,0,1-3.19-.71c.36-2.94,3.74-3.5,5.4-5.41a1.88,1.88,0,0,0,.6-1.8c-.39-2.37-2.92-4-4.68-5.39-2.42-1.62-5.66-3.19-8.44-1.35-7.58,5,1.2,11.29.22,16.24l-.95-.22C484.32,511.66,483.41,503,494.23,498.51Z" transform="translate(-61.29 -32.91)"/><path d="M394.32,527.55a5.59,5.59,0,0,1,3,1.85c.18.77.46,1.26.16,2-1.61,4.23-9.82,7.68-13.86,9.28a5.92,5.92,0,0,1-1.4,0c-1.2-.3-1.38-.75-1.85-1.76a6.49,6.49,0,0,1,.61-2.25C383.37,532.21,389.61,528.8,394.32,527.55Z" transform="translate(-61.29 -32.91)"/><path class="cls-11" d="M392.82,530.42l1.13.41.29.85c-1.49,2.72-6.38,4.25-9.1,5.5l-.76.07v-.89A23.51,23.51,0,0,1,392.82,530.42Z" transform="translate(-61.29 -32.91)"/><path class="cls-7" d="M542.1,778a22.43,22.43,0,0,1,4.63,1.45c3.22,1.55,6.7,4.49,7.75,8a6.59,6.59,0,0,1-.27,4.86c-1.83,3.61-7.32,8-10,11.35a149.12,149.12,0,0,0-12.71,19.33C515.76,851,506,884.3,514.8,916.11c-2.34,1-4.78,1.71-7.19,2.5a54,54,0,0,1-11.46,1.62c-2.26-10.85-3-26-2.54-37.14A120.47,120.47,0,0,1,500.06,849C506.14,831.08,528.11,790.92,542.1,778Z" transform="translate(-61.29 -32.91)"/><path class="cls-7" d="M747.07,457.77c.45.18,3,2,3.77,2.49a40.52,40.52,0,0,0,9.3,4.5c-4.11,4.79-7.59,10.67-11.2,15.88-26.93,38.86-56.46,76.94-90.77,109.6-4.79-4.1-9.85-10.44-13.84-15.43C674.55,556.72,726.57,488.42,747.07,457.77Z" transform="translate(-61.29 -32.91)"/><path class="cls-7" d="M344.75,763.14c3.46,3.8,6.8,7.71,10.18,11.59-22.46,8.25-43.73,18.06-63.67,31.44-6.32,4.24-12.12,9.24-18.46,13.46l-.74-.44a43.73,43.73,0,0,0-12.14-12.55C288.32,786.88,311.42,773.45,344.75,763.14Z" transform="translate(-61.29 -32.91)"/><path class="cls-14" d="M242,812.9c.52.22,1,.43,1.54.69,8.84,4.54,14,13.44,17.17,22.46a92.08,92.08,0,0,1-28.41,23.32c-2.95-3-5.73-6.15-8.57-9.22-6-5.83-12.92-10.76-18.7-16.83,3.41-6.26,4.48-11.51,4.91-18.6,4.15,2.88,8.87,5.74,12.08,9.69C228.83,821,235.4,816.77,242,812.9Z" transform="translate(-61.29 -32.91)"/><path class="cls-7" d="M385.9,377.86a59.44,59.44,0,0,0,17.26.2c-3.35,17-8.35,81.65-3.51,96.57-2.52,3.42-4.79,7-7.1,10.58-2.49,4-5.09,7.89-7.68,11.81-.5-21.12-.16-42.48.46-63.6C385.88,414.91,387.17,396.32,385.9,377.86Z" transform="translate(-61.29 -32.91)"/><path class="cls-8" d="M757.08,401.64c9.47,1,15.32,9.88,22.32,15.73,3.58,3,7.09,5.86,10.68,8.82A46.21,46.21,0,0,1,765,421.53c-2.09-1-4.45-3.44-7.57-5-2.16.39-1.43-.15-2.54,1.31.29,1.5,2.07,2.92,3.24,3.81,9.6,7.3,20.79,9.91,32.54,8.4,2.35-.76,1.84-1.41,3.75-2.22,13.69.43,3.65,15.32-.65,21-12.56,1-20.87-.74-32.11-6.64C748.18,435.1,734.09,406,757.08,401.64Z" transform="translate(-61.29 -32.91)"/><path class="cls-8" d="M407.72,331.7c4-.45,9.49.95,13.11,2.68,15.71,7.51-4.81,28.3-14.17,31.32-9.16-3-5.44-2.49-7.51-8.75l-.86-.18-1.35,1.15c-1.32,4.42,3.21,7.72,6.55,9.66-8.87,0-15.43-.63-23.29-5-5.62-5.28-4.39-11-2.84-17.64a25.61,25.61,0,0,0,5.77,3.55c4.32-1.28,6.26-1.76,9.86-4.64,1.51,1.49,4.75,5,6.86,5.25,5.52.55,11,.56,16.48,2.06,1.79.49,3.57-1.19,3.94-3.18-4.62-2.82-31.78.65-20.89-13.64C401.38,331.75,404.73,331.94,407.72,331.7Z" transform="translate(-61.29 -32.91)"/><path class="cls-14" d="M526.45,924.43c2,2.74,4.82,35.8,5.72,42.22-7.22,3-14,3.79-21.76,4.29-.22-2.86-.71-5.68-1.17-8.51-2.56-7.59-5.33-14.21-11.83-19.26-.93-2.8-1.61-5.72-2.37-8.58a54.34,54.34,0,0,0,7.75.72C512.77,935.39,519.52,931.32,526.45,924.43Z" transform="translate(-61.29 -32.91)"/><path class="cls-8" d="M481.47,943.51c4.11-.16,8.39,1.75,11.63,4.16,7.49,5.6,10.76,14,12.11,23-6.28,0-12.56-.06-18.83-.14a211.42,211.42,0,0,1-23.57-2.39A49.53,49.53,0,0,1,467.05,955C470.28,948.81,475,945.49,481.47,943.51Z" transform="translate(-61.29 -32.91)"/><path class="cls-8" d="M183.27,805.2a57.42,57.42,0,0,1,13.1.2c2.84.4,5.15,1.14,6.86,3.57,2.51,3.56,2.7,10,1.77,14.15-1.07,4.69-2.92,6.62-6.84,9.06,9.18,7,25.68,22.83,32.48,31.87-.62,1.19-2.65,1.92-3.86,2.57a2.26,2.26,0,0,1-.45,0c-2-.44-4.86-4.07-6.36-5.53-8.57-8.39-17-17.16-24.77-26.32S180,815.85,172,806.65A109.94,109.94,0,0,1,183.27,805.2Z" transform="translate(-61.29 -32.91)"/><path class="cls-8" d="M748.45,436.7c11.44,10.62,22.33,16.74,38.36,17.31A41.08,41.08,0,0,1,782,461.3c-6.12,5.32-16.13,1.89-22.7-1.17C749.58,455.58,743.47,447.05,748.45,436.7Z" transform="translate(-61.29 -32.91)"/><path class="cls-3" d="M598.68,321.62c7.82,6.86,10.6,11.34,15.71,20.48,1.13-2.17,1.94-4.31,3.85-5.71l.94.23c1.5,3.29.12,13.22-1.29,16.55l-.57-.31a5.34,5.34,0,0,0-.11-1.58c-4.23-3.79-21.1-5.78-26.45-5.56a172.07,172.07,0,0,0-8.13-22.36c5.8,3.87,10.39,7.66,15.89,11.82a2.38,2.38,0,0,0,2.43.36C602.63,332.73,599.63,324.7,598.68,321.62Z" transform="translate(-61.29 -32.91)"/><path class="cls-8" d="M777.16,385.22c19.52,4.42,17.33,17.41,9.21,31.58-2.24-.19-11.76-9.35-14.21-11.48C775.86,398.51,776.78,392.8,777.16,385.22Z" transform="translate(-61.29 -32.91)"/><path class="cls-8" d="M168,807.25a3.67,3.67,0,0,1,1.17.8c5.91,5.83,11.1,13.21,16.42,19.61,8.43,10.14,17.14,19.89,26.16,29.52,1.94,2.07,10.42,10,10.41,12.48a6.11,6.11,0,0,1-2.88-.33c-4.2-1.82-9-7.52-12.29-10.76-12.72-12.42-24.71-24.32-34.59-39.26-1.75-2.65-4.43-6.21-5.15-9.33C166.9,808.67,167.31,808.36,168,807.25Z" transform="translate(-61.29 -32.91)"/><path class="cls-8" d="M384.14,308a15.31,15.31,0,0,1,3.59.13c1.37,1.18.4,5.24-.22,6.21-3.49,5.45,3.25,24.9,1.18,27.92-2.53-.89-2.68-4.53-5.14-4.94l-.83,1.3c-.05,1.21,0,3,0,4.26-2-.31-3.56-2.29-4.52-4C371.84,327.57,371.27,314.91,384.14,308Z" transform="translate(-61.29 -32.91)"/><path class="cls-8" d="M517.59,908.38a14.87,14.87,0,0,1,3,.25,8.29,8.29,0,0,1,5.28,3.92c.94,2,.41,4.55-.41,6.52-2.1,5.07-6.7,8.91-11.69,11s-13.28,3.26-18.37.85c-3.68-1.74-3.47-6.34-4.64-9.73l-.14-.4a15.67,15.67,0,0,1-2.31-3.62c-.63-1.62-1.15-3.86-.47-5.5a2.49,2.49,0,0,1,2.24-.37c1.57,3.6.46,9,2.48,12.2.36.57.45.43,1.25.64,7,1.86,17.6-1.49,23.49-5.26,2-1.3,3.33-2.52,3.87-4.9-1.59-1.56-3.15-2.82-3.51-5.15C517.62,908.67,517.61,908.52,517.59,908.38Z" transform="translate(-61.29 -32.91)"/><path class="cls-8" d="M533,970.16a3.33,3.33,0,0,1,.7,1.58c.16,1.29-.38,1.71-1.16,2.58-16.68,6.39-53.09,6-70.27.83l-1-1a4.51,4.51,0,0,1,.34-2.52c.65-1.17,7.51.36,9.13.6C489.66,975,514.57,975.83,533,970.16Z" transform="translate(-61.29 -32.91)"/><path class="cls-8" d="M396.27,306.05c13.21.62,10.67,4.51,8.23,14.7a63.46,63.46,0,0,0-.91,7.1,28.22,28.22,0,0,0-7.46,3,11,11,0,0,0-3,5.22C391.23,329,387.17,309.64,396.27,306.05Z" transform="translate(-61.29 -32.91)"/><path class="cls-8" d="M247.87,804.19c.23,0,.47.07.7.12,5.54,1.18,14.37,10.33,17.43,15,2,3.06,5.24,8.78,4.07,12.47-.63,2-1.9,2.67-3.57,3.6-.16.09-.33.15-.49.25a7.61,7.61,0,0,1-1.79,1.08,7.57,7.57,0,0,0,.38-1.76c.07-1.53-1.07-3.58-1.72-4.94-4.49-9.35-11.14-14.15-19-20.64C245.15,807.59,246.49,805.9,247.87,804.19Z" transform="translate(-61.29 -32.91)"/><path class="cls-8" d="M796.37,399.24c4.27,1.31,8.18,2.76,9.43,7.49,1.32,5-2.07,13.93-4.48,18.12l-.93.15c-5-1.36-7-1.73-10.93-5.2C793.18,411.66,794.13,407.87,796.37,399.24Z" transform="translate(-61.29 -32.91)"/><path class="cls-8" d="M764.34,378.88c15.35,2.38,7,22.34,4.48,23l-2.38-1.43c-4.27-2-6.27-2.35-10.78-3C757.2,391.58,759.45,382.57,764.34,378.88Z" transform="translate(-61.29 -32.91)"/><path class="cls-8" d="M414.32,307.53c7.57.47,10.54,3.84,9.69,11.78-.24,2.17-1.87,8.46-3.51,9.75l-1.63-.62a26,26,0,0,0-11.31-1.9C408.38,320.47,408.52,310.54,414.32,307.53Z" transform="translate(-61.29 -32.91)"/><path class="cls-8" d="M381.36,367.33a60.33,60.33,0,0,0,19.64,2.5c2.78-.09,5.06-.81,8.33-.84l.45.69-.73,2.56c.45,1.57.49,1,.22,2.46l-.91-.37c-12.85,2.51-18.33,2.52-30.1-2.62C380.77,370,381,370.34,381.36,367.33Z" transform="translate(-61.29 -32.91)"/><path class="cls-2" d="M448.29,325.3c12.38-21.72,28.86-43,44.66-62.25,33.66-41.08,73.64-76,113-111.5,4.12,33.71,5.37,68,10.62,101.72,1.65,10.54,3.92,22.84,4.55,33.28,26.11-30.82,53.57-61.64,85.46-86.57-5.6,44.66-6.58,83.71-6.7,128.6a583.31,583.31,0,0,1,91-53.9c6.29-3,12.34-6,19-8.23-2.29,5.86-4.57,13.91-6.64,20.06-6.36,18.92-11.88,38-19.36,56.56,18.16-13.26,35-25.94,54-38.39-10.23,21.1-19,44.62-29.35,65.85-3.68,7.55-7,17.06-11.23,24.16-6-8.77-10.54-11.6-20.91-14.22-4.2-5-12.05-8.89-17.18-3.2-4.66,5.18-7.34,15.21-8.92,21.85-14,8.8-10.11,20-5.56,32.86-2.89,10-4.43,11.92-.11,21.6a744.49,744.49,0,0,1-53.15,68.69c-1.1-9.82-1.2-20-2.12-30C684.76,443,673.89,375.59,625.54,350c1.31-7.93-.82-19.95-2.62-27.71a40.1,40.1,0,0,0-7.69,8.48c-7.11-9.9-16.72-19.27-28.66-23,1.56,3.67,5.41,13.33,7.12,16.39-11.2-7.57-12.54-7.73-25.9-10.39,7.92,11.17,9.32,12,14,24.94C511.24,346.1,465.08,392.56,421.62,445c-6.36,7.68-11.94,16.72-17.73,23.76-1.12-18.38.7-40.88,1.56-59.55.34-7.44,1.56-24.67,2.82-31.56,1.37-1,1.88-.79,3.76-1l.8-.66c.05-2.24-1-4.85.47-6.38,9-9.15,30.28-25.42,12.87-38,2.88-9.82,7.8-24.22-4.65-27.73-4.13-1.17-7.93-.32-11.76,2.05-6.94-3.84-9.28-7.51-18.77-1.28l.87-.65c-6.13-.19-10.69-.36-15.38,4.19-10.05,9.75-7.89,20.66-2.74,31.52-3.07,11.6-5.17,18.64,4.67,27.4-1.4,1.31-2.4,2-2.89,3.79.74,3.17,3.75,3.73,6.47,5.3-2.16,32.14-3.21,64.65-3.73,96.85-.2,11.63-.37,23.22-.72,34.85a239.08,239.08,0,0,0-12.32,22.37c-29.72,59.36-67,167.93-23.24,228.44-22.6,6.54-40.69,14.91-60.69,27.49-6.69,4.21-19.61,13.87-25.63,16.92-8.67-5.69-12-2.62-16.62,5.82a154,154,0,0,1-16.32,8.39c-4.62-2.25-8.68-5.56-13.05-8.3-5.48-14.28-30-10.54-41.6-7.66-6.87-13.93-15.08-32.3-20.55-46.84,10.61,6.53,19.77,13.79,29.89,20.7,11.73,8,24.92,16.44,37.13,23.62-2.13-6-3.56-12.86-5.41-19-13.54-45.17-27.33-89.8-35.72-136.33,22,6.89,64.16,26.65,83.3,38.93-4.36-7.23-10.36-22.26-13.94-30.74-15.22-36-28.35-76.21-33.44-115.18-1.06-8.1-.85-18.56-.69-26.72,4.27,4.47,8.33,10.39,12.4,15.16,23.72,27.8,40.1,59.4,59.06,90.47-.11-10.95-1.27-22.13-1.42-33.21-.35-25.76,0-51.39.54-77.15.34-15.57-.07-31,.65-46.63,17.42,19.72,26.37,39.49,42.13,58.52.11-23-2.82-43-5.31-65.78l-8.08-69.93c-2.12-18-4.52-36.23-5.42-54.28-.49-9.95-.39-20.66-.45-30.67,11.69,18.73,20,50.77,27.2,72.25,3,8.92,9.08,28.61,10.71,37.23a336.2,336.2,0,0,1,13.74-43.26c3-7.57,7.26-16,9.86-23.49,3.4-9.83.67-19.77,7.13-29.41s12-8.62,22.13-9.26a73.57,73.57,0,0,0,9.07-1.62c11-18.51,20.23-45.31,30.45-64.93,1.15,7.39,4.23,18,5.83,25.68C443.48,281.78,447.74,302.45,448.29,325.3Z" transform="translate(-61.29 -32.91)"/><path class="cls-2" d="M804.59,440.85c11.09-8.67,25.73-17.26,37.86-24.37,7.39-4.33,18.77-11,26.52-14.44-3.58,7.93-9.13,16.06-14.06,23.26-29.65,43.26-62.18,86-95.27,126.63,9.72-5.66,19-9,29.4-13.11,8.68-3.42,17.38-7,26.2-10.08-11.4,13.18-19.61,26.5-30.14,39.79-24.94,31.5-46.21,66.22-70.26,98.08,16.68-5.09,34.57-12,51-16.71-23.06,36.47-49,70.84-72.44,107-2.17,3.36-4.47,6.72-6.54,10.13,21.61-8.46,45.77-20.77,66.56-27.95-20.56,29.28-45.62,64.72-63.56,95.79l46.37-5.47c7.92-.95,17.13-1.82,24.85-3.18-37.84,26.11-75.76,57.69-113.06,85.06,15.75-2.27,32.28-2.61,47.31-5-15.53,9.58-29.7,20.81-45.85,29.73-8.35,4.61-15.91,10.11-24.59,14.68l-1.54.6a3.29,3.29,0,0,0-.35,2c-1,1.2-7.58,3.27-9.59,4.14l.72.08a19.14,19.14,0,0,0,2.13.12l.27.63a30,30,0,0,1-2.72,2.93c-4.08.12-8.56.33-12.62.24-15.79,2.39-47.5,2.24-64,2.12-.63-7.16-6.11-51.51-8.82-55.28s-6.44-4.76-10.82-5.4c-2.39-28,3.83-47.58,15.72-72.16,22.43-1,54.06-17.3,71-32,51.54-44.65,69.28-124.53,80-188.7,2.09-12.53,5.27-33.72,6.25-46.19,10.65-11.08,23.17-26.84,32.53-39.07,14-18.33,29.18-38.61,41.2-58.23,15.33,4.11,21.5,3.33,28-12.14C798.69,450.44,800.53,447,804.59,440.85Z" transform="translate(-61.29 -32.91)"/><path class="cls-1" d="M613.44,957.38l.72.08a19.14,19.14,0,0,0,2.13.12l.27.63a30,30,0,0,1-2.72,2.93c-4.08.12-8.56.33-12.62.24C604.5,960.72,610.1,958.56,613.44,957.38Z" transform="translate(-61.29 -32.91)"/><path class="cls-15" d="M490.91,202c18.77-46.47,84.44-97.76,126-124.91C628,69.76,698.21,31,707.18,33c.46,1.12.75,1.36,0,2.57C700.67,45.83,693.53,55.9,688.49,67c-16.94,37.41-33.55,75.14-25.07,117.08,8.11-6.81,19.14-20.44,26.91-28.54,28.1-29.28,55.63-61.07,91.3-81.35,3-1.73,10.34-6.65,13.42-5.4a3.92,3.92,0,0,1-.89,3.26c-23.23,35.9-49.5,74.75-54.2,118.28-.86,8-.75,16.67,1.72,24.23l.22.66c6.84-5.4,13.47-13.2,19.73-19.42,41.55-41.3,88.69-78.22,142-103,5.29-2.45,29.68-13.67,33.77-11.07-.59,3-16.77,18.9-19.72,22.67C888.44,142,854.44,193.3,845.49,240.6c19.38-15.78,38.2-40,53.5-59.84,3.41-4.43,2-13.72,5-16.69l.68.27c1.16,4.43-1.37,15.07-1.82,20.4-1.59,15.55-1.62,32-5.19,47.26-4.51,19.29-10.62,35.26-13,55.24,7-6.13,18.91-17.44,24.17-24.83,6.66-9.33,11.44-23.15,18.13-33.12,4.87-7.68,10-15.22,16.18-21.87,5.24-5.62,11.22-10,14.82-16.87,1-1.9,3.77-7.16,6.28-6,0,3.75-5.38,10.09-7.15,14.43-8.32,20-18.38,37.35-22.2,59-4.94,28.08-.75,56-1.63,84.3-.13,4.13-.39,8.28-.51,12.39C930.68,434.9,871.1,494.11,828.62,556.4c-2,2.86-10.16,14.26-5.66,16.8,11.68.42,47.19-21.85,58.33-27.64,18.29-9.52,37.39-17.75,54.79-29.16,6.67-4.13,13.06-8.5,19.38-13.15,2.68-2,13.1-11.5,15.61-10.85,3.28,9-16.56,37.8-22.15,45.86C910.31,594,859.67,640.1,819.24,694.53c-6.28,8.45-13.62,17.7-18.19,27.13,9-2.48,17.48-6.81,26-10.4,17.74-7.47,35.75-16.64,53.62-23.61-3.27,6.36-7.22,10.51-11.89,15.87C850,725.17,831.37,747,811.44,767.71c-4.85,5-9.63,10.19-14,15.63,9.24-1.72,20.05-4.83,29.3-7.28,30.4-8,54.15-15.65,81.68-30.37-4.33,8-20.89,27.3-27.15,35-22,27.09-45.75,54-72.4,76.51-14.8,12.53-30.8,24.69-45.94,36.86-7,5.68-15,11-21.73,17,20.35-.24,43.37-7.38,62.92-12.91,1.24-.35,1.34-.09,2.18.54-.25,1.51-.76,2.07-1.93,3.26A152.62,152.62,0,0,1,765,930.69c-53,27.69-111.09,33.66-170,35.79-19.15.69-38.57.47-57.47,1.37l-.38-4.35c16.54.12,48.25.27,64-2.12,4.06.09,8.54-.12,12.62-.24a30,30,0,0,0,2.72-2.93l-.27-.63a19.14,19.14,0,0,1-2.13-.12l-.72-.08c2-.87,8.63-2.94,9.59-4.14,8.41-.25,15.55-1.88,23.83-3.41.44,3.15.91,6,1.51,9.09,10.6-1.28,21.27-2,31.82-4.1,40.24-7.9,86.1-22.17,116.7-50.55-8.75,2.24-53.79,14.79-58.63,7.86-.3-3.13,3.74-6.5,6.09-8.31C776.51,879,809.47,854.23,837.87,825c21.51-22.1,40.79-46.47,60.17-70.4a264.23,264.23,0,0,1-27,11.43c-9.2,3.34-68.87,22.41-74.53,20-1.38-.57-1.51-.86-2.07-2.14,0-2.23,1.91-4.64,3.39-6.26,25-27.22,49.38-54.85,73.79-82.54-13.08,4.94-60.74,29.48-71.61,29.49-1.76-.92-1-.29-2.13-2.17-1.58-16.42,112.72-138.22,127.61-158.61,14.3-19.57,32.62-40.19,41.28-65.11-25.69,21.15-54.08,35.31-83.69,49.91-12,6.39-23.43,13.63-35.75,19.5-52,24.95-22.57-12.29-8.08-32.62,33.09-46.42,70.9-88.36,85-145.23,11.16-45,.24-88.67,7.29-133.58,2.91-18.5,13.11-36.77,20.47-53.92a147.53,147.53,0,0,0-27.88,38.1c-5.06,9.67-8.8,20.47-16.31,28.24-4.19,4.33-20.25,21.84-25.27,22.12a3.68,3.68,0,0,1-.39-.4c-4.42-5.68,8.24-43.46,10.32-51a134.29,134.29,0,0,0,3-13.59c2.22-13.38,2.86-27,3.67-40.53-6.62,9.5-47.13,58.7-55.91,59.29a4,4,0,0,1-1-3.18c9.62-54.3,52-118,88-156.11-68.28,24.58-128.54,73.05-178.32,124.74-1.46,1.49-7.46,7.31-9.24,7.64-8.32,1.57-6.39-22.38-6.1-26.12,3.4-43.34,29.63-82.4,52.25-117.85-6.51,2.7-14.5,8.27-20.4,12.41-30.11,21.12-54.54,49.42-79.76,76-7.08,7.46-16.09,18.45-24.34,24.78-.84.64-.83.39-1.94.11-1.85-1.68-2.46-4.05-3-6.44-9.2-44.85,18.78-105.94,42-143-71.84,26.46-146.77,80.33-194.15,141.43-6.47,8.33-13.51,23-18.15,32.69-1.18-7.45-2-18.65-2.44-26.25-1.87-30.21-2.11-62,3-91.87,2.26-13.25,5.81-26.43,9.1-39.45-54,50.51-91.93,110.42-118.86,178.85-7.11,18.06-13.86,36.29-21.13,54.26-2-4.59-5.91-18.92-7.31-24.31-13.81-53.22-21.66-115.69-13-170.21-6.68,11.72-13.92,23.1-20.38,35-35,64.35-60.43,135.26-55.52,209.53.9,13.7,10.63,67.72,6.05,76.72-7.9,4.36-26.65-32.2-30.07-38.78,1.05,9.36,1.76,73.32-2.75,76.85a3.13,3.13,0,0,1-1.31-.35c-10-5.57-37.08-109.34-41.83-124.36C184,348.09,175.19,382.44,171.09,404c-3.77,19.87-8.45,47.49-9.6,67.45-1.28,27.59,3.62,54.93,8.9,81.88,2.67,13.62,4.44,27.14,8.4,40.44a3.17,3.17,0,0,1-.47,3.32c-3.51,1-11-3.59-14-5.7-22.82-16.19-39.21-39.88-48.31-66.17-1-2.86-1.86-6.3-3.05-9l-.39-.87c-3.94,53.75,4.82,107.62,19.77,159.3,3.11,10.75,8.87,21,12.52,31.64-27.21-7.42-57.25-39.14-74.51-61.09C77,714.52,93.22,788.87,131.81,848c1.41,2.16,5,6.41,5.48,8.75-.7.59-.78.88-1.6,1-3.12.29-8.29-2.39-11.31-3.55-16-6.2-30.72-14.18-44.08-25.1-4.51-3.69-8.25-7.4-12.6-11.14,22.69,45,90.7,83.55,138.87,94.52,10.39,2.54,21.22,4.28,31.79,6,61.47,9.75,124.21,14.46,182.49,38,6.11,2.47,31.88,14.31,36.4,14.72.14,2.11.23,3.73.22,5.84-1.41-2-18.18-8-21.47-9.55-74.08-34.74-155.31-33.8-233.25-51.73-45.67-10.51-130-58.3-141.46-107.78,4.37,3,13.76,12.66,18.43,16.66,16.93,14.52,30.92,20.61,51.06,28.35-7.52-9.68-15.48-25-20.78-36.19C87.71,769.62,75,715.57,68.92,664c-1-8.42-2.18-19.45-2.49-28,0-1.38.42-1.52,1.18-2.14l.84.4c.23.73.47,1.44.74,2.16,5.61,14.87,37.62,43.91,51.07,53.54a105.61,105.61,0,0,0,18.9,10.8c-8.35-19.06-12.69-32.7-17.42-53.12-10.47-44.21-16-89.75-12.37-135.19.31-3.88-1.44-18.24,1.77-19.4,1.79,1.09,1.8,5.78,2.13,8.08,5,35.59,29.36,75.74,61.52,92.84-3-12.76-4.93-26.12-7.48-39.06-4.26-21.61-8.67-45-9.26-67-.87-32.34,6.6-69.1,13.18-100.71,2-9.65,15.77-62.45,21.7-66.19l1,.3c4.19,11.41,6.92,24.76,10.63,36.51,4.28,13.53,8,27.19,12.55,40.68,5.64,16.56,9.39,33.16,17.44,48.88,1.87-14,1.18-33.34,1.29-47.63a263.64,263.64,0,0,0-1-27c-.38-3.74-3-13.31-1.81-16l.69-.21c2.74,1.63,5.22,10.56,6.61,13.88,4.87,11.61,16,33.22,26.19,40.47.48-24.51-5.26-46.34-7.2-70.18-7-85.93,28.38-172.09,73.2-243.66,2.53-4,9.32-17.42,12.66-18.88.63.45.84.39.69,1-1.34,5.68-3.41,8.34-4.31,14.48a360.07,360.07,0,0,0-3.41,43.27c-.19,27.51,2.9,56.87,7.38,83.94,3.15,19,8.46,38.7,13.29,57.2,3.74-7.85,7-17.35,10-25.57C393,187,425.43,124.93,474.61,74.61c4.28-4.38,25.33-27.84,28.3-27.65.49,3.6-4.74,24.22-6.09,29.41C486,118,488.59,159.37,490.91,202Z" transform="translate(-61.29 -32.91)"/><path class="cls-16" d="M623,953.24c8.41-.25,15.55-1.88,23.83-3.41.44,3.15.91,6,1.51,9.09-11.53.76-23,2.13-34.53,2.22a30,30,0,0,0,2.72-2.93l-.27-.63a19.14,19.14,0,0,1-2.13-.12l-.72-.08C615.45,956.51,622.07,954.44,623,953.24Z" transform="translate(-61.29 -32.91)"/><path class="cls-15" d="M484.46,238.46C525.82,172.8,573.62,117,641.05,77c4.23-2.51,16.53-10.34,21-9.19,2.31,3.26-1.69,14.47-2.85,18.68-7.27,26.41-12.91,53.18-12.69,80.71.13,16.29-.81,37.48,6.31,52.36,6.53-6.17,14.34-16.91,19.92-24,7.78-9.94,51.66-60.19,63.08-58,1.91,2,.43,6.6-.19,9.12-8.6,34.92-14.75,70.29-8,106.16,29.12-39.5,103.43-108.71,149.5-126.7-1.85,5.75-4.36,9.62-7.07,15-16.22,31.94-32,65.69-38.36,101.18-1.9,10.62-3.41,24.83-1.45,35.29C837.38,271.26,845,263.37,851,257c5.53-5.85,33.47-39.35,38.78-41.39l.77.35c.94,2,.51,4.33-.16,6.33-13.49,40.75-34.82,84.18-36,127.66,11-16.24,23.37-30,35.93-45,3.66-4.38,15.83-18.95,19.95-21.8,1.81-.08.94-.28,2.61,1-.31,6.78-1.78,13.37-2.64,20.05-5,39-2.63,71.65-16.72,109.11C869.21,477.83,823.32,530,793.25,591.82c-1.6,3.29-6.93,12.84-4.62,16,8.29.46,94.89-49.13,107.32-55.66,4.76-2.5,15.29-8.63,20.82-10.59,1-.37,2.24.45,2.94,1,.17,3.22-3.75,8-5.69,10.53-14.19,18.44-32,36.21-47.6,53.68-21.84,24.45-85.6,97.33-90.24,128.69-.42,2.79-.6,4.9,1.12,7.22,5.29.37,45.12-21,53.47-22,2.47-.31,3.36-1.28,5.6.75a3.5,3.5,0,0,1-.72,2.91c-3.69,5.26-10,10.21-14.6,14.74-12.47,12.17-45.6,43.44-50.81,58.22-.54,1.54-.9,3.22-.06,4.72,4.76,8.48,76.66-27.44,83.11-24.27,1.25.62,1.38,1.29,1.82,2.49-.47,4.81-12.75,15.07-16.58,18.82-7.68,7.51-16,14.73-23.94,22-24.3,22.49-49,44.37-74.5,65.5-4,3.31-18,15.32-17.66,20.32.48,7.83,16.67,7,21.2,12.27.44,3.74-6.62,5.92-9.66,7-27.19,9.44-58.44,20.61-87.11,23.65-8.28,1.53-15.42,3.16-23.83,3.41a3.29,3.29,0,0,1,.35-2l1.54-.6a38.34,38.34,0,0,0,6.6-.65c33.57-5,66.47-14.33,98.42-25.7,2.78-1,6.85-2.21,9.07-4.12-.92-2-5.52-2.1-7.55-2.77-4.43-1.47-10.37-3.15-12.06-8-.87-2.5.38-7.46,1.92-9.34,6.86-8.4,17.11-16.79,25.22-23.66l32.31-27.37c23-19.83,44.74-41.79,67.68-61.71a19,19,0,0,0,4.6-5.77c-1-.64-2.14-.29-3.25,0-5.48,1.36-11,4-16.27,6.05-14.19,5.58-42.66,17.76-56.87,19.31-2.1.24-5-.13-6.65-1.63a5.7,5.7,0,0,1-1.84-4.65c.27-16.68,53-64.63,67.41-77.95-12.55,4.29-24.78,10.46-36.93,15.81-4.52,2-9.11,4.3-13.83,5.77-2,.61-5.18,1.59-7.18.66a5.66,5.66,0,0,1-2.79-4.17c-5.1-26.54,67.48-110.1,86.83-131.75l36.15-39.92c6.08-6.75,15.2-16.51,20.31-23.71l.5-.7c-32.87,17.88-65.24,36.74-98.62,53.61-6.06,3.06-27.21,15.29-32.89,11.54-2-3.86.65-10.07,2.37-13.81,27.87-60.74,73.14-112.25,99-173.85C891.09,410,897.12,395.87,899,383c4.57-32.17,4.76-63.39,10.81-95.58-19.09,19.93-36.8,44.05-54.69,65.14-.7.83-1.24.66-2.08.54-6-6.51,4.91-46.3,7.35-55.42,6.93-25.8,18.75-50.34,26.81-75.76-9.46,8.31-49.54,58.32-57.83,58.38-4.54-3.36-3.41-18.35-2.89-23.59,4.38-44.07,24.4-86.15,44.88-124.81a216.76,216.76,0,0,0-36.38,22.4c-34.11,26-66.92,54.34-94.47,87.29-2.31,2.76-10.12,13.89-13.51,13.39-3.44-3-4.62-12.32-5-16.82-2.81-32.2,3.62-66.62,12-97.58-19,10.06-46.06,41.58-60,58.22-5.62,6.71-14.87,19.52-21.64,24.48a21.85,21.85,0,0,1-2.66-3.48c-4.16-8-5.6-20-6.17-28.87a285.17,285.17,0,0,1,7-84.45C653.39,94.39,657,82.63,660,70.6c-9.92,3.94-20.58,10.83-29.34,16.54-55.29,36-100,85-135.67,140.21-1.86,2.87-8.92,14.42-10.56,15.89-3.39-1.71-4.26-7.59-5.06-11.09-5.61-24.64-6.58-50.46-6.25-75.64.23-17.34,1.28-34.27-.55-51.59-18.53,19.91-34.76,52.79-47.72,76.83-12.07,21.5-23,42.57-33.49,65-8.3,16.11-13.51,35.85-23,51.18-12.27,18.77-25.42-8.43-28.82-18.5-11.76-34.76-16.16-71.85-26-107.17-16.82,24.17-30.06,93.75-32.35,124-1.4,18.45-1.52,40.85.39,59.39,1.63,15.82,3.5,32.22,5.28,48.1.47,8.54,3,19.42,1.8,27.85-3.48,24.49-27.22,0-32.62-8.83-.08,17.52,1.65,38-4.9,54.5-1.53,3.85-4,8.53-8.06,10.12a6.42,6.42,0,0,1-5.39-.47c-18.21-9.52-35.22-88.2-41.58-109C176,438.43,177.4,495,190.77,556.66c4,18.43,8.84,37.65,10.53,56.4.59,6.49-4.55,15.8-12.56,14.38-23.67-5.67-44.14-30.3-58.7-48.4-4.19,25,15.22,82.09,24.52,106.7,3.75,9.94,10.33,23.06,11.81,33.37a8.26,8.26,0,0,1-1.8,6.67,7.62,7.62,0,0,1-5.17,2.52c-16.28,1.88-50.9-27.83-63.49-38.21-.07,27,24,87.37,34.25,113.6,4.52,10.84,9.77,21.35,14.51,32.09,2,4.46,4.38,9.18,6.52,13.54,2.8,5.72,6,10.83,8.2,16.77,3.31,9-11.51,10.59-12.65,5.66,1.9-1.26,5.51-.27,9-1.47,1.32-1.57.58-3-.13-4.75-2.7-6.66-6.63-13.35-9.8-19.85-5.64-11.55-11-23.25-16.18-35-8.49-19.19-41.57-104.54-36.76-121.21a4.22,4.22,0,0,1,2.64-2.94c6.94,2.35,32.07,27.34,42.71,30.76,5.24,1.69,17.89,12.59,24.05,5.74,1.67-1.86.15-6.47-.43-8.7-8.63-21.1-46.45-121.05-33.26-138.55,3.77-1.51,10.59,9.62,13.46,12.82,12.21,13.64,26.44,28.32,43.7,35.26,8.52,3.43,13.4-6.89,12-13.9-9.26-52.48-24-104.83-19.86-158.79.93-12,10.66-75.24,18.62-80.13a2.24,2.24,0,0,1,1.78,1.93c9.65,35.13,16.91,71.78,34.41,104.1,5.07,8.11,10.16,11.34,14.5.63,6.47-16,5.16-32.22,5.21-49,0-3.19-.37-9.49,1.61-12,2.41,0,7.46,7.91,9.42,10,26.55,29.66,23.33-2.63,20.36-21.29-10.27-64.07-10.23-125.29,8.42-187.94,2.71-9.08,13.46-47,21.62-49.8,1.47.27,2,.33,2.66,1.81,2.67,5.78,4,16.21,5.42,22.64,5.43,24.68,16.3,89.38,31.07,105.5,1.52,1.65,3.58,3.2,5.91,3.23,4.23.06,6.7-4.33,8.51-7.59,8.44-15.16,13.74-32.52,21-48.33,9.94-21.69,21.46-42.5,32.75-63.5,10.85-20.18,32.82-64,48.77-77.88,1.38-1.21,2.63-2,4.49-1.91,3.51,3.46,2.54,31.85,2.4,37.69-.53,22.16-1.35,44.9,1.5,66.94C479.54,215.27,481.19,230.18,484.46,238.46Z" transform="translate(-61.29 -32.91)"/></g></svg>