<?xml version="1.0" encoding="utf-8"?>
<!-- Generator: Adobe Illustrator 24.1.2, SVG Export Plug-In . SVG Version: 6.00 Build 0)  -->
<svg version="1.1" id="Layer_1" xmlns="http://www.w3.org/2000/svg" xmlns:xlink="http://www.w3.org/1999/xlink" x="0px" y="0px"
	 viewBox="0 0 512 512" style="enable-background:new 0 0 512 512;" xml:space="preserve">
<style type="text/css">
	.st0{fill:#1B1817;}
	.st1{fill:#C6AE91;}
	.st2{fill:#FFFFFF;}
	.st3{fill:#89827B;}
</style>
<path class="st0" d="M326.9,33.2c-6.3,17.9,10.3,34.9,6.8,51.7c3.7,1.7,7.2,3.5,10.7,5.5c7.2-9.6,1.4-14.8-3-23.7
	c-6.1-12.4-3.8-28.6,10.1-34.2c-10.3,8.2-14.5,18.2-9.5,31.1c3.8,9.7,12.8,17,3.7,27.2c37.7,23.2,37.9,50.9,32.6,89.8
	c-3,22.2,2.6,49.5,7,71.2c10,46.2,27.8,101,0.8,144.9c-11.7,18.8-29.8,31.6-50.7,38.3c2.3,6.2,6.2,20.2,7.6,26.9
	c7.6,2.6,16.4,6.7,18,15.4c4.1,0.2,19.3,1.2,20.8,5c-2.2,3.1-30.5,7.1-35.8,7.4c-8.8,0.6-17.5,3-26.3,3.8
	c-20.8,2.3-42.1,1.2-62.8-1.9c-2.4-0.4-10.6-1.9-11.9-3.8c0.1-2.7,14-4.9,16.5-5.4c8.5-11.7,26.4-18.7,40.5-20.9
	c7.4-1.2,13.6-1.5,21-1.6c-1.2-5.5-4.3-14.8-6.1-20.4c-9.1,0.9-19.1,2.1-28.2,1.6c-24.7-0.6-44.3-6.6-66.7-15.9
	c1.5,6.4,2.8,13.1,4.2,19.6c5.7,3.9,9,7.3,11.2,13.9c3.8,0.6,15.8,2.4,18,5.1c0.6,4.3-20.8,5.5-24.4,6.2
	c-18.3,3.6-36.6,6.8-55.4,5.5c-13.6-1-27-3.1-40.2-6.4c-1.9-0.5-5.3-0.9-6.9-2.2c-0.3-0.2-0.1-0.5-0.1-0.8
	c2.3-2.6,12.2-3.8,15.5-4.4c1.9-2.2,4.4-5.2,6.6-6.9c12-9.4,27.4-14,42.5-15.1c4.6-0.4,9.6-0.4,14.1-0.3c-2.3-8.9-3.8-15.7-5.7-24.8
	c-30.4-15.6-55.3-52-65.5-84c-27.1-85,18.6-184.2,90.5-232.3c32.3-21.6,68.6-28,105.5-14.2c0.2-4.2,0.3-7.3-0.6-11.6
	c-1.3-6-3.8-11.6-5.5-17.5c-3.8-12.7-3.1-25.1,7.2-34.5c3.5-3.2,9.2-6.9,14.1-6.9C338.2,18.2,330.5,23.2,326.9,33.2z"/>
<path class="st1" d="M330.3,89.5c-3,8.2-6.1,11.6-13,16.8c7.9-2.8,12.4-8.1,15.3-15.9c15.9,6.1,30.7,18.1,37.7,34
	c6.4,14.5,5.2,30,3.2,45.3c-1.5,11.5-2.1,23.5-1.4,35.1c2.5,43,19.1,83.8,21.5,126.8c0.9,16.4-0.1,33-6.1,48.4
	c-19.4,49.7-74.4,61-121.9,52.6c-26.8-5.2-52.9-16.3-74.9-32.6c-11-8.1-21.4-20.1-29.1-31.3c-59-86.4-13.6-210.3,67.6-265.3
	c19.3-13,42.3-22.2,66.1-21C309.5,83.3,317.1,84.9,330.3,89.5z"/>
<path class="st0" d="M277.8,164.1c30.2,17.5,8.6,80.9-24.5,77.7c-16.5-2-21.3-21.2-19.3-35.1c2.1-14.7,9.4-29.3,21.3-38.5
	c4.7-3.6,10.6-6.5,16.6-5.8C273.8,162.6,276.1,163.1,277.8,164.1z"/>
<path class="st2" d="M287.3,200.7c-2.2,12.4-7.8,24-18.1,31.6c-4.6,3.4-9.2,5-14.9,4.9c-16.4-2.9-17.4-20.8-15.4-34.4
	c1.9-13.2,16.5-38,32.3-36.3C286.1,168.8,289.5,188.4,287.3,200.7z"/>
<path class="st0" d="M248.6,208.8c-7.1-3.5-2.7-18.9,3.1-22.2c1.3-0.7,1.9-0.8,3.3-0.8C262.7,190.1,256.5,208.7,248.6,208.8z"/>
<path class="st0" d="M235.2,180.1c-3.1,15.7-18.8,39.3-37.6,35.6c-15.4-3.6-15.7-22.3-12.6-34.7c4.1-16.5,17.2-39.4,37-37.7
	C238.2,147,237.7,167.2,235.2,180.1z"/>
<path class="st2" d="M231.6,175.5c-1.7,14.2-15.1,37.2-31.8,35.9c-27.4-4.2-3.3-67.1,20.4-64.3C233.2,149.2,232.9,165.5,231.6,175.5
	z"/>
<path class="st0" d="M209.6,179.8c-1.3,3.9-3.6,8.1-8.2,8c-6-2.8-4.4-11.8-2-16.7c1.5-3,3.5-5.2,6.9-5.6
	C212,167.4,211.1,175.3,209.6,179.8z"/>
<path class="st0" d="M364,310.9c1.9,12.2,3.4,33.4-2.1,44.6c6.2,4.5,8.5,12.2,8.6,19.2c0.2,7.9-1.9,18.7-10.3,21.3
	c-0.3,0.4-4.4-0.5-4.2-0.5c-6.7,3.5-8.1,3.8-13.7-0.6c-0.4-0.3-11,1.3-11.5-5.7c-0.4-5.1,3-7.4,5.4-11.5c1.2-1.9,1.8-3.1,2.8-5.2
	c-3.4,0.3-6.3,0-9.1-2.1c-2.7-2.1-2.9-6-0.6-8.4c3-3.2,8.1-4.2,12.2-4.8c7.9-15,7-35.8,5.3-52.2c-0.5-5.4-2.1-10.7-2.7-16.1
	c0.1-0.2,0.2-0.3,0.3-0.5c0.6,0.2,0.8,0.6,1,1.2c4.8,12.3,5.9,29.9,5.2,42.7c-0.6,8-2.3,21.3-7.8,27.6c-4,0.2-8.8,0.7-11.8,3.6
	c-1.5,1.4-1.6,3.8,0.1,5.1c3.5,2.8,6.5,2.1,10.6,1.2c0.4,0.5,0.5,0.7,0.4,1.4c-0.1,1-0.8,2-1.2,2.8c-0.9,1.7-1.8,3.4-2.9,5
	c-2,2.9-6.7,7.7-4.3,11.4c0.8,1.2,2.3,2.1,3.7,2.4c1.6,0.3,3-0.2,4.3-1.1c7-4.9,8.1-18,9.3-19c1.4,0.6,1,2.4,0.8,3.6
	c-0.5,4.5-2,8.9-4.4,12.8c-1.1,1.8-3,3-3.5,4.2c0.8,2.5,5.7,2.7,7.5,1.8c7.2-3.6,8.1-15.3,8.6-22.4c0-0.6,0.2-0.9,0.6-1.2
	c2.3,1.7,0.1,15.1-1.4,17.7c-0.3,0.6-2,4.2-2,4.4c1.3,0.3,3.3,0,4.3-0.8c8.5-6.6,7.9-23.3,2.6-31.7c-1.4-2.3-3.5-4.1-5.4-5.7
	c6.3-13.2,3.9-35.6,1.7-49.8c-0.4-2.9-4.7-20.2-4.1-21.1C359.9,287.8,363.2,305.9,364,310.9z"/>
<path class="st0" d="M306.1,167.7c-0.2,1.2-0.6,2.3-0.9,3.5c-1-1.5-2-2.9-3-4.4c-7.6-10.1-14.6-15.3-26.3-20.4
	c1.3-4.2,4.6-13.5,7.8-16.3c0.7-0.1,0.7-0.1,1.4,0C303.4,133.9,309.5,150.9,306.1,167.7z"/>
<path class="st0" d="M257.2,106.7c-1.1,5-2.1,9.2-4.5,13.9c-6.1-1.7-8.2-2.2-14.6-2.7c-4.1-0.3-8.3-0.2-12.4-0.1
	c3.1-9.5,11.5-16,21.7-14.8C250.8,103.5,254.3,104.7,257.2,106.7z"/>
<path class="st0" d="M210.2,223.7c1.8,0.7,3.1,0.9,4.8,1.4c-11.3,1.8-17.7,1.9-18.7,15.8c-1.8-5-0.9-6.1-0.4-10.6
	c-1.2,1.3-2.2,4.2-2.3,6c-0.5,7.6,6.8,13.3,13.9,13.6c7.8,0.3,14.3-5.1,19.7-10c-2.7,6.9-8.2,12.5-15.9,14.1
	c-13.9,3-28.6-12.4-19.4-25.4c4.7-6.6,15.5-9.4,23.1-6.8c3,1,4.6,2,7.2,4C217.7,223.6,215.4,223,210.2,223.7z"/>
<path class="st2" d="M215.1,225c-11.3,1.8-17.7,1.9-18.7,15.8c-1.8-5-0.9-6.1-0.4-10.6c2.9-4.9,9-6.3,14.3-6.6
	C212,224.3,213.3,224.5,215.1,225z"/>
<path class="st0" d="M256.3,303.9c0.5,0.5,0.9,1.2,0.8,2c-1,0-1.1-0.2-2.1-0.8c-2.8-2-5.5-4.2-8.4-6.2
	c-14.3-9.8-31.4-15.5-48.2-19.3c-0.6-0.1-1.2-0.4-1.6-0.8c0.6-0.9,2-0.9,3-0.8C216.9,280.1,244,290.4,256.3,303.9z"/>
<path class="st0" d="M164.2,255.6c0,2.9-1,5.4-4.4,4.8c-5.2-3.3-6.8-14.3-0.2-17C162.9,246.8,164.2,250.9,164.2,255.6z"/>
<path class="st1" d="M160.1,258.9c-3.6-3.3-5.2-12.1-0.5-15.1C161,246.4,165.8,259.5,160.1,258.9z"/>
<path class="st0" d="M236.2,413.9c5.8,2.2,11.7,4.4,17.7,6.2c2.4,0.8,16,4.7,17.4,5.5c-0.1,0.1-0.2,0.2-0.3,0.3
	c-23.7-5.4-47.3-14.5-67.9-27.4c-4.7-2.9-9.8-6.1-13.8-9.9l-0.1-0.4l0.2-0.1C204.7,397.9,218.9,407.5,236.2,413.9z"/>
<path class="st0" d="M244.4,406.8c-2.3-1.3-3-2.9-3.7-5.4c-0.8-2.9-1.9-9.1,2.9-8.9C247.3,394.9,250.8,406.6,244.4,406.8z"/>
<path class="st1" d="M244.6,405.2c-1.7-0.9-2.1-1.9-2.6-3.7c-0.6-2-1.9-7.7,1.3-7.9C245.5,395.7,249,404.1,244.6,405.2z"/>
<path class="st0" d="M226.4,139.8c-13.3-1.8-22.5,4.1-31.4,13.4c-1.1,1.2-2.3,2.5-3.6,3.5c4.8-10.1,16.2-20.1,28.1-18.6
	C222.5,138.4,223.6,138.7,226.4,139.8z"/>
<path class="st0" d="M271.8,111c-4.4-2.6-3.1-12.3,1.5-12.3C276.9,102.1,277.9,110.4,271.8,111z"/>
<path class="st1" d="M272.3,109.9c-2.6-2.5-2.3-8.4,0.5-10.3C274.5,102.7,276.3,107.7,272.3,109.9z"/>
<path class="st0" d="M176.3,339.9c0.1,1.4,1.4,5.7,3.6,4.4c3.7-2.1-0.2-11.7-1.6-13.9l-0.1-0.9l0.3-0.3c3.1,1.1,9,19.8-0.6,16.4
	c-4.1-1.5-5-14.8-0.9-14.9C175.3,333.1,176.2,337,176.3,339.9z"/>
<path class="st0" d="M291.9,171.7c2.7,4.1,4.5,11.1,3.5,16l-0.3,0.2l-0.1,0c-1.8-9.6-3.8-17.4-12.4-23.6c-1-0.7-4.1-2-4.3-2.4
	l0.4-0.1C285.2,163.4,288.2,165.9,291.9,171.7z"/>
<path class="st0" d="M251.3,247.5l0.1-0.4c8.4-1,13.2-1.6,21.3-5.1c1.7-0.7,7.2-3.7,8.3-3.9C273.8,245.1,261.2,250,251.3,247.5z"/>
<path class="st0" d="M302.3,339.7c-1.3,2.4,0.2,11.1,4,9.6c2.1-2.6-0.7-8.8-0.2-12.3l0.3-0.1c0.5,1,0.7,1.7,0.9,2.7
	c0.8,2.4,4.3,13.5-3.8,10.6c-3.7-1.4-4.4-10.1-1.7-12.6c0.6-0.8,1.4-2,2.3-2.5C304.9,336.7,303.2,338.2,302.3,339.7z"/>
<path class="st0" d="M346.6,216.7c0.5,4.3-2.4,7.3-6,3.7c-2.2-2.3-2.3-6.8-1.6-9.9c0.3-0.8,0.4-1.3,1.1-1.7c0.9,1.3-1.1,11.3,3,11.7
	c3,0.3,2-3,2.2-4c0.5-2.4-3.9-9.6-3.9-10.3l0.2-0.3C345.1,209,346.1,212.2,346.6,216.7z"/>
<path class="st0" d="M322.6,255.8c2.3,4.2,2.4,14.7-4.7,8.9c-2.4-1.9-2.3-8.2-1.3-11.6c0.4-0.7,0.6-1.2,1.3-1.7l0.4,0.1
	c0,0.7,0,0.4-0.4,0.9c-1.4,2-0.5,13.3,3,12.6c4.7-0.9-0.4-11.6-1.8-13.6c0.1-0.1,0.2-0.3,0.4-0.3C321.2,253,321.2,253.3,322.6,255.8
	z"/>
<path class="st0" d="M386.5,351.1c-0.1,4.6-4.4,4.4-6.3,0.9c-1.7-3.2-1.7-6.4-0.6-9.7c0.6-0.6,0.7-0.9,1.4-1.2
	c0,0.7-0.1,0.7-0.2,1.3c-0.8,3-0.6,6.4,0.6,9.3c1,2.3,4,2,3.9-0.3c-0.1-4.2-1.4-7.4-3.8-10.8c0.4-0.6,0.2-0.3,1-0.5
	C385.2,343.2,386.6,347,386.5,351.1z"/>
<path class="st0" d="M353,132.1c1.8,11.1-8.8,6.6-7.2-3.7l0.5-1l0.3-0.1c0.7,1.9,0.4,11.6,4.6,9.7c1.7-2.6-0.1-7-1.7-9.3
	c-0.5-0.7-1.3-1-2-1.3l-0.3-0.5c0.6-0.4,0.6-0.4,1.3-0.5C350.7,126.9,352.6,129.6,353,132.1z"/>
<path class="st0" d="M183.4,214.5c0.8,0.9,4.6,5,4.5,5.9l-0.2,0.2c-5.2-1.6-10.2-9.4-10.5-14.7l0.3-0.4
	C179.3,208.9,180.8,211.6,183.4,214.5z"/>
<path class="st0" d="M228.4,405.1c0.7,0.2,2.4,0.5,2.7,1.1l-0.2,0.2c-9.8-2.4-31.3-14.3-38.7-21.2l0.1-0.2
	C204.3,391.9,215.1,400.7,228.4,405.1z"/>
<path class="st0" d="M184.4,224.8c0.2,0.1,0.1,0.7,0.1,1c-3.3-0.6-9.1-7.9-9-11C177.5,217.3,181.5,222.5,184.4,224.8z"/>
<path class="st0" d="M254.4,309.9l-0.2-0.6c0.6-0.1,0.8,0,1.4,0.1c3.3,0.7,6.1-0.4,8-3C263.5,312,258.3,312.4,254.4,309.9z"/>
<path class="st0" d="M268.2,252.4c-1.3,2.4-7.7,2-10.1,1.8l-0.3-0.4c0.7-0.5,8.3-1.6,10-2.1L268.2,252.4z"/>
<path class="st1" d="M352.6,473.3c-9.9,5.9-23.7,9-35,10.4c-2.4,0.4-5.7,0.7-8.2,0.8c-4.6-7.5-9-11.3-17.1-15.2
	c11.3-3.1,22.5-5.1,34.3-4.4C336.1,465.3,345.3,466.9,352.6,473.3z"/>
<path class="st1" d="M231.4,458.7c-8.8,2.4-20.8,4.8-29.8,5.6c-2.7,0.3-6,0.6-8.7,0.8c-2.9-8.3-8.3-13.4-16.3-16.9
	c7.8-2.5,20.9-4.3,29.1-3.3C216.2,445.8,226.1,448.7,231.4,458.7z"/>
<path class="st2" d="M191.2,465.1c-5.9,0.2-16,0.3-21.9-0.6c-5.4-0.6-12-1.9-17-4.1c3.6-3.1,17.4-11.2,22.1-11.1
	C182.6,452.6,188,456.5,191.2,465.1z"/>
<path class="st2" d="M354.7,477.5c-1.6,2.5-9.1,5.1-11.7,5.9c-25,8-51.2,9.4-76.4,2l-0.3-0.4c0.7-1.3,1.7-2.2,2.7-3.2
	c25.2,7.8,55.6,6.1,79.8-4.7c1.6-0.7,3.4-1.8,5.1-2.4C354.4,475.5,355.1,476.8,354.7,477.5z"/>
<path class="st2" d="M307.5,484.8c-6.7,0.1-12.7,0.1-19.5-0.6c-4.2-0.5-13.5-2.1-17.2-3.7c3.7-3.1,14.7-10.1,19.3-10.2
	C297,473.3,303.9,478,307.5,484.8z"/>
<path class="st2" d="M232.9,463.1c-21.5,8-61.6,11-83.2,2.4l-0.5-0.5c0-1.4,0.9-2,1.8-3c5.3,2.6,11.3,3.4,17.1,4.1
	c20.2,2.6,44.4-0.2,63.9-6C232.3,461.1,232.6,462.1,232.9,463.1z"/>
<path class="st1" d="M338.9,462.9c-3.1-0.4-6.7-0.9-9.7-1.2c-1.5-0.9-4.9-13.2-5.5-15.5c3.8,1.2,6.5,0.3,10-1.4
	C335.5,450.8,337,457,338.9,462.9z"/>
<path class="st1" d="M218.5,432.2c0.6,1.6,2.5,10.5,2.4,12.1l-0.2,0.2c-2.8-1-5.6-1.9-8.5-2.6c-0.9-3.1-2.4-7.8-2.8-11l0.3-0.1
	C213.4,432,214.6,432,218.5,432.2z"/>
<path class="st1" d="M217.5,425.1c0.2,1.1,0.9,4.5,0.7,5.4l-0.4,0.2c-3.2-0.2-5.8-0.6-8.8-1.7c-0.5-1.7-1.6-5.1-1.7-6.9l0.4-0.1
	C211.4,423.5,213.7,424.2,217.5,425.1z"/>
<path class="st1" d="M332.9,443.2c-3.4,1.9-5.8,2.1-9.6,1.4c-1-1.3-1.2-3-1.5-4.6c4.1-0.2,5.6-0.5,9.5-2L332.9,443.2z"/>
<path class="st1" d="M216.5,422.9l-0.4,0.2c-1.9-0.5-8.2-1.8-9.5-3.6c-0.2-0.2-0.2-1.1-0.3-1.4c0.3-0.4,0.1-0.3,0.5-0.4
	C207.7,418.2,216.3,422.7,216.5,422.9z"/>
<path class="st3" d="M321.5,438.7c2.5-0.7,6.7-1.4,9.3-1.9C328.9,437.9,323.6,438.9,321.5,438.7z"/>
<path class="st0" d="M310.5,52.4c2.2,6,8.4,13.4,2.5,19.2c-0.8,0.8-2.6,2-3.6,2.4l0.1-0.2c2.3-3.3,5.1-5.1,4.2-9.6
	c-0.7-3.5-2.8-6.6-4.2-9.9c-3.5-7.8-3.7-17.4,1.2-24.6c1.7-2.4,5.3-6.5,8.4-6.8C309.7,31.3,305.9,40,310.5,52.4z"/>
<path class="st0" d="M297.5,50.3c0,5.8,4.3,10.5,3.5,16.4c-0.4,3.4-3.2,5.1-6.4,5.6c2-1.9,4.9-3.6,4.7-6.7
	c-0.5-7.2-8.2-17.1,0.3-22.9C298.4,45.7,297.5,47,297.5,50.3z"/>
</svg>
