<svg xmlns="http://www.w3.org/2000/svg" xmlns:xlink="http://www.w3.org/1999/xlink" viewBox="0 0 923.76 955.62"><defs><style>.cls-1{fill:#421f21;}.cls-2{fill:#f7914a;}.cls-3{fill:#fbc73d;}.cls-4{fill:#931a23;}.cls-5{fill:#746364;}.cls-6{fill:#be9461;}.cls-7{fill:#eabe72;}.cls-8{fill:#2e191a;}.cls-9{fill:#613f3f;}.cls-10{fill:#f86b66;}.cls-11{fill:#fff;}.cls-12{fill:#bff1fa;}.cls-13{fill:#191c1f;}.cls-14{fill:#c36e47;}.cls-15{fill:url(#linear-gradient);}</style><linearGradient id="linear-gradient" x1="86.83" y1="347.91" x2="75.2" y2="350.95" gradientTransform="matrix(1, 0, 0, -1, 0, 1024)" gradientUnits="userSpaceOnUse"><stop offset="0" stop-color="#4d110e"/><stop offset="1" stop-color="#831f1c"/></linearGradient></defs><g id="Layer_1" data-name="Layer 1"><path class="cls-1" d="M478.65,206.18c6.3-6.33,13-13.38,20.06-18.92,34.06-26.85,75-47.3,118.7-50.84a6.55,6.55,0,0,1,3.72.81c1,1.47.66.65.62,2.62-1.31,2.73-6.51,5.5-9,7.41-10,7.63-25.13,26.57-20,40.13,5.31,14,33,6.75,42.45,2.2,13.74-6.6,24.9-14.5,30.93-28.88,3.68-9.62,3.06-21.73,7.72-32,16.1-34.16,49.87-61.63,83.54-77.4a149.34,149.34,0,0,1,50-13c2.25-.16,6.81-.79,8.49.5v.89c-2,1.79-4.62,2.45-7,4a81,81,0,0,0-11.6,8.55c-35.22,32.39-51.4,65.39-53.88,113l-.09,2.2c5.8-10.25,13.79-24.29,21.45-33.29,27.95-32.79,70.18-60.37,111.79-71.61,24.77-6.68,58.56-9.94,83.42-5.33-37.31,6.64-84.61,37-106.62,68.3C799.6,201.78,875.1,270.4,803.17,341.18c42.73-26,71.18-75.82,74.94-125.21a4,4,0,0,1,.88-2c1.83-.47.9-.44,2.9.19,1.16,1.29,2.81,6.95,3.39,9,7.39,25.8,9.45,52.25,8.4,79-1.19,30.07-11.31,55.68-28.66,79.95-22.84,32-57.93,51.61-80.25,83.88-5,7.17-13.24,20.91-6.33,29.1a11.53,11.53,0,0,0,9.18,3.53c23.21-2.06,40.28-17.35,55.29-33.67,2.9-3.15,14-17.5,15.52-18.5l.85.28c.81,2.34,0,7.1-.39,9.61-9.22,53-39.27,96.77-65.28,142.61-4.58,8.25-30,49.56-14.31,54.89,13.8,4.68,44.14-13.49,57.88-17.68,6-1.82,38.66-13.77,42.27-10.34,0,.88.14,1.76-.77,2.28-12.48,7.2-22.58,16.21-33,26.19A457,457,0,0,0,759,769.06c-6.25,11.74-14.56,27.12-14.5,40.52l.36.58c15.11,23.49,77.69-22.86,87.53-39.78,1.4-2.41,2.71-7.08,5.22-7,1.12,1.12,1.21,1,1.6,2.52-1.46,8.21-5.31,16.85-8.27,24.65-12.88,33.93-28.6,60-59,81.28C714.87,911.67,616.05,934,547.39,945.21c-9.48,1.33-16.65,8.61-24.43,14.09,11.85.25,56.7,12.64,67.51,18.19-24.79-3.06-50.48-9.64-75.8-12.2-1.53.94-3.08,1.87-4.59,2.83,8.7,2.13,47.47,10.07,52.2,13.91l-.26.6c-2.78.35-9.81-1.1-12.93-1.57L518,976.46c-6.3-.92-16.57-2.69-22.58-2.27-3.18.22-11.83,3.53-15.72,4.55,17.44,1.39,43.34,6.87,58.72,14.59-17.45-1.92-35.71-5.7-53.27-7.77-5.82-.69-15.84-2.65-21.33-2.8-7.41-.21-17.67,2.66-25.82,2.21l-.7,1c8.71-.05,39.91,4.38,48,7.66-9.76-.64-19.9-.57-29.76-.91-94.94-3.33-189.28-15.38-283.39-27.63-8-1.05-16.78-2.3-24.64-4,11.89-2.36,37,.3,49.46,1.16,25.61,1.76,51.35,4.58,76.89,7.21-15.29-6.6-29.45-6.54-45-8.94-9.24-1.42-47.41-5-53.5-9.21l-.05-.82c6.2-3.08,49.32,1.83,59.94,2.14-59.12-31.16-128.75-84.35-138.09-154.51C81.58,681,144.68,556.27,212.13,465.58c-16.23-31.82-25.44-62.16-21.58-98.5,3.7-34.92,19-68.87,44.1-93.64,3.06-3,10.28-10.76,14.57-11,1.72,1,1.06.3,1.93,2.23,0,2.13-4.53,7.7-6,10.5-7.47,14.44-20,40-7.67,54.84,4.92,5.91,15.7-.78,19.59-5.69,8.11-10.42,9.81-25.26,12.92-38,9.86-40.36,30.32-79.58,61.9-107.13,4.14-3.62,18.85-16.17,23.58-15.62,2.15,2.33-.21,4.73-1.72,6.73-11.54,15.22-22,32.53-22.06,52.21-.09,20.19,16.88,28.28,33,16.4,17.35-12.79,20.94-33.63,28.47-52.53C414.45,133,464.08,95,518.14,78.82c5.38-1.6,23.61-7.35,28.19-5.58a4.3,4.3,0,0,1,1.14,2.92c-1.91,3.14-8.36,6.41-11.22,9-3.06,2.79-6.26,5.91-9.07,9-21.26,23.59-39.93,55.87-46.79,87C478.7,188.87,478.58,198.47,478.65,206.18Z" transform="translate(-50.34 -38)"/><path class="cls-2" d="M478.65,206.18c6.3-6.33,13-13.38,20.06-18.92,34.06-26.85,75-47.3,118.7-50.84a6.55,6.55,0,0,1,3.72.81c1,1.47.66.65.62,2.62-1.31,2.73-6.51,5.5-9,7.41-10,7.63-25.13,26.57-20,40.13,5.31,14,33,6.75,42.45,2.2,13.74-6.6,24.9-14.5,30.93-28.88,3.68-9.62,3.06-21.73,7.72-32,16.1-34.16,49.87-61.63,83.54-77.4a149.34,149.34,0,0,1,50-13c2.25-.16,6.81-.79,8.49.5v.89c-2,1.79-4.62,2.45-7,4a81,81,0,0,0-11.6,8.55c-35.22,32.39-51.4,65.39-53.88,113l-.09,2.2c5.8-10.25,13.79-24.29,21.45-33.29,27.95-32.79,70.18-60.37,111.79-71.61,24.77-6.68,58.56-9.94,83.42-5.33-37.31,6.64-84.61,37-106.62,68.3C799.6,201.78,875.1,270.4,803.17,341.18c42.73-26,71.18-75.82,74.94-125.21a4,4,0,0,1,.88-2c1.83-.47.9-.44,2.9.19,1.16,1.29,2.81,6.95,3.39,9,7.39,25.8,9.45,52.25,8.4,79-1.19,30.07-11.31,55.68-28.66,79.95-22.84,32-57.93,51.61-80.25,83.88-5,7.17-13.24,20.91-6.33,29.1a11.53,11.53,0,0,0,9.18,3.53c23.21-2.06,40.28-17.35,55.29-33.67,2.9-3.15,14-17.5,15.52-18.5l.85.28c.81,2.34,0,7.1-.39,9.61-9.22,53-39.27,96.77-65.28,142.61-4.58,8.25-30,49.56-14.31,54.89,13.8,4.68,44.14-13.49,57.88-17.68,6-1.82,38.66-13.77,42.27-10.34,0,.88.14,1.76-.77,2.28-12.48,7.2-22.58,16.21-33,26.19A457,457,0,0,0,759,769.06c-6.25,11.74-14.56,27.12-14.5,40.52l.36.58c15.11,23.49,77.69-22.86,87.53-39.78,1.4-2.41,2.71-7.08,5.22-7,1.12,1.12,1.21,1,1.6,2.52-1.46,8.21-5.31,16.85-8.27,24.65-12.88,33.93-28.6,60-59,81.28C714.87,911.67,616.05,934,547.39,945.21c-.57-3.6-.18-3.82,2.23-6.52,3.92-3.82,20-20.76,23.4-22.81,1.41-2.77,3-3.35,5.12-5.86,21.47-26.31,43.21-57.17,58.79-87.62,47.45-92.72,78.54-210.36,69.66-314.82-6.31-73.37-32-157.71-90.93-206.37C487.05,195,315.55,340.38,234.4,438.41a24.29,24.29,0,0,1-4.05,5c-4.89,5.45-9.1,11-13.58,16.78a18.3,18.3,0,0,1-4.64,5.42c-16.23-31.82-25.44-62.16-21.58-98.5,3.7-34.92,19-68.87,44.1-93.64,3.06-3,10.28-10.76,14.57-11,1.72,1,1.06.3,1.93,2.23,0,2.13-4.53,7.7-6,10.5-7.47,14.44-20,40-7.67,54.84,4.92,5.91,15.7-.78,19.59-5.69,8.11-10.42,9.81-25.26,12.92-38,9.86-40.36,30.32-79.58,61.9-107.13,4.14-3.62,18.85-16.17,23.58-15.62,2.15,2.33-.21,4.73-1.72,6.73-11.54,15.22-22,32.53-22.06,52.21-.09,20.19,16.88,28.28,33,16.4,17.35-12.79,20.94-33.63,28.47-52.53C414.45,133,464.08,95,518.14,78.82c5.38-1.6,23.61-7.35,28.19-5.58a4.3,4.3,0,0,1,1.14,2.92c-1.91,3.14-8.36,6.41-11.22,9-3.06,2.79-6.26,5.91-9.07,9-21.26,23.59-39.93,55.87-46.79,87C478.7,188.87,478.58,198.47,478.65,206.18Z" transform="translate(-50.34 -38)"/><path class="cls-3" d="M561.05,184.6c-1.19,5.39-2.54,12.26-1,17.78,11.69,42.41,68.54,38.29,98.18,18.82,26.26-17.25,33.43-42.27,39.11-71.36.57-2.91,1.26-6.1,2.06-9,2.5,6.59,7.82,19.44,9.58,25.88,5.18,18.92,2.67,45.5-5.11,63.53-1.88,4.38-8.17,10.19-7.67,13.58,1.45,1.6,3.53,1.61,5.55,1.69C738.26,247,756,207,772,180.64a159.79,159.79,0,0,1,28.46-35.1c-6.36,12.38-12.17,23.45-14.42,37.22-4.38,26.89,4.62,54.35,4.74,81.11.2,46-26.66,83.59-65.89,105.37-1.18.65-1.2,1.5-1.15,2.62,3.73,5.53,22.73,10.38,29.52,11.72,22.8,4.52,45.49-1.39,64.51-14.34,16.21-11,22.66-20.41,34.31-34.91-2.34,43.59-32.87,55.44-62.18,80.59-22.51,19.93-44,48.33-46.54,79.08-.86,10.28,2,23,9.09,30.52,14.1,14.93,31.5,12.68,48.33,5.06C795,539.23,789,548.81,783,558.25,766.63,584,746.3,612.57,744.38,644c-1.75,28.55,14.25,40.9,41.63,33.48-25.87,30.33-77.73,100.6-74.39,140.89.7,8.44,4,16.6,10.74,22,7.42,6,17.16,7.44,26.4,6.26a58.31,58.31,0,0,0,10.81-2.6c-42.28,30.5-91,47.14-141.36,58.76-9.56,2.2-30.2,6.7-40.07,7.18,21.47-26.31,43.21-57.17,58.79-87.62,47.45-92.72,78.54-210.36,69.66-314.82-6.31-73.37-32-157.71-90.93-206.37C487.05,195,315.55,340.38,234.4,438.41c-9-26.36-15-50.57-8.4-78.24,20.44,10.72,43.48,2.68,53.42-17.89,3.73-7.73,5.91-15.72,8.28-23.94,5.22-18.9,12.48-42.22,24.56-58,17.83,23.21,43.47,27,67.38,9.29,18.16-13.46,22.08-35.09,29.79-54.83,8.94-22.58,32.69-52.44,53.18-66.2-3.48,7.36-7.52,15.45-10,23.21-6.41,20.4-7.89,44.61-1.28,65.1,8,24.74,37.11-5.26,46.62-14.15C518,204,535.07,193.58,561.05,184.6Z" transform="translate(-50.34 -38)"/><path class="cls-4" d="M478.65,206.18c6.3-6.33,13-13.38,20.06-18.92,34.06-26.85,75-47.3,118.7-50.84a6.55,6.55,0,0,1,3.72.81c1,1.47.66.65.62,2.62-1.31,2.73-6.51,5.5-9,7.41-10,7.63-25.13,26.57-20,40.13,5.31,14,33,6.75,42.45,2.2,13.74-6.6,24.9-14.5,30.93-28.88,3.68-9.62,3.06-21.73,7.72-32,16.1-34.16,49.87-61.63,83.54-77.4a149.34,149.34,0,0,1,50-13c2.25-.16,6.81-.79,8.49.5v.89c-2,1.79-4.62,2.45-7,4a81,81,0,0,0-11.6,8.55c-35.22,32.39-51.4,65.39-53.88,113l-.09,2.2c5.8-10.25,13.79-24.29,21.45-33.29,27.95-32.79,70.18-60.37,111.79-71.61,24.77-6.68,58.56-9.94,83.42-5.33-37.31,6.64-84.61,37-106.62,68.3C799.6,201.78,875.1,270.4,803.17,341.18c42.73-26,71.18-75.82,74.94-125.21a4,4,0,0,1,.88-2c1.83-.47.9-.44,2.9.19,1.16,1.29,2.81,6.95,3.39,9,7.39,25.8,9.45,52.25,8.4,79-1.19,30.07-11.31,55.68-28.66,79.95-22.84,32-57.93,51.61-80.25,83.88-5,7.17-13.24,20.91-6.33,29.1a11.53,11.53,0,0,0,9.18,3.53c23.21-2.06,40.28-17.35,55.29-33.67,2.9-3.15,14-17.5,15.52-18.5l.85.28c.81,2.34,0,7.1-.39,9.61-9.22,53-39.27,96.77-65.28,142.61-4.58,8.25-30,49.56-14.31,54.89,13.8,4.68,44.14-13.49,57.88-17.68,6-1.82,38.66-13.77,42.27-10.34,0,.88.14,1.76-.77,2.28-12.48,7.2-22.58,16.21-33,26.19A457,457,0,0,0,759,769.06c-6.25,11.74-14.56,27.12-14.5,40.52l.36.58c15.11,23.49,77.69-22.86,87.53-39.78,1.4-2.41,2.71-7.08,5.22-7,1.12,1.12,1.21,1,1.6,2.52-1.46,8.21-5.31,16.85-8.27,24.65-12.88,33.93-28.6,60-59,81.28C714.87,911.67,616.05,934,547.39,945.21c-.57-3.6-.18-3.82,2.23-6.52,18.14-4.55,38-7.47,56.43-11.87C647,917,688.23,906.59,726.53,889c51.49-23.62,79.3-48.72,99.18-102.52l-6.85,6.27c-15.38,13.9-43.64,32.05-65,30.77-4.82-.28-10-1.56-13.24-5.4s-3.89-9.46-3.44-14.34c2.82-30.7,56.06-103.63,76.88-127.22a376.32,376.32,0,0,1,43.49-41.76c-6.06,1.89-12,4-18,6-17.77,6.38-33.41,15.49-52,19.81-15.76,3.67-23.22-7-20.13-21.93,3.3-16,12.88-30.63,20.63-44.86,12.23-22.47,26.44-44,38.18-66.8,8.61-16.89,19.73-44.94,24.28-63.13-13,16.62-32.92,35.92-54.07,40.21-6.77,1.37-14.47,2.14-20.58-1.84-3.51-2.29-7-7.28-7.24-11.36-2-30.54,44.38-64.84,64.28-84.25,10.85-10.58,18.31-17.67,26.76-29.22C892.39,332.91,890,286.08,882,235c-4.74,30.73-21.18,61.51-42.26,84.14-13.17,13.8-28.32,26-45.47,34.43-3.12,1.54-10.08,5.93-12.61,2.27-1.91-2.77,3.8-6.87,5.58-8.32,18-14.79,32.18-33.81,38.75-56.37,5.69-19.1,3.85-35.33,2-54.65-2.72-28.13-5.37-58.06,4.21-85.22s28.54-48.76,51.47-65.61c13.58-10,28.5-17.59,43.74-24.76-5.65.42-11.46.77-17.1,1.48-63.73,7.94-127,47.35-158.65,103.79-5.52,9.87-5.6,20-8.17,30.52-.29,1.2-1.38,1.39-2.3,1.64-1-.29-2.71-1-3-1.94-4-14.43-2.19-29.5-.91-44.19C740.86,110.8,762.44,72,794.93,46c-35.32,7.49-60.47,22.59-86,47.51-11.34,11.07-22.94,22.86-28.66,38.16-7.35,19.66-1.55,30.94-18.16,48-13.9,14.25-31.84,21.71-51.82,22.91-6.74.3-16.16-1.42-20.74-6.9-13.78-16.52,4.51-40.69,15.87-51.32-39.75,7.45-77.21,27.36-108.21,53.13a96.62,96.62,0,0,0-10.41,10.42c-3.21,3.58-6.42,9-10.37,11.48-4.5-.86-4.76-9.93-4.87-13.59-1.32-46.65,26.75-89.69,56.6-122.95-5.45,1.6-11.8,3.35-17.12,5.32-45,16.62-85.27,46.42-106.78,90.23-7,15.42-11,28-17.57,44.17-10.13,25-47.95,45-60.56,10.1-5.31-14.71,2.76-34.85,10.53-48.82-26.49,24.06-44.74,54.48-55.28,88.65-4.21,13.65-7,27.24-10.61,40.81-3.1,9.86-8.57,18.74-17.91,23.61s-20.78,2.86-24.77-7.89c-6-16.08-.41-31.29,6-46.29C217.84,301.39,208.68,319.24,202,343c-9,31.83-7.15,62.39,4.26,93.19,3.2,8.63,5.92,15.8,10.55,24a18.3,18.3,0,0,1-4.64,5.42c-16.23-31.82-25.44-62.16-21.58-98.5,3.7-34.92,19-68.87,44.1-93.64,3.06-3,10.28-10.76,14.57-11,1.72,1,1.06.3,1.93,2.23,0,2.13-4.53,7.7-6,10.5-7.47,14.44-20,40-7.67,54.84,4.92,5.91,15.7-.78,19.59-5.69,8.11-10.42,9.81-25.26,12.92-38,9.86-40.36,30.32-79.58,61.9-107.13,4.14-3.62,18.85-16.17,23.58-15.62,2.15,2.33-.21,4.73-1.72,6.73-11.54,15.22-22,32.53-22.06,52.21-.09,20.19,16.88,28.28,33,16.4,17.35-12.79,20.94-33.63,28.47-52.53C414.45,133,464.08,95,518.14,78.82c5.38-1.6,23.61-7.35,28.19-5.58a4.3,4.3,0,0,1,1.14,2.92c-1.91,3.14-8.36,6.41-11.22,9-3.06,2.79-6.26,5.91-9.07,9-21.26,23.59-39.93,55.87-46.79,87C478.7,188.87,478.58,198.47,478.65,206.18Z" transform="translate(-50.34 -38)"/><path class="cls-4" d="M703.45,241.07c7.47-.78,13.66-1.81,20-5.94,20.2-13.11,30.49-33.89,42.11-54,9.36-16.16,23.64-32.24,37.84-44.24,2.73-2.31,8.32-7.35,11.76-6,1.49,2.62-7.11,13.48-9,16.05-22.79,30.66-16.47,64.23-11.3,99.08,6.94,53.56-17.84,97.29-63.5,125.31,21.92,9.41,42.46,12.34,65.16,3.27,24.13-9.64,42.31-28.74,56-50.3a3.11,3.11,0,0,1,2.17-1.24c.89.45,1.88.83,2,2,1.83,15.49-2.55,33.49-10.93,46.21-11.88,18-28.82,28.74-45.43,41.56-19.62,15.32-37.6,35.7-46.81,59.05-4.38,11.1-6.65,23.6-4.31,35.28,3.93,19.58,21.8,26.08,39.51,21.31a41.7,41.7,0,0,0,9.34-3.36c3.24-1.74,7.92-6.91,11.59-6.67,1.23,1,.75.34,1.15,2.17-1.39,6-8,14.67-11.29,20.66-18.71,33.78-49.32,66.32-50.31,106.68-.27,10.91,4.32,24.31,15.88,26.27,10.69,2.11,19.1-2.13,29.1-4.6.53-.13,1.91,1.59,2.21,2-17,21.45-34,42.92-49,66.38-14.31,22.44-31.87,53.76-30.62,81.29.73,16,17.3,24.6,31.58,22.17,2.31-.31,4.67-.68,7-1.08,5.57-1,13.6-6.64,19.1-6.29l.71.59c-.6,8-33.26,26.93-41.41,31.45-47,26.08-99.19,40.41-152,48.53-2.91.44-5.87.86-8.8,1.13,1.41-2.77,3-3.35,5.12-5.86,9.87-.48,30.51-5,40.07-7.18,50.39-11.62,99.08-28.26,141.36-58.76a58.31,58.31,0,0,1-10.81,2.6c-9.24,1.18-19-.27-26.4-6.26-6.72-5.42-10-13.58-10.74-22-3.34-40.29,48.52-110.56,74.39-140.89-27.38,7.42-43.38-4.93-41.63-33.48,1.92-31.46,22.25-60,38.6-85.78,6-9.44,12-19,17.83-28.67-16.83,7.62-34.23,9.87-48.33-5.06-7.1-7.53-10-20.24-9.09-30.52,2.58-30.75,24-59.15,46.54-79.08,29.31-25.15,59.84-37,62.18-80.59-11.65,14.5-18.1,23.88-34.31,34.91-19,12.95-41.71,18.86-64.51,14.34-6.79-1.34-25.79-6.19-29.52-11.72,0-1.12,0-2,1.15-2.62,39.23-21.78,66.09-59.36,65.89-105.37-.12-26.76-9.12-54.22-4.74-81.11,2.25-13.77,8.06-24.84,14.42-37.22A159.79,159.79,0,0,0,772,180.64C756,207,738.26,247,701.73,245.56c-2-.08-4.1-.09-5.55-1.69-.5-3.39,5.79-9.2,7.67-13.58,7.78-18,10.29-44.61,5.11-63.53-1.76-6.44-7.08-19.29-9.58-25.88-.8,2.86-1.49,6.05-2.06,9-5.68,29.09-12.85,54.11-39.11,71.36-29.64,19.47-86.49,23.59-98.18-18.82-1.52-5.52-.17-12.39,1-17.78-26,9-43,19.43-63.07,38.16-9.51,8.89-38.64,38.89-46.62,14.15-6.61-20.49-5.13-44.7,1.28-65.1,2.45-7.76,6.49-15.85,10-23.21-20.49,13.76-44.24,43.62-53.18,66.2-7.71,19.74-11.63,41.37-29.79,54.83-23.91,17.72-49.55,13.92-67.38-9.29-12.08,15.78-19.34,39.1-24.56,58-2.37,8.22-4.55,16.21-8.28,23.94-9.94,20.57-33,28.61-53.42,17.89-6.57,27.67-.59,51.88,8.4,78.24a24.29,24.29,0,0,1-4.05,5c-9-28.57-19.23-63.2-5.54-91.73,3,2.58,7.05,6,10.92,6.91,31.17,7.67,42.27-20.48,48.09-45.26,3.92-16.75,16.14-50.41,29.47-61.3,3.81,6,6.92,10.85,12.57,15.4,14.12,11.39,32.57,10,47.42.64,23.12-14.6,24.57-43.43,36.63-65.7,11.46-21.16,26.13-39.38,45-54.4,2.91-2.31,12.12-9.55,15.86-8.64A3.6,3.6,0,0,1,471,143c-2.07,5.59-6.06,10.51-8.3,16-7.9,19.48-12.23,40.93-9.71,62,.62,5.19,2.22,17.82,8.09,19.93,2.89,1,7.76-1.07,10.22-2.58,7.36-4.51,14.87-11.74,21.27-17.6,17.62-16.13,36-30.25,58.92-38,4-1.33,12.3-4.45,16.35-4,2.37,1.79-.33,5.28-1.12,7.89-8.67,28.67,20.45,44.65,44.53,43.56,41.22-1.88,69.4-25.22,77.36-65.72,1.83-9.3,4.16-19.76,6.81-28.94.55-1.71,2.09-2,3.48-2.16a37.84,37.84,0,0,1,3.56,1.44c13.88,19.77,16.64,51.3,12.59,74.68C712.69,223.12,709.7,229.33,703.45,241.07Z" transform="translate(-50.34 -38)"/><path class="cls-5" d="M437.33,986c-1.48.11-3.38.28-4.55-.49,1.8-.79,3.26-.55,5.25-.5Z" transform="translate(-50.34 -38)"/><path class="cls-6" d="M494.66,276.52c48.85-6.2,87.83,8.74,122.91,42.37,68.45,63.22,85.06,185.45,75.95,273.37-.62,6-1.06,13.58-2.31,19.38,1.4,2,.69,6.19-.55,7.91l-.29-.54c-4,23.5-8.21,47.58-14.49,70.59-18.3,67-46,133.07-87.74,188.92-25.74,34.45-61,74.1-103.31,87.16-7-8.45-17.44-20.62-26.6-27.75-49.08-38.22-113.35-70.64-175.58-78.68-3-.39-7.13-.47-10.11-.54,2.88,1.35,11.16,2.23,14.87,3.11,11.16,2.63,22.35,5.16,33.29,8.67,47.7,16.84,93.4,40.17,133.17,71.61,8.59,6.79,18.32,17.29,25.55,25.07-9.37,2.12-26.28,5.7-36.12,6.62-74.92,7-161.79-3.92-226.62-44.47-4-2.49-14.52-9.08-17.74-11.66C185.73,910.83,140,870,134,856.21c-2.7-.43-3.25-3-3.9-5.29-12-19.27-18.77-37.89-22.33-60.32-.9-5.65-.75-12.24-1.71-17.77l-.07-.42c-.78-1.18-.85-4.46,0-5.69.89-4.53.16-10.32.5-15a438.2,438.2,0,0,1,16.47-90c3-10.57,6.93-21,10.33-31.43,5.47-1.62,13.17-2.62,18.92-3.5,10.16-.92,16.16-.48,26.17-.35-9.94-5.66-15.93-5.07-27.14-5a110,110,0,0,0-15.31,3,84.67,84.67,0,0,1,3.37-8.85c21.22-51.8,49.89-100.26,83.93-144.64,2.67-3.48,5.92-8.44,9.52-10.81,3.87-.46,7-.64,10.86-.8,2.16-1,10.54.72,13.86-.82-.88-1.29-1.7-1.14-3.61-1.75-6-2-11.67-2.31-17.92-2.33,13.46-15.28,26.4-31,40.56-45.67a51,51,0,0,1,6.42-6.13c7.49-.66,11.23-1.4,19-1.25l-.22-.43c-1-.14-2.92-.21-4-.29a19.6,19.6,0,0,1,1.87-1.38,3.46,3.46,0,0,0-.33-2.79l-1.27-.38c-3.14.29-6.2.83-9.3,1.33C337.94,348.94,391,308,457.34,285.14c9.21-3.17,17.71-4.51,27-6.92,5.32,2.5,10.67,5.59,15.77,8.53a94.2,94.2,0,0,1,17.26,12.46c5.29,4.73,9.95,10.66,16.14,14-5-12.55-12.45-18.21-22.41-26.42C505.67,283.4,500.14,279.6,494.66,276.52Z" transform="translate(-50.34 -38)"/><path class="cls-7" d="M232.8,460.19c3.87-.46,7-.64,10.86-.8,2.92.22,5.43,0,8.27.15l-.39.59c-2.56,3.89-5.78,7.94-8.67,11.59-35.84,45.36-66.4,94.93-88,148.65-.28.7-2.87,1-3.56,1.08a110,110,0,0,0-15.31,3,84.67,84.67,0,0,1,3.37-8.85c21.22-51.8,49.89-100.26,83.93-144.64C226,467.52,229.2,462.56,232.8,460.19Z" transform="translate(-50.34 -38)"/><path class="cls-7" d="M288.76,397.5C337.94,348.94,391,308,457.34,285.14c9.21-3.17,17.71-4.51,27-6.92,5.32,2.5,10.67,5.59,15.77,8.53l-.86.28c-5.05,1.57-12,2-17.3,3.33-21,5.06-41.25,12.69-61.21,21-11,4.57-18.66,10.62-28.29,17.32-28.19,19.59-59.78,42.44-83.41,67.24-2,0-9.64-.35-10.93.28C294.92,396.46,291.86,397,288.76,397.5Z" transform="translate(-50.34 -38)"/><path class="cls-7" d="M133.34,630.29c5.47-1.62,13.17-2.62,18.92-3.5-17,44.48-32.73,90.75-32.22,139-5.45-.49-8.59.08-14,1,.89-4.53.16-10.32.5-15a438.2,438.2,0,0,1,16.47-90C126.06,651.15,129.94,640.76,133.34,630.29Z" transform="translate(-50.34 -38)"/><path class="cls-7" d="M106,766.72c5.41-.9,8.55-1.47,14-1a45.66,45.66,0,0,0,6.39,1l-6.71,1.6c.73,28.49,6.79,57.37,23.48,81.07l-13.06,1.52c-12-19.27-18.77-37.89-22.33-60.32-.9-5.65-.75-12.24-1.71-17.77l-.07-.42C105.25,771.23,105.18,768,106,766.72Z" transform="translate(-50.34 -38)"/><path class="cls-8" d="M106,766.72c5.41-.9,8.55-1.47,14-1a45.66,45.66,0,0,0,6.39,1l-6.71,1.6c-4.58,1.66-9,2.81-13.69,4.08C105.25,771.23,105.18,768,106,766.72Z" transform="translate(-50.34 -38)"/><path class="cls-7" d="M283,402.69c7.49-.66,11.23-1.4,19-1.25l.71.81c-2.1,3.2-7.49,8.22-10.33,11.16-10.57,10.94-21,21.86-30.6,33.72-2.34,2.9-5.31,7.12-7.88,9.69-6-2-11.67-2.31-17.92-2.33,13.46-15.28,26.4-31,40.56-45.67A51,51,0,0,1,283,402.69Z" transform="translate(-50.34 -38)"/><path class="cls-7" d="M494.66,276.52c48.85-6.2,87.83,8.74,122.91,42.37-.65.16-1.94.5-2.55.08-24.18-17.06-50.69-31.27-81-32.39-8.11-.29-14.73-1-23,.19C505.67,283.4,500.14,279.6,494.66,276.52Z" transform="translate(-50.34 -38)"/><path class="cls-7" d="M134,856.21c3.28-.65,8.15-1.07,11.58-1.46,4.92,6,9.64,12.34,14.29,18.49,10.32,13.64,21.15,26.5,33.74,38.1a37.52,37.52,0,0,1,5.47,5.8l-.18.52C185.73,910.83,140,870,134,856.21Z" transform="translate(-50.34 -38)"/><path class="cls-1" d="M143.2,849.4c16.87-1.1,38.39-.57,54.18,5.1a129.08,129.08,0,0,1-13.91-.35c-12.73-1.07-25.14-.37-37.85.6-3.43.39-8.3.81-11.58,1.46-2.7-.43-3.25-3-3.9-5.29Z" transform="translate(-50.34 -38)"/><path class="cls-8" d="M660.22,582.78c12.39,7.31,22.57,17.29,31,28.86,1.4,2,.69,6.19-.55,7.91l-.29-.54C680.38,606.42,669.72,595.5,660.22,582.78Z" transform="translate(-50.34 -38)"/><path class="cls-8" d="M299.33,396.55c12.62-1,27.45,1.81,37.75,9.38-7.23-1.21-14-2.6-21.32-3.61-3.56-.49-11.21-.73-14-1.31-1-.14-2.92-.21-4-.29a19.6,19.6,0,0,1,1.87-1.38A3.46,3.46,0,0,0,299.33,396.55Z" transform="translate(-50.34 -38)"/><path class="cls-1" d="M300.48,593.22l.56,0c71.76-3.89,125.17,48.86,129.07,119.11,1.08,19.48-4.79,51.79-29.16,53.69-12.32,1-23.47-10.71-31.62-18.5-23.61-23.74-44.44-41.44-78.32-48.92-8.11-1.79-15.46-3.09-23.93-4.13-12-1.48-26.52.29-36.34-8.26-18.36-17.58-7.73-48.47,6.62-64.55C254.33,602.62,276.06,594.64,300.48,593.22Z" transform="translate(-50.34 -38)"/><path class="cls-9" d="M288.12,603.08c1.23-.16.8-.22,2,.27,2.07,4.08,4.17,30.88,4.67,36.61,20.58,3.5,46.71,11.1,67.13,16.39,14.9,3.86,35.59,9.54,49.59,14.89a117.06,117.06,0,0,1,8.94,36.59c1,13.15.16,33.22-9.16,43.71-12.65,14.24-28.35-2.22-37-10.9,9.74-10.27,11-30.12,9.11-43.37-4.61-30.61-35-40.89-58-20-1.37-6.56-2.44-13-6.31-18.63-10.38-15-29.66-15.88-43.6-5.36-11.59,8.75-17.39,18.59-19.69,32.81-5-.58-10.2-1.11-14.77-3.51-16.13-8.57-12.06-30.74-4.7-43.82,7.06-12.54,18.72-22.1,31.5-28.37A118.53,118.53,0,0,1,288.12,603.08Z" transform="translate(-50.34 -38)"/><path class="cls-10" d="M291.64,653.59c16.64-1.43,25.42,7.71,27.14,23.67.31,2.86.1,7.77,1.08,10.26a1.73,1.73,0,0,0,2.06-.26c7.31-5.43,12.7-10.18,21.57-13.17,15-5.06,28.31,5.54,32.12,19.68s1.89,31.2-5.22,44l-2.7-2.34c-24.64-23.34-44.13-37.29-78.43-44.91-9.22-2-18.09-2.86-27.27-4.53C266.05,670.35,274.86,657,291.64,653.59Z" transform="translate(-50.34 -38)"/><path class="cls-11" d="M297.34,601.5c17.82-.23,35.27,1,52.09,7.55.05,4.56.11,21.22,1.28,24.58l.62.22c2-3.34,3.14-17.71,3.89-22.67,18.48,6.93,32.91,21.75,44.39,37.25a103.21,103.21,0,0,1,8.8,14.56c-15.35-5-33.88-9.86-49.51-14-17.93-4.79-39.67-10.64-57.84-13.3C299.65,625.05,298.56,612.38,297.34,601.5Z" transform="translate(-50.34 -38)"/><path class="cls-1" d="M514.12,431.69c40.7-3.62,59.47,32.1,54.36,68.2-4.56,32.3-23.21,62.91-48.4,83.35-19.1,15.49-49.56,26.89-72.51,13.18-6.72-4-10.92-9.12-15.63-15.23,7.17,15.61,18.37,24,34.54,28.9A67.41,67.41,0,0,0,511.17,605c2-1,4-1.88,6.08-2.76l-.36.34c-18.33,17.55-53,18.9-72.77,3-7.64-6.12-15.25-15.53-18.62-24.8C404.22,522.26,451.86,439.2,514.12,431.69Z" transform="translate(-50.34 -38)"/><path class="cls-11" d="M514.29,441.18c23.05-2.53,40.84,14,43.82,36.4,3.61,27.12-7.43,53.94-23.51,75.3-15.17,20.14-32.53,35.34-58.26,39.06-44.23,2.39-51.74-38.76-41.74-73.67S477,446.16,514.29,441.18Z" transform="translate(-50.34 -38)"/><path class="cls-1" d="M507.48,493.54c12.37.13,11.46,13.13,7.74,21.35-4.49,9.9-9.68,15.72-19.73,19.91C472.92,537,487.58,498.61,507.48,493.54Z" transform="translate(-50.34 -38)"/><path class="cls-11" d="M507.54,498.44c8.53.18,8.67,8.32,2.32,12.66C501.56,510.88,501.14,502.91,507.54,498.44Z" transform="translate(-50.34 -38)"/><path class="cls-1" d="M334.56,544.49c-12.08-3.27-20.35-6.1-27.15-17.86-8.94-15.84-6.86-35.47-2.13-52.17,8.78-31,29.46-62.15,57.64-78.33,20.21-11.6,46.75-11.94,58.81,10.75,9.43,17.72,6.2,37.27.76,55.87-11.17,35.95-42.53,73.87-75.31,92.43-12.66,7.18-33.09,14-47.42,9.75-1.39-.41-1.59-.39-2.23-1.45,1.86-1.59,12-2.33,15.21-2.93,10.5-1.93,18.81-5.53,28.4-9.84l-.28-1a64.55,64.55,0,0,1-12.11,2.53C302.6,554.41,284.49,538,285.43,512c3.31,9.84,4.84,16.61,12.75,24.17C309.19,546.68,320.44,546.7,334.56,544.49Z" transform="translate(-50.34 -38)"/><path class="cls-9" d="M340.86,549.76c1.54-.75,4-2.16,5.55-2.12-1.56,1.51-3.29,2.13-5.27,3.07Z" transform="translate(-50.34 -38)"/><path class="cls-11" d="M386.83,397.19c17.75-1.87,29.71,11.33,31.23,28,2.65,29.18-12.48,59.74-30,82.23-11.86,15.21-25.52,27.65-45.13,29.89-18.82.65-29.71-10.88-31.33-29.17-3.21-36.1,15.58-73.18,43.13-95.81C364.2,404.56,374.52,398.71,386.83,397.19Z" transform="translate(-50.34 -38)"/><path class="cls-1" d="M387.78,443.05c20.2-.26,9.16,33.06-7.65,39.19C362.69,485.28,367.1,449.83,387.78,443.05Z" transform="translate(-50.34 -38)"/><path class="cls-11" d="M387.74,449c8.14.12,8.56,8,1.15,11.46C379.87,459.79,380.74,453,387.74,449Z" transform="translate(-50.34 -38)"/><path class="cls-1" d="M621.82,698.74a2.77,2.77,0,0,1,1.19,2.68c.77,49.49-21.27,99.08-52.11,136.88,3.88,22.77-9,52.06-31,62-20.9,9.43-58.29,1.5-45.89-29-5.28-1.43-8.85-2.7-13.1-6.49-10.74-9.55-8.74-24.63.83-34.15,7-7,16.43-10.19,26.21-10.17,22.44-17.44,45.53-58.58,58.48-83.76,2.11-4.1,10.58-21.75,12.75-24l.82.07c3.16,7.76-15.07,44.53-19.48,52.76C550.67,783.44,531,816,512.9,827.3c-9,3.37-19.11,2.85-26.15,10.59-4.93,5.43-7.16,15.63.14,20.89,9.75,7,19.76,3,28.83-2.83,1.29-.84,4.65-3,6.09-3.15,3.92,4.13-14.69,16.19-16.94,17.93-5.4,3.59-7,15.42-2.09,19.49,9.33,7.67,29.67-12.16,35.13-19,3.23-4,5.34-8.47,8.51-11.56l.74.08c.73,4.06-3,11.1-5.2,14.59C536.11,883.76,527,889.7,518.2,896c22.65-1,34-10.91,41.92-32.32,3.88-10.44,3-17.49,2.24-28.39,2.07-3,5-5.85,7.23-8.79,24.51-31.55,39.48-71,47.83-109.77,1.21-5.61,2.24-12,4.16-17.31Z" transform="translate(-50.34 -38)"/><path class="cls-1" d="M543.29,355.43c13,2.77,26.24,15.6,33.48,26.19,11.05,16.05,17.08,35.83,19,55.12.32,3.26,1.86,10.44-1.25,12.16-2.67-.84-5.36-6.13-6.92-8.65-8.35-13-22.08-27.63-34.52-36.38a118.44,118.44,0,0,0-15.42-9c-2.43-1.25-10-4.15-11.11-6.46C526.74,382.09,539.08,361,543.29,355.43Z" transform="translate(-50.34 -38)"/><path class="cls-8" d="M452.82,305.71c8.3-.71,14.69-.38,22.29,3-2.21,7.22-9.72,26.61-13.4,32.62-27.41-6.4-47.26-1.8-72.82,8.66-6.39,2.63-12.89,5.65-19.21,8.5,5.42-8.15,12.38-15.15,18.9-22.39C405.6,317.19,427.57,307.37,452.82,305.71Z" transform="translate(-50.34 -38)"/><path class="cls-8" d="M632.76,449.39c8.38.52,13.4,15.19,15.66,21.95,6.31,19,4.2,44.21-20.21,46.68-32.12-3.74-16.68-38.86-6-55.69C625.65,456.86,627.41,453.35,632.76,449.39Z" transform="translate(-50.34 -38)"/><path class="cls-12" d="M627.56,464c.12-3.5,3.52-7.29,6.37-9.08,8.22,8.25,11.2,23.33,12.21,34.44,2.34,26-32.19,33.56-31.77,6.69C614.52,486.39,622.52,472.14,627.56,464Z" transform="translate(-50.34 -38)"/><path class="cls-13" d="M627.56,464c.12-3.5,3.52-7.29,6.37-9.08-2.11,7,1.82,28-3.39,33.91-1.53.36-.75.4-2.36-.46C626.25,485.06,628.22,469.84,627.56,464Z" transform="translate(-50.34 -38)"/><path class="cls-8" d="M613.24,523c7.24.84,8.07,12.16,9.72,18.07,4.56,16.3,6.29,47.62-20.06,42.45l-.59-.24c-24.93-10.56-7.77-41.09,3.47-54.78A15.16,15.16,0,0,1,613.24,523Z" transform="translate(-50.34 -38)"/><path class="cls-12" d="M612.68,528.81l1,.43c4,7.8,7.7,28.94,6.25,37.82-1.48,9.06-6.91,13.06-16,11.11-17.53-8.92-6.36-28,.94-39.7A52.68,52.68,0,0,1,612.68,528.81Z" transform="translate(-50.34 -38)"/><path class="cls-13" d="M606,541.2a3.77,3.77,0,0,1,2.18,3.46c.31,6.41.65,17.69-3.09,23.08l-1.47-.89C600.74,562.64,602.2,545.33,606,541.2Z" transform="translate(-50.34 -38)"/><path class="cls-8" d="M608.65,594.41c10.69-.58,14.76,16.64,17.17,24.52,4.41,14.47-3.36,26.77-18.19,30a19.22,19.22,0,0,1-10-1.82C579.07,637.15,598.41,602.65,608.65,594.41Z" transform="translate(-50.34 -38)"/><path class="cls-12" d="M610.77,599.28c7.47,5.51,10.87,23.89,10.7,32.73-3.81,6.69-7.87,9.78-15.24,11.64C582.9,641.32,602.93,607.66,610.77,599.28Z" transform="translate(-50.34 -38)"/><path class="cls-13" d="M605.85,611.23c1.92.37,3.11.45,3.48,2.7,1,5.81-.17,16.41-3.11,21.36-2.83-.93-3.81-2.3-3.69-5.33C602.76,623.88,604.57,617.14,605.85,611.23Z" transform="translate(-50.34 -38)"/><path class="cls-1" d="M321,923.57c14.08-.88,32.05,6.9,38.32,20.53,2.69,5.84-3.35,10.69-8.51,12.4C326.67,957.86,294.79,930.05,321,923.57Z" transform="translate(-50.34 -38)"/><path class="cls-14" d="M320.49,927.08c12.41-1.48,27.25,4.86,34.4,15.17,3.28,4.72.41,8.82-4.13,11-12.32,1.14-29.33-6.84-35.56-17.91C312.87,931.19,317.22,928.37,320.49,927.08Z" transform="translate(-50.34 -38)"/><path class="cls-1" d="M244.26,892.67c13.87-.18,38.85,17.61,17,23.64a30.16,30.16,0,0,1-11.46-2.63C240.92,910.16,225.15,895.54,244.26,892.67Z" transform="translate(-50.34 -38)"/><path class="cls-14" d="M242.71,896.09c7.6-.28,17,3.16,22.29,8.83,3.25,3.51.93,6.36-2.41,8.33-7.3.79-26-7.32-23.62-15.21C240.22,896.57,240.84,896.58,242.71,896.09Z" transform="translate(-50.34 -38)"/><path class="cls-1" d="M564,326.08c17.21-1,35.63,19.52,18.38,25.4C570.07,351.16,545.7,333.79,564,326.08Z" transform="translate(-50.34 -38)"/><path class="cls-14" d="M565.05,329.51c8.8-.17,28.37,11.08,17.45,18.72C575.54,347.7,552.41,335.89,565.05,329.51Z" transform="translate(-50.34 -38)"/><path class="cls-8" d="M536.32,687.59c16.6-.81,15.73,20.54-1.81,25.53C516.67,715.62,518.22,693.46,536.32,687.59Z" transform="translate(-50.34 -38)"/><path class="cls-14" d="M536.13,690.59c13.91-1,11.47,16.32-2.38,19.87C517.69,710.69,524.76,695.26,536.13,690.59Z" transform="translate(-50.34 -38)"/><path class="cls-1" d="M216.69,564.11c17.58-1.75,15.72,21-1.06,25.33C197.36,590.18,200.94,569.55,216.69,564.11Z" transform="translate(-50.34 -38)"/><path class="cls-14" d="M217.82,567.56c12.63-.54,8.76,14.61-2.58,18.55C201.7,586.44,205.21,571.25,217.82,567.56Z" transform="translate(-50.34 -38)"/><path class="cls-8" d="M667.51,542.15c13.73,1.08,23,23,9.33,29.5C662.19,571.62,653.39,545.23,667.51,542.15Z" transform="translate(-50.34 -38)"/><path class="cls-14" d="M666.86,544.91c10.31.38,19,15.82,9.67,23.73C666.75,568.73,658.52,552.52,666.86,544.91Z" transform="translate(-50.34 -38)"/><path class="cls-1" d="M628.47,386.5C643,386,656,408.18,642.1,414,630.46,414.2,614,394.72,628.47,386.5Z" transform="translate(-50.34 -38)"/><path class="cls-14" d="M628.28,390.47c3.24-.11,4.47-.12,7.25,1.61,5.81,3.61,12.45,12.15,6.33,18.3C633.89,410.15,621.47,397.64,628.28,390.47Z" transform="translate(-50.34 -38)"/><path class="cls-1" d="M410.36,562.76c1.74,2.3,3.24,10,4.47,13.26,8.17,21.76,25.07,41.66,46,52,3.12,1.53,15,4.87,16.35,6.44-15,2.81-33.89-7.91-43.81-18.49C420.13,601.78,410.11,582.5,410.36,562.76Z" transform="translate(-50.34 -38)"/><path class="cls-1" d="M392.06,820.57c12.91-.74,23.16,15,8.56,21.64C386.6,845.19,378.07,826.39,392.06,820.57Z" transform="translate(-50.34 -38)"/><path class="cls-14" d="M392,824c9.75-.7,18,9.09,8.28,15.25C389.22,841.18,382.92,829.43,392,824Z" transform="translate(-50.34 -38)"/><path class="cls-8" d="M345.4,565.58c19.28-.61,34.28,5.38,47.39,19.91,1.17,1.3,3.08,3,3,4.73l-1.13-.14c-11.85-6.61-24.54-13-37.51-16.93-3.37-1-14.46-2.15-14.8-5.46C343.15,566.39,344,566.21,345.4,565.58Z" transform="translate(-50.34 -38)"/><path class="cls-1" d="M166.55,779c12.8-.35,15.73,15.16,1.62,19.47C154.63,798.86,154.38,784.11,166.55,779Z" transform="translate(-50.34 -38)"/><path class="cls-14" d="M167.12,782c9.84.52,9.65,9.46.83,13.52C157.54,795.74,158.6,786,167.12,782Z" transform="translate(-50.34 -38)"/><path class="cls-1" d="M291.45,714.09c10.49.3,19.68,6,26.38,13.84,3,3.51,10.12,13.17,5,16.8-7-7.64-10.8-13.2-19.73-19.68-3.2-2.32-12.56-6.54-13.53-8.53C290,715,290.17,715.1,291.45,714.09Z" transform="translate(-50.34 -38)"/><path class="cls-1" d="M535.67,419.43a44,44,0,0,1,15.69,2.08c16,5.22,30.78,22.78,29.51,40.09-.88-1-2.3-4.65-2.94-6C568.24,434.63,556.13,427.14,535.67,419.43Z" transform="translate(-50.34 -38)"/><path class="cls-8" d="M396.79,363.17c13.78-1.92,24.94,3,34.36,12.78-5.49-2.33-10.07-4.14-15.7-6.11-17.23-4.39-23-1.41-39.15,0C383.36,366.58,389.1,364.18,396.79,363.17Z" transform="translate(-50.34 -38)"/><path class="cls-8" d="M467.56,923.21a4.21,4.21,0,1,1-3.11,3.07A4.21,4.21,0,0,1,467.56,923.21Z" transform="translate(-50.34 -38)"/><path class="cls-7" d="M467.2,925.25a2.14,2.14,0,1,1-1.06,1.93A2.12,2.12,0,0,1,467.2,925.25Z" transform="translate(-50.34 -38)"/><path class="cls-13" d="M420.06,951.32a4.2,4.2,0,1,1-2.11,5.42A4.2,4.2,0,0,1,420.06,951.32Z" transform="translate(-50.34 -38)"/><path class="cls-7" d="M420.52,952.86a2.49,2.49,0,1,1-1.22,2.27A2.5,2.5,0,0,1,420.52,952.86Z" transform="translate(-50.34 -38)"/><path class="cls-8" d="M187.73,728.91a4.51,4.51,0,0,1,4.24,1.23c1.31,3.35-.28,4.69-2.84,6.69-2,0-1.88,0-3.55-1C183.65,732.67,185.32,731,187.73,728.91Z" transform="translate(-50.34 -38)"/><path class="cls-13" d="M460.12,733.29c3.79,2.61,5.46,6.32.28,8.74C454.17,740.24,456.9,736.28,460.12,733.29Z" transform="translate(-50.34 -38)"/><path class="cls-13" d="M275.84,790.27a4.26,4.26,0,0,1,2.41.8c1.94,2.93.16,4.53-2,6.59-2-.8-2.75-1.1-3.41-3.13C273.25,792.68,274.52,791.66,275.84,790.27Z" transform="translate(-50.34 -38)"/><path class="cls-4" d="M927.42,521c5.58,1.27,3.48,7.77,3.57,12.29.58,27.26-12.82,52.43-37.12,65.43-13.85,7.4-28.9,9.41-44.24,12.07l-.16,0c-1.34-.28-2-.31-2.62-1.67-1.67-3.51-.32-12,.47-15.8,9.52-45.59,67.55-41.49,78.12-68.11a34.45,34.45,0,0,1,1.74-3.75Z" transform="translate(-50.34 -38)"/><path class="cls-2" d="M924.39,536.43l.54.81c-.18,10.16-5.72,26.08-11.63,34.5-16.35,23.33-35.53,27-61.15,31.87a7.36,7.36,0,0,1-.48-4.24c1.22-15.91,13.94-31.42,27.94-38.48C896.66,552.28,909.39,549.57,924.39,536.43Z" transform="translate(-50.34 -38)"/><path class="cls-4" d="M321.89,73.82a7.7,7.7,0,0,1,2.52,1.35c.42,1,.88,2,.14,3-5.65,7.56-11.05,15.49-11.71,25.38-1.14,17,10.43,28.88,4,46.47-4.27,11.66-10.14,17.2-18.19,26.44-2.42,3-1.69,5.78-5.05,7.47-2.15-.12-2-.17-3.91-1.31-9.55-9-12.91-19.36-12.2-32.38,1.26-23.1,16.12-42.51,30-59.86C312,84.89,316.68,78.53,321.89,73.82Z" transform="translate(-50.34 -38)"/><path class="cls-2" d="M305.84,102.9c-.88,13.1,1,15.29,4.86,27.87,3,9.7-.21,20.72-6.49,28.34-5.84,7.08-7.79,7.35-12.58,16-4.21-4.95-5.95-10.7-6.8-17.06C282.18,138.21,294.18,118.08,305.84,102.9Z" transform="translate(-50.34 -38)"/><path class="cls-4" d="M217.12,170.87a10,10,0,0,1,3.48.45c3,4.15,7.29,26.71,7.9,32.35,3.22,29.84-10.14,45.53-32.51,63.46-5.76-.88-8.42-11.77-9.6-16.83-5.21-22.34,19.49-35,25.78-54.25A61.58,61.58,0,0,0,215.08,185C216,180.06,214.8,174.43,217.12,170.87Z" transform="translate(-50.34 -38)"/><path class="cls-2" d="M220.17,192.32c5.51,11.2,1.79,38-6.09,47.74-3,3.7-14.23,16.58-18.09,17.27-9.82-22.43,5.32-29.61,16.11-46.49C215.91,204.88,217.89,198.94,220.17,192.32Z" transform="translate(-50.34 -38)"/><path class="cls-4" d="M971.07,173.06c1.83.07,2.16.56,3,1.93-.13,3.46-9.71,9.55-12.67,15.62-5.25,10.77-1.16,18.13-6.34,28.58-8.41,17-22.86,16.21-37.25,21.35l-.69.25-.7,0c-1-.64-1.67-.9-1.82-2.25-2.91-25.24,10.59-41.91,31.5-54.15C954.26,179.61,961.57,175.41,971.07,173.06Z" transform="translate(-50.34 -38)"/><path class="cls-2" d="M955.82,185.42l.71,0,.19.67c-1.9,4-3.38,7.13-4.21,11.46-1.3,6.68-.59,15.72-4.44,21.49-5.73,8.58-16.18,11.59-25.49,13.68l-1.23-.32c-1.14-2.26.3-10.11,1.06-12.75C927.09,203.3,941.74,193.15,955.82,185.42Z" transform="translate(-50.34 -38)"/><path class="cls-4" d="M875.1,677.41c1.86-.22,2.46.24,3.42,1.63-.95,3.28-6.34,7-8,12.26-5,16.48-8,31-26.32,37.23-7.53,2.58-12.71,3.88-19.48,8.39l-1.52.3c-3.27-1.24-.79-6.32-.44-9.08C826.68,697,849.25,689.51,875.1,677.41Z" transform="translate(-50.34 -38)"/><path class="cls-2" d="M866.27,686.51c.28,2.26-2.38,7.16-2.92,9.73-4.87,23.29-15.84,25.06-35.66,33-.17-2.4,1.32-6.48,2-8.82C835.6,700.86,849.21,695,866.27,686.51Z" transform="translate(-50.34 -38)"/><path class="cls-15" d="M101.2,605.73c1.09.81.81.67,1.64,1.83.12,2.45-5,10.87-6.16,13.65-16.07,38.89-27.5,79.56-26.19,122a6.09,6.09,0,0,1-1.26,2.41c-3.3-4.3-2.39-25.76-1.84-31.38,3-30.28,11.35-60.19,23.18-88.18C93,620.39,97.36,610,101.2,605.73Z" transform="translate(-50.34 -38)"/><path class="cls-4" d="M832.49,830.14l2,1c.58,1.09,1,1.71.38,3a166.87,166.87,0,0,1-78.7,80.23c-1.5.07-.83.26-2.07-.5a2.62,2.62,0,0,1,1.14-2.37c26.24-15.88,49.39-35.13,65.94-61.28C825,844.27,828.5,835.73,832.49,830.14Z" transform="translate(-50.34 -38)"/><path class="cls-4" d="M915.29,310.67l2,.74c1.94,3,1.25,14.22,1.28,18.09.29,35.65-10.56,66.39-29,96.52l-2-1.57-.45-1.27c17.44-29.74,28.34-62.7,27.67-97.45C914.6,318.29,914.09,314.83,915.29,310.67Z" transform="translate(-50.34 -38)"/><path class="cls-4" d="M718.45,45.47c1.67.05,1.7,0,2.57,1.07a3.42,3.42,0,0,1-1.85,2.28C694.39,61,673,77.3,655.93,99.19c-6.27,8.06-11.09,16-16.38,25-1.07.24-.52.23-1.67-.33a4,4,0,0,1,.36-3.49C654.16,86.7,684.66,59.52,718.45,45.47Z" transform="translate(-50.34 -38)"/><path class="cls-4" d="M936.19,347.68l2.12.21c6.15,5.36-4.46,36.78-7.77,43.9a2.86,2.86,0,0,1-2.89-1.15c.1-3.12,4.44-13.94,5.48-18.08C935.47,363.26,935.8,357,936.19,347.68Z" transform="translate(-50.34 -38)"/><path class="cls-4" d="M836.27,871.27a4.06,4.06,0,0,1,1.92,1c2.45,6.56-18.54,25.4-23.84,29.33l-.85.28-.89-1a2.51,2.51,0,0,1,.7-2.21C822.5,890.86,828.36,879.87,836.27,871.27Z" transform="translate(-50.34 -38)"/><path class="cls-4" d="M61.57,638.67c2.23.72,1.55,0,2.47,1.69-.69,4.42-6,15.62-7.35,20.76-.75,2.87-2.87,11.52-4.28,13.5-1-.57-2-.87-2-2.14C49.87,665.29,58.16,644.28,61.57,638.67Z" transform="translate(-50.34 -38)"/><path class="cls-4" d="M643.85,73.84l1.61.72.24.84c-1.88,3.12-6.86,8.07-9.44,11.06a99.71,99.71,0,0,0-8.84,11.93l-1.12-.24-.51-1C627,90.73,638.79,78,643.85,73.84Z" transform="translate(-50.34 -38)"/></g></svg>