<svg id="Layer_1" data-name="Layer 1" xmlns="http://www.w3.org/2000/svg" xmlns:xlink="http://www.w3.org/1999/xlink" viewBox="0 0 222.81 229.17"><defs><style>.cls-1{fill:url(#linear-gradient);}.cls-2{fill:#e0b86e;}.cls-3{fill:url(#linear-gradient-2);}.cls-4{fill:#f39682;}.cls-5{fill:#0e0e1d;}.cls-6{fill:#fffffe;}.cls-7{fill:#010105;}.cls-8{fill:url(#linear-gradient-3);}.cls-9{fill:#e37a6c;}.cls-10{fill:#8e735e;}.cls-11{fill:#b9a48c;}.cls-12{fill:#358d72;}.cls-13{fill:#6cbf8f;}.cls-14{fill:#a1c692;}.cls-15{fill:url(#linear-gradient-4);}.cls-16{fill:#a6d890;}.cls-17{fill:#fef596;}.cls-18{fill:#7c8172;}</style><linearGradient id="linear-gradient" x1="1588.97" y1="-1318.09" x2="1622" y2="-1817.16" gradientTransform="matrix(0.25, 0, 0, -0.25, -278.25, -213.75)" gradientUnits="userSpaceOnUse"><stop offset="0" stop-color="#010000"/><stop offset="1" stop-color="#07061e"/></linearGradient><linearGradient id="linear-gradient-2" x1="1868.63" y1="-1475.94" x2="1871.48" y2="-1426.07" gradientTransform="matrix(0.25, 0, 0, -0.25, -278.25, -213.75)" gradientUnits="userSpaceOnUse"><stop offset="0" stop-color="#05030b"/><stop offset="1" stop-color="#1c1b31"/></linearGradient><linearGradient id="linear-gradient-3" x1="1876.71" y1="-1322.18" x2="1873.37" y2="-1341.66" gradientTransform="matrix(0.25, 0, 0, -0.25, -278.25, -213.75)" gradientUnits="userSpaceOnUse"><stop offset="0"/><stop offset="1" stop-color="#080516"/></linearGradient><linearGradient id="linear-gradient-4" x1="1333.14" y1="-1395.62" x2="1312.03" y2="-1422.37" gradientTransform="matrix(0.25, 0, 0, -0.25, -278.25, -213.75)" gradientUnits="userSpaceOnUse"><stop offset="0"/><stop offset="1" stop-color="#14162a"/></linearGradient></defs><path class="cls-1" d="M143.14,176.32c-3.06,3.26-6,5.57-10.7,5.84-.92.05-2.62-.1-3.18-.76-2.44-2.85,4.8-3.94,6.09-4.57,3.74-1.83,6.35-4.1,9.5-6.69.64-.6,3.16-7.76,3.74-9.09a117.21,117.21,0,0,1,8.54-15.54c5-7.85,11-16,17.79-22.45,7.6-7.18,19.19-13.43,29.86-12.75,8.69.55,16.31,4.77,22.23,11,7.4,7.84,8.78,18.95,7.94,29.28a95,95,0,0,1-6.33,27.51,36.91,36.91,0,0,1-4.81,9l.07.14c1.53,3.2,4.64,5.72,7.46,7.75,1.06.81,3.27,1.39,2.79,3.11s-2.78,1.24-4,.65a28.26,28.26,0,0,1-8.88-6.9c-9.29,14.75-21.32,25.2-39.67,25.15a8.72,8.72,0,0,0,2.91,6.42c1.57,1.55,5.45,2.43,6.06,4.63a2.64,2.64,0,0,1-.71,1.83,13.59,13.59,0,0,1-8.41,3.92c-2.22.26-5.24-1.28-3.33-3.69.42-.53,4.89-1.12,6.15-1.51l.23-.07.14-.05c-5-2.67-7.2-6-7.2-11.73a43.42,43.42,0,0,1-20.65-6.45c-2.3,4.54-2.16,11.28-.59,16,.76,2.3,5.56,6,1,7.4-3.25,1-6.9.88-10.24,1.08-2.09,2.1-4.58,2.5-7.41,3-10.39,1.74-20.89,2.68-31.35,4a269.63,269.63,0,0,1-65.6-.4c-5.75-.71-11.17-1.86-16.8-3.12-3.22-.72-19-3.63-11.22-9.18a18.89,18.89,0,0,1,1.37-3.59c2.09-3.55,5.69-6.25,9.27-8.15s7.64-2.49,11.62-3.49c.5-.12.83-1.09,1-1.54l.22-.12a2,2,0,0,0,.38-.57c.19-1.69-1.46-4.93-2.13-6.31,1.28.66,1.83,4.83,2.44,5.63a4.5,4.5,0,0,0,1-1.07l.08.11.12-.09.63-1a9.46,9.46,0,0,0,.78-.64c3.68-2.78,6.9-4.67,11.47-5.63,1.41-.3,3-.45,4.33-.77l.14,0c.73-.71,1.49-1.69,2.23-2.46,1.93-2,5.52-4.59,8.27-5.16.1.4.13.38,0,.75.44,4.17,1.28,8.52,2.11,12.63-3.27-2.7-5.89-1.2-9,.85-1.41-.32-6.52-.6-6.65,1.24l.17.09.17-.07a12.16,12.16,0,0,1,5.23-.56,6.53,6.53,0,0,0-1.84,2.05l.08.18c.81-.13,2-1.28,2.7-1.78,2.09-1.48,5.35-3.68,7.8-1.77,2,1.56,3.06,4.17,6,3.78s3.61-2,5.37-3.35a15,15,0,0,1,3.92,2c1.28.77,3.76,3.65,4.44,3.73l.18-.12c-.26-2.42-6.15-5.9-8.5-6.5a11,11,0,0,0-1.5.65,64.41,64.41,0,0,1-2.81-13.87c5.59-.62,11.67-.15,16.35,3.24.51,0,.25.22.79.35l-.06-.45a11.23,11.23,0,0,0,.71-3c.51-3.1,1.93-5.93,2.72-8.78-2.19,2.26-10.29,8.75-11,1.9a9.13,9.13,0,0,1-3.46.65c-3.9-.69-2.15-4.77-.79-6.71a23,23,0,0,1,6.16-6c-1.47-.65-3.94-1.46-4.3-3.23-.5-2.61,2.42-4.22,4.57-4.67,6.26-1.29,11.39,1.4,12.83,7.82,3-2.4,6.39-3.5,10.17-2.11,3.09,1.14,6.6,4.85,1.59,6.5,2.47,1.28,3.7,3.37,4.65,5.84,1.13,2.92.39,5.59-3.19,4.93-1.76-.33-2.63-1.14-4.14-1.93.45,3,.16,8-4.26,5.66A11.16,11.16,0,0,1,99,187c-.56,1.79-1.09,3.59-1.48,5.42-.31,1.42-.45,3-.76,4.37,0,.28-.1.93.14,1.1,2.17,1.5,4.36,2.52,6,4.67.2,0,3.66-.68,4.39-.74,5.46-.41,8.77,1.53,13.55,3.43l.38-.27.13,0,0,.48a2.28,2.28,0,0,0,1.38.69l0,0,.2.22a16.4,16.4,0,0,0,1.92,1.31c3,2,6.32,4.25,8.19,7.47A11.26,11.26,0,0,1,145.62,218c2.22,2.4,1.69,3.59,5.18,5.14a25,25,0,0,1,2.52-15.31c-1-.92-2-1.77-3-2.69a26,26,0,0,1-8.16-19.73,26.66,26.66,0,0,1,.62-6.33C142.88,178.22,143.05,177.21,143.14,176.32Z" transform="translate(-12.36 -14.41)"/><path class="cls-2" d="M143.2,181.48c1.91-12.33,7.13-23.55,13.57-34.15a107.93,107.93,0,0,1,8.16-11.93c4.71-5.94,9.52-11.57,15.68-16.1,7.57-5.38,17.32-9.69,26.77-8.1a33.48,33.48,0,0,1,21.35,13.31c6.69,9.26,6.54,22.53,4.73,33.35-1.64,9.86-4.56,20.25-9.9,28.75a43.78,43.78,0,0,1-4.6-14.47c-.16-.91-1.33-1.82-2.25-1.21-1.54,1-1,4.78-.89,6.25a31.26,31.26,0,0,0,4.76,13.92c-1.86,2.66-3.6,5.21-5.58,7.78-7.9,10.31-20,17.32-33.19,17.13.35-1.77.89-4.25,2.41-5.54.51-.44,2.3-1,2.67-1.47-.48-1.1-4,.43-5.88-.7-2,1-3.31,5.56-3.67,7.66a53.33,53.33,0,0,1-8.5-1.45c-10.34-3-21.25-10.12-24.69-20.8a31.23,31.23,0,0,1-1.26-8.15Z" transform="translate(-12.36 -14.41)"/><path class="cls-3" d="M182.69,142c.67.26,1.79,1.36,2.53,1.78,4.68,2.67,6.95,3.76,12.32,4.08a14.87,14.87,0,0,1-3.68,5.55c-5.12,3.91-11.49,2.22-12.6-4.58A10.12,10.12,0,0,1,182.69,142Z" transform="translate(-12.36 -14.41)"/><path class="cls-4" d="M188,147.93a7.45,7.45,0,0,1,6.6,3.58,8.22,8.22,0,0,1-5.36,3c-3.42.29-5.38-1.18-6.57-4.33A8.46,8.46,0,0,1,188,147.93Z" transform="translate(-12.36 -14.41)"/><path class="cls-5" d="M207.59,133.77c7.62-.89,6.09,11.25-1.2,13.36-5.41.63-6.33-5.25-3.95-8.87C203.89,136,204.93,134.55,207.59,133.77Z" transform="translate(-12.36 -14.41)"/><path class="cls-6" d="M207.67,135.39c3.28-.23,2.77,2.92.44,4C205.15,139.62,205,136.73,207.67,135.39Z" transform="translate(-12.36 -14.41)"/><path class="cls-6" d="M205,141.12c2.29.74.7,2.68-.77,3.36C201.8,143.86,203.82,141.84,205,141.12Z" transform="translate(-12.36 -14.41)"/><path class="cls-5" d="M187,125.89c7.47-.42,5.37,10.79-2,12.91C177,139.32,180.07,128,187,125.89Z" transform="translate(-12.36 -14.41)"/><path class="cls-6" d="M187,127.27c3.1-.36,3.09,2.39.52,3.73C184.85,131.54,184.5,128.6,187,127.27Z" transform="translate(-12.36 -14.41)"/><path class="cls-6" d="M184.19,132.72c2.06.27,1.27,2.66-.46,3.15C181.32,135.31,182.75,133.45,184.19,132.72Z" transform="translate(-12.36 -14.41)"/><path class="cls-7" d="M173.33,134.52c4.27-.48,8.87,5.72,4.09,6.69C173.31,141.26,168.43,136,173.33,134.52Z" transform="translate(-12.36 -14.41)"/><path class="cls-4" d="M173.1,135.53c3-.38,7.11,3.25,4.62,4.65a5.65,5.65,0,0,1-5-2.45A1.32,1.32,0,0,1,173.1,135.53Z" transform="translate(-12.36 -14.41)"/><path class="cls-7" d="M214,125.37c3.21-.18,7.3,6.07,3.6,7.62-2.1.12-3.41-.92-4.45-2.69S211.94,126.4,214,125.37Z" transform="translate(-12.36 -14.41)"/><path class="cls-4" d="M213.72,126.35c2.55-.23,5.56,3.69,4,5.64C215.05,132.75,212.82,128.92,213.72,126.35Z" transform="translate(-12.36 -14.41)"/><path class="cls-8" d="M190.17,116.79c5.05-.41,7.13,4.19.84,5.07C184.87,121.92,184.27,117.63,190.17,116.79Z" transform="translate(-12.36 -14.41)"/><path class="cls-9" d="M190.19,117.65c3.79-.35,5.51,2.84.65,3.14C186.61,120.76,185.21,118.6,190.19,117.65Z" transform="translate(-12.36 -14.41)"/><path class="cls-7" d="M207,149c2.61.07,4.75,1.11,5.62,3.68a3.27,3.27,0,0,1-2.65,1.66C204.88,154.49,201.21,149.76,207,149Z" transform="translate(-12.36 -14.41)"/><path class="cls-4" d="M206.82,149.9c1.46,0,5,1,4.66,2.82a2,2,0,0,1-1.47.68c-1.34,0-5.38-.68-4.93-2.6A2.89,2.89,0,0,1,206.82,149.9Z" transform="translate(-12.36 -14.41)"/><path class="cls-7" d="M162.34,165.15c2.22-.14,7.07,2.12,3.71,3.76-1.78.23-3.78-.13-4.84-1.86C160.73,166.27,161.62,165.43,162.34,165.15Z" transform="translate(-12.36 -14.41)"/><path class="cls-2" d="M162.23,165.77c1.23-.18,4,.54,4.25,1.88-.17.46,0,.27-.47.57-1.24.27-3.85-.11-4.23-1.54C161.88,166.08,161.83,166.29,162.23,165.77Z" transform="translate(-12.36 -14.41)"/><path class="cls-7" d="M149.05,189.92l.5.07c.12.14,1.44,4.37,1.72,5.06A25.14,25.14,0,0,0,161,206.79c.71.45,2.5,1.3,2.82,1.93-2.43-.44-5.71-3-7.42-4.67a26.47,26.47,0,0,1-6.52-10.51A12,12,0,0,1,149.05,189.92Z" transform="translate(-12.36 -14.41)"/><path class="cls-7" d="M183.18,179.53c3-.17,7,2.42,2.93,3.42-1.45.08-5.08-.34-4.62-2.44A2.57,2.57,0,0,1,183.18,179.53Z" transform="translate(-12.36 -14.41)"/><path class="cls-2" d="M183,180.14c1-.06,4,.22,4.07,1.57-.23.39-.45.42-.88.58-1,.09-4.41-.07-4.14-1.56A1.78,1.78,0,0,1,183,180.14Z" transform="translate(-12.36 -14.41)"/><path class="cls-7" d="M161.7,144.05c.37.17.27,0,.4.35a13.77,13.77,0,0,1-1.08,1.95,138.6,138.6,0,0,0-9.34,18c-.26-.15-.17-.09-.38-.34a19.65,19.65,0,0,1,1.38-3.55C155.2,155,158.09,149,161.7,144.05Z" transform="translate(-12.36 -14.41)"/><path class="cls-7" d="M159.42,185.92a6.6,6.6,0,0,1,2.4.46c1.63.58,3.72,2.39.71,3-1.73,0-3.69-.31-4.76-1.94C157.19,186.55,158.8,186,159.42,185.92Z" transform="translate(-12.36 -14.41)"/><path class="cls-2" d="M158.74,186.66c1.24-.13,4,.17,4.58,1.42-.1.45,0,.24-.43.57-1.14.15-4-.12-4.52-1.34C158.43,186.84,158.35,187.07,158.74,186.66Z" transform="translate(-12.36 -14.41)"/><path class="cls-7" d="M146.09,184.26a4.31,4.31,0,0,1,.61.19,6.9,6.9,0,0,1,.13,1.65,24,24,0,0,0,5.29,15.24,4.6,4.6,0,0,1,.94,1.4c-1.38-.21-2.7-2.55-3.43-3.69C146.72,194.5,146,189.58,146.09,184.26Z" transform="translate(-12.36 -14.41)"/><path class="cls-7" d="M153.69,165.56l.3.19c.19.81-1.34,3.71-1.7,4.82a62.69,62.69,0,0,0-2.42,9.33c-.2,1.28-.24,4.42-.53,5.31-.24-.06-.49-.06-.53-.35a10.83,10.83,0,0,1,.12-3.11A48.93,48.93,0,0,1,153.69,165.56Z" transform="translate(-12.36 -14.41)"/><path class="cls-7" d="M173.37,196.64c1.25-.09,5.08.43,4.67,2.19-.34.46-.49.47-1,.72C174.59,199.93,169.85,198.16,173.37,196.64Z" transform="translate(-12.36 -14.41)"/><path class="cls-2" d="M173.31,197.28c.79-.08,4.1.2,3.95,1.34l-.38.22c-1.06.2-3.32.16-3.95-.88C173,197.46,172.87,197.69,173.31,197.28Z" transform="translate(-12.36 -14.41)"/><path class="cls-7" d="M180.8,121.72c.06.12.3.49.22.58-2.56,2.72-5.72,5.12-8.06,8.12a18.26,18.26,0,0,1-1.83,2.13c-.11-.16-.3-.46-.22-.63C172.2,129.36,178.73,123.06,180.8,121.72Z" transform="translate(-12.36 -14.41)"/><path class="cls-7" d="M155.63,167.8c.46.15.31,0,.56.32A59.75,59.75,0,0,0,152.35,183c-.22-.09-.47-.13-.48-.29C151.65,179,154.18,170.84,155.63,167.8Z" transform="translate(-12.36 -14.41)"/><path class="cls-7" d="M150.28,166.3l.4.21a9,9,0,0,1-.84,2.57c-1.41,3.55-1.91,6.89-2.73,10.51C145.46,178.72,149.45,167.94,150.28,166.3Z" transform="translate(-12.36 -14.41)"/><path class="cls-7" d="M203,112.42c1.68-.24,7-.14,8.22,1.22-.6.3-3.78-.52-5.06-.59a21.86,21.86,0,0,0-7.62,1.1c-.18,0-.3-.09-.4-.2C198.8,113,201.92,112.57,203,112.42Z" transform="translate(-12.36 -14.41)"/><path class="cls-7" d="M162.3,148.58a.63.63,0,0,1,.34.18,24.81,24.81,0,0,1-1.8,3c-1.72,2.57-2.74,5.66-4.27,8.27a.91.91,0,0,1-.26-.29C156.37,158,160.75,150.12,162.3,148.58Z" transform="translate(-12.36 -14.41)"/><path class="cls-7" d="M228.56,169.71l.24.24c0,1.51-3.38,8.65-3.83,10.6,0,.1-.23.28-.31.36l-.26-.15-.06-.22C224.69,178.88,227.61,170.86,228.56,169.71Z" transform="translate(-12.36 -14.41)"/><path class="cls-7" d="M181.69,125.11l.32.14,0,.21c-.36.48-2.6,2.19-3.2,2.73a46.88,46.88,0,0,1-3.53,3.3c-.32-.21-.22-.07-.34-.41C175.56,129.69,180.21,125.92,181.69,125.11Z" transform="translate(-12.36 -14.41)"/><path class="cls-7" d="M168.14,134.82l.43.11.12.21a8.12,8.12,0,0,1-1.08,1.37,39.63,39.63,0,0,0-4.25,5.72,2,2,0,0,1-.34,0l-.18-.25C162.9,140.7,167.06,135.81,168.14,134.82Z" transform="translate(-12.36 -14.41)"/><path class="cls-7" d="M168.87,138.63l.43.28c0,.37-.53.73-.87,1.12a35.18,35.18,0,0,0-3.29,4.49c-.39-.13-.26,0-.43-.33C165.05,142.7,167.58,139.53,168.87,138.63Z" transform="translate(-12.36 -14.41)"/><path class="cls-7" d="M228.29,143.53c.27.1.5.11.56.41a13.77,13.77,0,0,1-1.07,7.17c-.35,0-.21,0-.47-.18A31.44,31.44,0,0,0,228.29,143.53Z" transform="translate(-12.36 -14.41)"/><path class="cls-7" d="M208.35,196.34l.36.21,0,.24c-.52,1.15-3.63,3.63-4.69,4.54-.25,0-.12,0-.36-.14l0-.29c.25-.41,3.75-3.53,4.53-4.41Z" transform="translate(-12.36 -14.41)"/><path class="cls-7" d="M209.42,199.33c1.76.9-3.69,4-4.45,4.33l-.32-.11-.09-.23c.13-.32.51-.49.83-.69A17.33,17.33,0,0,0,209.42,199.33Z" transform="translate(-12.36 -14.41)"/><path class="cls-7" d="M203.17,185.8c.39.2.26.06.41.45-.23,1.19-2.42,3.38-3.36,4.1l-.39-.38c0-.42,1.72-2,2.08-2.45S202.77,186.41,203.17,185.8Z" transform="translate(-12.36 -14.41)"/><path class="cls-7" d="M226.12,143.62l.39.16c.31.89-.52,4.71-.72,5.77l-.4-.25C225.16,148.69,225.94,144.36,226.12,143.62Z" transform="translate(-12.36 -14.41)"/><path class="cls-7" d="M201.63,184.82c.3.15.19,0,.31.36-.18.85-2.25,3.48-2.88,4.25a1,1,0,0,1-.34-.4C198.81,188.35,201,185.61,201.63,184.82Z" transform="translate(-12.36 -14.41)"/><path class="cls-7" d="M159.53,157c.21.15.12.06.21.35a13.57,13.57,0,0,1-2.1,4.22l-.24-.36C157.42,160,158.77,157.85,159.53,157Z" transform="translate(-12.36 -14.41)"/><path class="cls-7" d="M190.43,210.89h.19l0,.13c-1.2.9-3.67,1.15-5.12,1.21a1.17,1.17,0,0,1-.46-.26l.07-.13A36.09,36.09,0,0,0,190.43,210.89Z" transform="translate(-12.36 -14.41)"/><path class="cls-10" d="M75.52,194.1c5.59-.62,11.67-.15,16.35,3.24a2.15,2.15,0,0,0,.73.67c-.31,2.35-.73,7.32-.86,9.85,0,.14.16.17.32.25.65-.41.63-1.61,1.73-1.85,1.86-.4,2.4,1.49,3.69,2.3.84-.82.66-2,2.71-3.46A14.15,14.15,0,0,1,111,202.7c6.48,1.15,14,5.27,18.86,9.72a27.6,27.6,0,0,1,2.88,3.79c.47.1,1.76-.72,2.42-.83a11,11,0,0,1,10.53,4.37c.68.77,1.64,2.4,2.52,2.95,3.32,2.09,6.51,3.71,8.89,7,1.85,2.55.72,3-1.92,3.48a59.84,59.84,0,0,1-6.13.68c-1,.08-3.72-.24-4.43.19l0,.19c.24.28.48.48.49.83a.74.74,0,0,1-.25.25c-2.73,1.79-18,3.27-21.91,3.69-10.11,1.08-20.18,2.6-30.33,3.26-3.63.23-7.28.27-10.92.31a275.92,275.92,0,0,1-29.6-1.26c-4.57-.44-9.16-.86-13.69-1.59-3-.49-6-1.21-9-1.82-3.37-.69-6.8-1.24-10.1-2.23-1.71-.51-5-1.53-5.79-3.28a1.55,1.55,0,0,1,0-1.25,1.07,1.07,0,0,1,.66-.67c.55.2.55.46,1.09.95h.22c.4-.67.1-1.56.13-2.26a8.82,8.82,0,0,1,1-2.95c2.84-5,7.88-8,13.22-9.71,2.47-.8,5.38-1.24,7.84-2,.37-.11,1.68-2.82,2.07-3.3a18.75,18.75,0,0,1,1.83-2.09,23.74,23.74,0,0,1,15.93-6.26c2-3.3,6.19-7.12,10.05-7.93.44,4.17,1.28,8.52,2.11,12.63-3.27-2.7-5.89-1.2-9,.85-1.41-.32-6.52-.6-6.65,1.24l.17.09.17-.07a12.16,12.16,0,0,1,5.23-.56,6.53,6.53,0,0,0-1.84,2.05l.08.18c.81-.13,2-1.28,2.7-1.78,2.09-1.48,5.35-3.68,7.8-1.77,2,1.56,3.06,4.17,6,3.78s3.61-2,5.37-3.35a15,15,0,0,1,3.92,2c1.28.77,3.76,3.65,4.44,3.73l.18-.12c-.26-2.42-6.15-5.9-8.5-6.5a11,11,0,0,0-1.5.65A64.41,64.41,0,0,1,75.52,194.1Z" transform="translate(-12.36 -14.41)"/><path class="cls-5" d="M110.68,209.65c5.59-.54,8.89,4,10.81,8.67.52.38.81.43.72,1.08-1,.33-3.07.46-4.47.93-2.61.86-5.24,3-7.81,3.08-3.73-.11-7.25-3.3-11.17-3-.25,0-.49-.37-.6-.55a4.53,4.53,0,0,1,.7-1.43A18.92,18.92,0,0,1,110.68,209.65Z" transform="translate(-12.36 -14.41)"/><path class="cls-11" d="M111.32,210.66c4.39-.33,7.7,4.22,9,7.88a27.27,27.27,0,0,0-4.27,1.28c-2.52,1-4.45,2.79-7.19,2.49-4.13-1.2-4.81-2.56-9.41-3l.18-.26C102.6,214.85,106.09,211.61,111.32,210.66Z" transform="translate(-12.36 -14.41)"/><path class="cls-5" d="M50.69,222.91c5.64-.76,9.24,1.94,12.76,5.92.59.15,1.1.18,1.4.74l-.12.25c-1.27.28-2.63-.11-3.93.14a20.41,20.41,0,0,0-8.57,3.87c-.1.1-.67.65-.76.63-2.37-.38-4.69-1.34-7.09-1.72-1.42-.23-5.17.09-6-.48l0-.22c.43-.54,1.49-.5,2.15-.56C42.65,227.15,45.68,223.71,50.69,222.91Z" transform="translate(-12.36 -14.41)"/><path class="cls-11" d="M51.13,224.05c4.43-.5,7.92,1.48,10.81,4.62a19.78,19.78,0,0,0-9.88,4l-.89.74a34.75,34.75,0,0,0-9.6-1.91C43.74,227.59,46.4,224.44,51.13,224.05Z" transform="translate(-12.36 -14.41)"/><path class="cls-5" d="M82.05,228.28c1.35-.17,5,.26,5.15,1.84-.68.6-4.94-3.39-10,2.11a10.45,10.45,0,0,1,6.44,2.61c.14.31,0,.39-.12.6-.36,0-2.13-1.22-3-1.53a7.08,7.08,0,0,0-5.16-.23c-.84.31-1.63,1.13-2.52.76l-.05-.14c.44-.87,2.17-1.54,3-1.9A8.63,8.63,0,0,1,82.05,228.28Z" transform="translate(-12.36 -14.41)"/><path class="cls-5" d="M131.39,223.15a17.7,17.7,0,0,1,2.06,0c2.47.06,7.22,4.75,6.86,7.2-.27.28-.11.16-.58.23-.38-.29-1.22-2.24-1.76-3-2.09-2.71-5.15-4.74-8.48-2.48-.55.37-1.13,1.26-1.75,1l-.11-.25C128.06,224.14,129.86,223.54,131.39,223.15Z" transform="translate(-12.36 -14.41)"/><path class="cls-7" d="M104.33,228.52c1-.13,4.2,0,4.09,1.44l-.27.15a1.61,1.61,0,0,1-1-.45l-.14-.1c-.6-.23-1.65-.5-2.19-.12-.08.31-.14.53-.24.84l-.24.09a1.38,1.38,0,0,1-.72-1.19C103.75,228.82,104,228.73,104.33,228.52Z" transform="translate(-12.36 -14.41)"/><path class="cls-7" d="M70.75,222.64c.82,0,1.75-.22,2.22.55a.88.88,0,0,1-.23.77c-.49.23-.23.17-.79.14l-.12-.18c-.25-.39-.08-.29-.46-.41a3.33,3.33,0,0,1-1.85.26C69.73,223.14,70.19,222.93,70.75,222.64Z" transform="translate(-12.36 -14.41)"/><path class="cls-7" d="M49.78,220c.82,0,1.2-.18,1.69.49-.3.59-1.19.23-1.92.56-.35.45-.4.64-1,.58l-.16-.22C48.43,220.49,49,220.27,49.78,220Z" transform="translate(-12.36 -14.41)"/><path class="cls-7" d="M30.86,226.88c.66,0,1.56-.19,1.66.71-.51.33-1-.15-1.93.41-.28.44-.32.66-.85.76l-.19-.17C29.5,227.61,30.11,227.32,30.86,226.88Z" transform="translate(-12.36 -14.41)"/><path class="cls-7" d="M68.58,221.78c.63.08.75.09,1.11.54l-.09.2c-.6.27-1.21.1-2,.36-.29.36-.37.58-.82.44C66.41,222.22,67.83,221.92,68.58,221.78Z" transform="translate(-12.36 -14.41)"/><path class="cls-5" d="M132.15,225.36c.44.07.7.1,1,.46-.07.57-1,.78-1.46,1.36a1.24,1.24,0,0,1-.33.15c-.33-.27-.21-.1-.3-.56C131.24,225.9,131.37,225.82,132.15,225.36Z" transform="translate(-12.36 -14.41)"/><path class="cls-7" d="M33.24,227.75a1.81,1.81,0,0,1,1,.25l0,.23a6,6,0,0,1-1.5.87.77.77,0,0,1-.81,0C31.87,228.31,32.58,228,33.24,227.75Z" transform="translate(-12.36 -14.41)"/><path class="cls-7" d="M101.78,229.7a3,3,0,0,1,1.58.5c.2.41.17.2,0,.68a2.73,2.73,0,0,1-1.65-.36C101.59,230.07,101.63,230.23,101.78,229.7Z" transform="translate(-12.36 -14.41)"/><path class="cls-7" d="M52.56,220.25c.91-.09,2-.22,2.28.8A2.13,2.13,0,0,1,52.56,220.25Z" transform="translate(-12.36 -14.41)"/><path class="cls-10" d="M96.76,196.75c0,.28-.1.93.14,1.1,2.17,1.5,4.36,2.52,6,4.67a7.08,7.08,0,0,0-.68.32c-.27.22-.87.53-1.19.74a10.53,10.53,0,0,0-3.7,3.4,11,11,0,0,0-1.22-1c0-2.32.43-5,.39-7.09A2.5,2.5,0,0,1,96.76,196.75Z" transform="translate(-12.36 -14.41)"/><path class="cls-5" d="M96.76,196.75c0,.28-.1.93.14,1.1,2.17,1.5,4.36,2.52,6,4.67a7.08,7.08,0,0,0-.68.32c-.87-.85-4.76-4.24-5.72-4A2.5,2.5,0,0,1,96.76,196.75Z" transform="translate(-12.36 -14.41)"/><path class="cls-5" d="M142.75,179.11c.09,1.28-.23,1.27.45,2.37l-.31,4.08,0-.17a20.13,20.13,0,0,0-.26-3.32,32.12,32.12,0,0,1-.48,3.37A26.66,26.66,0,0,1,142.75,179.11Z" transform="translate(-12.36 -14.41)"/><path class="cls-12" d="M87.88,174.61c-1.56-.61-4.52-1.4-4.56-3.43a2.12,2.12,0,0,1,.7-1.48c3.5-2.91,10.15-2.34,13.15,1.07a9.23,9.23,0,0,1,2.31,5.68c3-2.34,4.41-3.29,8.33-3.09,3,.16,9.24,4,3.61,5.61-3.88-1.38-5.56-2-9.51-.35A7.27,7.27,0,0,0,99.15,177c-1-.12-1.72-2.15-3.61-2.85C92.65,173.06,90.6,173.6,87.88,174.61Z" transform="translate(-12.36 -14.41)"/><path class="cls-13" d="M91.29,174.41A6.87,6.87,0,0,1,97.87,177c-1.92,0-3.86,1-5.64,1.68-3.47,1.42-5.49,4.16-6.89,7.52a6.67,6.67,0,0,1-2.3.88c-5.17.81-3-3.84-1.18-6.16C84.36,177.69,87.09,175.06,91.29,174.41Z" transform="translate(-12.36 -14.41)"/><path class="cls-13" d="M101.4,180a7.5,7.5,0,0,1,6.11-1.46,11.07,11.07,0,0,1,6.8,4.28c.92,1.44,3.18,5.45,1.09,6.64-1.9,1.09-5.21-1.23-6.67-2.24-1.2-2.8-2.29-4.72-5.31-6.06a5.09,5.09,0,0,0-2.32-.37A6.16,6.16,0,0,1,101.4,180Z" transform="translate(-12.36 -14.41)"/><path class="cls-9" d="M181,209.58a16.6,16.6,0,0,1,2.4.31c-4.35,4.66-3.21,13,2.77,15.7,2.82,1.24,4.93,2.65,1.3,4.93a11.86,11.86,0,0,1-5.82,2.35c-.95,0-2.51,0-3.11-.85-.26-.3-.08-1.3.36-1.37a23.37,23.37,0,0,0,7.71-2.35,15.41,15.41,0,0,1-3.48-1.77C177.4,222.47,177,215,181,209.58Z" transform="translate(-12.36 -14.41)"/><path class="cls-4" d="M217.22,171.56c.18.07.61.27.66.43.62,1.9.86,4.73,1.36,6.65a26.87,26.87,0,0,0,9.9,15.73c1,.76,4.14,2.23,4.24,3.43-.22.51-.12.34-.62.69-2.66-.07-5-2-7-3.55-6.13-4.87-8.43-11.81-9.09-19.38C216.56,174.33,216.38,172.56,217.22,171.56Z" transform="translate(-12.36 -14.41)"/><path class="cls-13" d="M101,181.5c5.48-.17,9.78,8.6,6.36,12.58a9.39,9.39,0,0,1-5.64-3.52C100,188.2,98,183.59,101,181.5Z" transform="translate(-12.36 -14.41)"/><path class="cls-13" d="M94.1,178.9c1-.09,3,1.45,3.93,2.08a17.25,17.25,0,0,1-8.48,8.24C82.83,192,86.08,180.54,94.1,178.9Z" transform="translate(-12.36 -14.41)"/><path class="cls-13" d="M98.47,181.06c.54.08,1.17.26,1.71.4-1.8,2.21-1,2.49-1.66,4.66a63.68,63.68,0,0,0-3,14.08c-.06.72-.3,5-.57,5.26l-.35,0a9.21,9.21,0,0,0-1.81.28c0-1.41.25-3,.36-4.39a46.93,46.93,0,0,1,2.48-12.92c.7-2,2.26-5.26,2.74-7.15Z" transform="translate(-12.36 -14.41)"/><path class="cls-9" d="M153.84,208.42c.58.29,1.64,1,2.22,1.43-1.84,4.86-2.59,7.55-1.67,13,.13.77,1,2.7.89,3.27-1-.82-2.24-1.62-3.3-2.48C150.77,218.08,151.94,213.6,153.84,208.42Z" transform="translate(-12.36 -14.41)"/><path class="cls-9" d="M144,171.72c.11,0,0,0,.17.15-.48,3.66-2.36,5.22-5.38,7.14-2.43,1.54-5.72,2.62-8.6,1.94a1.19,1.19,0,0,1-.65-.71c.15-.92,1.66-1.37,2.46-1.53C137.17,177.73,140.1,174.64,144,171.72Z" transform="translate(-12.36 -14.41)"/><path class="cls-13" d="M95.3,178.39c.13-.07,1-.57,1.07-.58a13.94,13.94,0,0,1,5.14.76c.17.35,0,1-.11,1.42a6.16,6.16,0,0,0-.3.79C99,180.72,97.26,179.37,95.3,178.39Z" transform="translate(-12.36 -14.41)"/><path class="cls-7" d="M98.53,178.07c.78.34.6,1.07.5,1.77a.92.92,0,0,1-.39-.11A4,4,0,0,1,98.53,178.07Z" transform="translate(-12.36 -14.41)"/><path class="cls-14" d="M116.19,54.39l-.08-.16.36-.64,0-.16-.28,0c0-.52.23-.84.21-1.35-.14-2.91-.56-5.81-.61-8.73-.11-8.28,2.26-17.08,8.61-22.78,6.17-5.54,13.68-6.51,21.64-6.12a31.8,31.8,0,0,1,5.69.77c2.93,7,1.77,16.77-1,23.61-2.35,5.78-6.37,10.37-12.25,12.71A85.63,85.63,0,0,1,121.61,56c-2.16.4-3.08.81-4.35,2.63-2.37,3-4.83,5.93-7.13,9-.67.89-1.58,1.7-2.18,2.62a73.68,73.68,0,0,1,21.73-8.43,20.74,20.74,0,0,0,2.69-.67c2-2.4,3.49-4,6.73-4.63,6.78-1.34,13.2,1.85,17.93,6.55a10.32,10.32,0,0,1,1.18,1.29,14.59,14.59,0,0,1-8.32,6.32A18.18,18.18,0,0,1,137,69c-2.14-1.21-3.94-2.68-6.11-3.88a32.35,32.35,0,0,0-5.49,1.13c-6.64,1.64-13.44,4.15-19.1,8.09l-.12.19.08.18a5.3,5.3,0,0,1,.55-.1l.08.12c.27-1,4.89-2.5,5.86-2.83a51,51,0,0,1,5.48-1.21,22.74,22.74,0,0,1,7.14.25c.95.28,1.92.57,2.84.93,6.37,2.48,11.12,10.08,11.78,16.72-2.16,0-4.23-.09-6.53,0-7,.07-16.39,2-22.24-2.79-2.21-1.81-2.91-7-6.24-6.74-5.08.37-10.15,10.29-12.24,14-8.6,15-13.16,31.48-16.58,48.29,6.37-4.92,12.34-6.1,20.22-6.37,5.22-4,13.37-4,17.48,1.62,3.12,4.25,3.06,10.62,2.34,15.62-.15,1-.61,5.91-2.07,5.36-8.39-3.19-17.39-9.46-18.9-18.95a25.82,25.82,0,0,0-14.1,3.64c-1.95,1.14-5.07,3-5.82,5.35a32,32,0,0,0-.71,4.69,158.26,158.26,0,0,0-1.13,16.57,162.39,162.39,0,0,0,1.8,24.52c4.31-.26,8.59-.49,12.73,1.1,1.43.55,3.69,1.55,4.6,2.85l.06.45c-.54-.13-.28-.38-.79-.35-4.68-3.39-10.76-3.86-16.35-3.24A64.41,64.41,0,0,0,78.33,208a11,11,0,0,1,1.5-.65c2.35.6,8.24,4.08,8.5,6.5l-.18.12c-.68-.08-3.16-3-4.44-3.73a15,15,0,0,0-3.92-2c-1.76,1.37-2.42,3-5.37,3.35s-4-2.22-6-3.78c-2.45-1.91-5.71.29-7.8,1.77-.7.5-1.89,1.65-2.7,1.78l-.08-.18a6.53,6.53,0,0,1,1.84-2.05,12.16,12.16,0,0,0-5.23.56l-.17.07-.17-.09c.13-1.84,5.24-1.56,6.65-1.24,3.06-2.05,5.68-3.55,9-.85-.83-4.11-1.67-8.46-2.11-12.63.15-.37.12-.35,0-.75a12.92,12.92,0,0,1-.27-1.91A198.63,198.63,0,0,1,67,159.67c.16-1.85.41-3.68.47-5.54-2.39-4.55-7.4-11.49-12.2-13.68a1,1,0,0,0-.76-.13c-1.48.64-3.83,5.85-5,7.45-4.24,5.65-10.11,9.35-16.7,11.68a36.43,36.43,0,0,1-4.34,1.25c-1.87.41-10.92,2-12.28,1.19-.4-.22-.58-1-.68-1.38-1.37-5.54-.84-13.16,2.24-18.06,3.69-5.88,10.13-11.2,17-12.74a10.15,10.15,0,0,1,2.53-.43,19.47,19.47,0,0,1,10.07,1.29c2.84,1.27,4.62,2.29,6.24,5a20.46,20.46,0,0,1,10.57,7.63c.47.63,3.89,5.72,4.08,5.79a47.71,47.71,0,0,1,.78-5.51c1.16-6.8,2.94-13.44,4.72-20.09-2.1-6.23-6.21-17.87-12.26-21.13-2.25.31-4.52,1-6.74,1.5-6.85,1.57-13.52,1.79-20.26-.41S24.22,97.89,19.81,92.51c6.36-6.65,13.75-11.1,23.08-11.59,12.43-.67,21.23,6.28,21.88,18.89.63.94,2.57,2.76,3.49,4a61.21,61.21,0,0,1,7.32,13.76,74,74,0,0,1,2.69-7.56A139.21,139.21,0,0,1,96.7,75.79c1.54-2.09,1.35-2.75,1-5.42C96.32,68.79,94,68.1,92.19,67a23.1,23.1,0,0,1-5-3.82c-5.79-5.83-7.51-12.1-7.57-20.11,0-4.22,1.79-14.75,4.65-17.56,9.64-.23,19.54,6.16,22.19,15.58,2,7.3,1.36,17.53-3.06,23.81-1.24,1.76-2.31,2.69-2.43,5,0,.51-.09.81.26,1.21l.4-.1c.23-.19,1.49-1.68,1.75-2l3.76-4.31C109.32,62.23,114.56,56.9,116.19,54.39Z" transform="translate(-12.36 -14.41)"/><path class="cls-7" d="M84.23,25.49c9.64-.23,19.54,6.16,22.19,15.58,2,7.3,1.36,17.53-3.06,23.81-1.24,1.76-2.31,2.69-2.43,5,0,.51-.09.81.26,1.21l.4-.1a14.94,14.94,0,0,1-1.54,1.64c.29-1.27.48-4.06.92-5,1-2.25,3-4,3.87-6.48,2.76-7.81,3.12-17.65-1.29-24.92C99.46,29.65,91.85,26.34,84.33,26c-4,8.26-5.5,19-2.52,27.82A24.35,24.35,0,0,0,92.73,66.59c1.81,1,3.74,1.78,5.23,3.19C98.07,56.45,95.78,45,87,34.61c-.29-.34-.71-.66-.49-1,1.06,0,3.34,3.63,4,4.54,6.31,8.93,8.38,20.25,8.16,31,0,1.78-.34,3.46-.3,5.33-1.45,2-3.11,4-4.47,6.13C70.29,116.89,62,163.51,70.31,205.83c.28,1.41.69,3.4,1.93,4.24,2,1.32,3.92.12,5.34-1.32-2.1-6.52-2.39-10.44-3.28-17.13a152.36,152.36,0,0,1-.52-37.69c.14-1.24.59-6.59,1.13-7.33,4.41-5.94,13.73-9.26,20.79-8.53,1.62,9.49,10.35,15.82,18.92,18.87,1.63-5.72,2.31-13.58-.53-19a10.2,10.2,0,0,0-6.21-4.94c-3.52-.93-8.56-.24-11.16,2.48-6.54.14-11.94,1-17.65,4.51-1.58,1-2.52,1.88-3.92,2.87,3.65-18.94,9.45-38,19.63-54.54,2.29-3.72,8.94-14.69,13.93-7.46.56.83,1,1.93,1.46,2.79,1.43,2.39,3.69,3.36,6.27,4,7.6,1.72,15-.16,22.86.39-1.53-7.6-5.94-14.82-14-16.54l.07-.52c.95.28,1.92.57,2.84.93,6.37,2.48,11.12,10.08,11.78,16.72-2.16,0-4.23-.09-6.53,0-7,.07-16.39,2-22.24-2.79-2.21-1.81-2.91-7-6.24-6.74-5.08.37-10.15,10.29-12.24,14-8.6,15-13.16,31.48-16.58,48.29,6.37-4.92,12.34-6.1,20.22-6.37,5.22-4,13.37-4,17.48,1.62,3.12,4.25,3.06,10.62,2.34,15.62-.15,1-.61,5.91-2.07,5.36-8.39-3.19-17.39-9.46-18.9-18.95a25.82,25.82,0,0,0-14.1,3.64c-1.95,1.14-5.07,3-5.82,5.35a32,32,0,0,0-.71,4.69,158.26,158.26,0,0,0-1.13,16.57,162.39,162.39,0,0,0,1.8,24.52c4.31-.26,8.59-.49,12.73,1.1,1.43.55,3.69,1.55,4.6,2.85l.06.45c-.54-.13-.28-.38-.79-.35-4.68-3.39-10.76-3.86-16.35-3.24A64.41,64.41,0,0,0,78.33,208a11,11,0,0,1,1.5-.65c2.35.6,8.24,4.08,8.5,6.5l-.18.12c-.68-.08-3.16-3-4.44-3.73a15,15,0,0,0-3.92-2c-1.76,1.37-2.42,3-5.37,3.35s-4-2.22-6-3.78c-2.45-1.91-5.71.29-7.8,1.77-.7.5-1.89,1.65-2.7,1.78l-.08-.18a6.53,6.53,0,0,1,1.84-2.05,12.16,12.16,0,0,0-5.23.56l-.17.07-.17-.09c.13-1.84,5.24-1.56,6.65-1.24,3.06-2.05,5.68-3.55,9-.85-.83-4.11-1.67-8.46-2.11-12.63.15-.37.12-.35,0-.75a12.92,12.92,0,0,1-.27-1.91A198.63,198.63,0,0,1,67,159.67c.16-1.85.41-3.68.47-5.54-2.39-4.55-7.4-11.49-12.2-13.68a1,1,0,0,0-.76-.13c-1.48.64-3.83,5.85-5,7.45-4.24,5.65-10.11,9.35-16.7,11.68a36.43,36.43,0,0,1-4.34,1.25c-1.87.41-10.92,2-12.28,1.19-.4-.22-.58-1-.68-1.38-1.37-5.54-.84-13.16,2.24-18.06,3.69-5.88,10.13-11.2,17-12.74a10.15,10.15,0,0,1,2.53-.43,19.47,19.47,0,0,1,10.07,1.29c2.84,1.27,4.62,2.29,6.24,5a20.46,20.46,0,0,1,10.57,7.63c.47.63,3.89,5.72,4.08,5.79a47.71,47.71,0,0,1,.78-5.51c1.16-6.8,2.94-13.44,4.72-20.09-2.1-6.23-6.21-17.87-12.26-21.13-2.25.31-4.52,1-6.74,1.5-6.85,1.57-13.52,1.79-20.26-.41S24.22,97.89,19.81,92.51c6.36-6.65,13.75-11.1,23.08-11.59,12.43-.67,21.23,6.28,21.88,18.89.63.94,2.57,2.76,3.49,4a61.21,61.21,0,0,1,7.32,13.76,74,74,0,0,1,2.69-7.56A139.21,139.21,0,0,1,96.7,75.79c1.54-2.09,1.35-2.75,1-5.42C96.32,68.79,94,68.1,92.19,67a23.1,23.1,0,0,1-5-3.82c-5.79-5.83-7.51-12.1-7.57-20.11C79.56,38.83,81.37,28.3,84.23,25.49Z" transform="translate(-12.36 -14.41)"/><path class="cls-14" d="M34.73,129.71a10.15,10.15,0,0,1,2.53-.43,19.47,19.47,0,0,1,10.07,1.29c2.84,1.27,4.62,2.29,6.24,5a20.46,20.46,0,0,1,10.57,7.63c.47.63,3.89,5.72,4.08,5.79a1.62,1.62,0,0,1-.31,1.05,24.79,24.79,0,0,1-.26,3.34A49.15,49.15,0,0,0,62,145c-1.31-1.46-4.87-5.12-7-5.23s-3.33,3.42-4.24,4.89c-.51.89-1.06,1.81-1.66,2.65-5.74,8-15.66,12.39-25.24,13.55a47.24,47.24,0,0,1-7.42.54c-1.62-5.86-1.45-13.3,1.91-18.56a28.25,28.25,0,0,1,17.8-12.71c-.84-.43-.69.23-1.38-.15l.06-.05Z" transform="translate(-12.36 -14.41)"/><path class="cls-15" d="M34.73,129.71a10.15,10.15,0,0,1,2.53-.43,19.47,19.47,0,0,1,10.07,1.29c2.84,1.27,4.62,2.29,6.24,5a20.46,20.46,0,0,1,10.57,7.63c.47.63,3.89,5.72,4.08,5.79a1.62,1.62,0,0,1-.31,1.05c-2-4.07-6.45-9.81-10.34-12-1.39-.77-3-1.29-4.28-2.08-.52-.33-1.47-1.92-2.17-2.43-5.24-3.77-9-4.13-15-3.44-.84-.43-.69.23-1.38-.15l.06-.05Z" transform="translate(-12.36 -14.41)"/><path class="cls-7" d="M45.7,135.43a13.34,13.34,0,0,1,5.69.95c-.87,0-1.83-.17-2.72-.23-12.81-.84-23.17,7.47-29.28,18.11l-2.23,4.23c.89-3.75,3.95-8.76,6.5-11.61C30,139.78,36.18,136.11,45.7,135.43Z" transform="translate(-12.36 -14.41)"/><path class="cls-7" d="M33.11,144.69c.21.12.11.06.26.31a20.52,20.52,0,0,0-1.3,5.58,8.88,8.88,0,0,1-.54,3.27C30.32,152.49,31.75,146.18,33.11,144.69Z" transform="translate(-12.36 -14.41)"/><path class="cls-7" d="M45.08,139.67l.17.1a15.52,15.52,0,0,1-.44,2.7,37,37,0,0,0,0,4.71l-.38.31C43.07,146.19,44.11,141.23,45.08,139.67Z" transform="translate(-12.36 -14.41)"/><path class="cls-7" d="M25.32,139.15l.28.08c.16.24.14.11.09.38-.53.56-3.77,1.57-4.65,1.88-.29,0-.19,0-.47-.13C20.47,140.42,24.51,139.31,25.32,139.15Z" transform="translate(-12.36 -14.41)"/><path class="cls-7" d="M33.73,132.62c.87.07,5.06.24,5,1.48l-.25.2c-1.21-.56-4.77-.62-5-1.34Z" transform="translate(-12.36 -14.41)"/><path class="cls-14" d="M42.5,81.55c4.18-.39,10.39.55,13.87,3,6,4.21,6.77,8.86,8.07,15.28C60.16,95.74,52.65,92,46.9,90.7A14.6,14.6,0,0,0,44,90.24c-.1-.16,12.87,4.44,13.73,5.65,0-.06,2.48,1.53,2.68,1.66,7.51,4.6,11.06,11.58,14.35,19.54l.51,1.41c-.42,1.4-.89,2.59-1.28,4.06-2.16-6.28-6.27-17.88-12.51-20.94a35.22,35.22,0,0,0-4.26.93c-13.12,3.6-27.9,2-36.49-10.07C26.53,86.31,34,82.13,42.5,81.55Z" transform="translate(-12.36 -14.41)"/><path class="cls-7" d="M43.43,95.11l.24.13-.07.18c-2.78,1.93-4.27,3.46-7.7,4l-.33-.08-.08-.19c.34-.51,1.56-.8,2.2-1.06C39.7,97.22,41.41,96,43.43,95.11Z" transform="translate(-12.36 -14.41)"/><path class="cls-7" d="M57.48,87.29c1,.62,1.07,4.14.7,5.16C57.4,91.77,57.1,88.27,57.48,87.29Z" transform="translate(-12.36 -14.41)"/><path class="cls-7" d="M47.09,83.65c.83.3,2.73,2.9,2.44,3.92a7.59,7.59,0,0,1-2.27-2.63A1.2,1.2,0,0,1,47.09,83.65Z" transform="translate(-12.36 -14.41)"/><path class="cls-7" d="M116.19,54.39l-.08-.16.36-.64,0-.16-.28,0c0-.52.23-.84.21-1.35-.14-2.91-.56-5.81-.61-8.73-.11-8.28,2.26-17.08,8.61-22.78,6.17-5.54,13.68-6.51,21.64-6.12a31.8,31.8,0,0,1,5.69.77c2.93,7,1.77,16.77-1,23.61-2.35,5.78-6.37,10.37-12.25,12.71A85.63,85.63,0,0,1,121.61,56c-2.16.4-3.08.81-4.35,2.63-2.37,3-4.83,5.93-7.13,9-.67.89-1.58,1.7-2.18,2.62a73.68,73.68,0,0,1,21.73-8.43,20.74,20.74,0,0,0,2.69-.67c2-2.4,3.49-4,6.73-4.63,6.78-1.34,13.2,1.85,17.93,6.55a10.32,10.32,0,0,1,1.18,1.29,14.59,14.59,0,0,1-8.32,6.32A18.18,18.18,0,0,1,137,69c-2.14-1.21-3.94-2.68-6.11-3.88a32.35,32.35,0,0,0-5.49,1.13c-6.64,1.64-13.44,4.15-19.1,8.09l-.12.19.08.18a5.3,5.3,0,0,1,.55-.1l.08.12c.27-1,4.89-2.5,5.86-2.83a51,51,0,0,1,5.48-1.21,6.75,6.75,0,0,1,1.34.34,31,31,0,0,0-10.25,2.75c-1.51.69-3.28,1.8-4.82,2.36-.3.11-.39,0-.57-.11,0-.08,0-.22.09-.27,6.62-6,16-8.78,24.52-11A5.08,5.08,0,0,1,133.62,66c6.95,5.82,18.32,7,23.81-1.64-4.8-5-11.18-9-18.46-7.28a9.21,9.21,0,0,0-5,3.13,5.38,5.38,0,0,1-1.63,1.41c-6.9,1.81-13.78,3.65-20.2,6.86-2,1-3.7,2-5.58,3.15a7.55,7.55,0,0,1,.45-.9c2.87-4.34,6.47-8.19,9.63-12.31,1-1.27,1.65-2.25,3.29-2.62,4.46-1,9-1.72,13.38-3,6.58-1.86,12.23-5,15.47-11.27a34.45,34.45,0,0,0,2.46-25.69c-4.05-1.16-10.59-1.09-14.77-.36-13.48,2.11-20.14,14.21-20.26,27,0,3.56.65,6.87.77,10.4a3.61,3.61,0,0,1-.7,1.38Z" transform="translate(-12.36 -14.41)"/><path class="cls-5" d="M118.23,70.66a22.74,22.74,0,0,1,7.14.25l-.07.52a25.66,25.66,0,0,0-5.73-.43A6.75,6.75,0,0,0,118.23,70.66Z" transform="translate(-12.36 -14.41)"/><path class="cls-7" d="M141.39,21.5l.07.07c-.14.33-3.12,2.84-3.64,3.34A72.66,72.66,0,0,0,123,45.35c-1,1.91-1.89,4.51-3,6.3l-.09.14-.08,0-.07-.14a66.64,66.64,0,0,1,16.54-25.95A36.25,36.25,0,0,1,141.39,21.5Z" transform="translate(-12.36 -14.41)"/><path class="cls-7" d="M109,76.68c4.95-.15,17.41,1.11,21.3,3.74l0,.2c-.5.17-2-.43-2.53-.63a63.48,63.48,0,0,0-19.27-2.74,10.06,10.06,0,0,1-2.86,0C106.24,76.74,108.28,76.71,109,76.68Z" transform="translate(-12.36 -14.41)"/><path class="cls-7" d="M143.63,61.18c1.71,0,10.55.23,10.76,2a11.47,11.47,0,0,1-2.34-.59,23.93,23.93,0,0,0-7.49-.89c-3.26.12-6.51.44-9.75.87-.8.1-1.6.21-2.4.23C135.08,61.64,140.64,61.32,143.63,61.18Z" transform="translate(-12.36 -14.41)"/><path class="cls-7" d="M98.39,135.52a9.72,9.72,0,0,1,5,1.5,16.59,16.59,0,0,1,7.9,9.65c-.38-.35-1.5-2.67-1.92-3.29C106.3,138.89,103.08,137.5,98.39,135.52Z" transform="translate(-12.36 -14.41)"/><path class="cls-7" d="M142.35,42.76l.3,0,.14.18c-.35.77-2.9,1.42-3.71,1.5a13.4,13.4,0,0,1-7.23-.84,1.53,1.53,0,0,1-.46-.38l.06-.15a17.48,17.48,0,0,1,2.82.55A14.73,14.73,0,0,0,142.35,42.76Z" transform="translate(-12.36 -14.41)"/><path class="cls-7" d="M123.25,73.3a4.87,4.87,0,0,1,2.19.17v.14a7.86,7.86,0,0,1-2,.29,42.65,42.65,0,0,0-6.45,1c-.63.17-1.29.44-1.89,0C115.92,74.14,121.77,73.41,123.25,73.3Z" transform="translate(-12.36 -14.41)"/><path class="cls-7" d="M146.92,31l.23.09.07.21c-.76,1.43-5,1.5-6.48,1.3l-.25-.08-.14-.26.09-.19c.65-.25,1.77.21,2.79,0A31.68,31.68,0,0,0,146.92,31Z" transform="translate(-12.36 -14.41)"/><path class="cls-7" d="M86.52,50.6c.59,0,2.72,1.79,3.75,2.18a13.22,13.22,0,0,0,2.55.94c.23,0,.28.32.34.51C91.4,54.29,86.87,52.34,86.52,50.6Z" transform="translate(-12.36 -14.41)"/><path class="cls-7" d="M125,22.83l.25.2c.36.95.31,3.52.64,4.66a6.29,6.29,0,0,1,.32,1.93C124.89,28.8,124.43,24.17,125,22.83Z" transform="translate(-12.36 -14.41)"/><path class="cls-7" d="M103.14,140c.14.09.41.18.4.35-.05.85.09,4.83-.19,5.34C102.11,144.88,102.7,141.26,103.14,140Z" transform="translate(-12.36 -14.41)"/><path class="cls-7" d="M101.14,40.79c.28.15.2.08.35.34,0,1.51-1.25,3.49-2.13,4.68-.31-.15-.18,0-.34-.37C99.08,45,100.8,41.54,101.14,40.79Z" transform="translate(-12.36 -14.41)"/><path class="cls-7" d="M115.71,80.05l.27.15a12.32,12.32,0,0,1,1.88,5c-.17-.06-.41-.09-.48-.24-.66-1.42-1.23-3-1.76-4.5Z" transform="translate(-12.36 -14.41)"/><path class="cls-7" d="M144.67,64c.9.15,2.67,1.92,3.58,2.43.43.24.38.33.44.69C147.42,67.1,145,65.21,144.67,64Z" transform="translate(-12.36 -14.41)"/><path class="cls-7" d="M111.05,138.79a3.7,3.7,0,0,1,2.57.76l0,.2a2,2,0,0,1-1.25-.1,20.21,20.21,0,0,1-2.8-.35v-.15A4.63,4.63,0,0,1,111.05,138.79Z" transform="translate(-12.36 -14.41)"/><path class="cls-7" d="M127,82.3c.92.33,1.43,2.43,1.17,3.39C127.51,85.37,126.76,83,127,82.3Z" transform="translate(-12.36 -14.41)"/><path class="cls-7" d="M110.43,146.69c.6.38.74,3,.77,3.78C110.06,150,110.25,147.69,110.43,146.69Z" transform="translate(-12.36 -14.41)"/><path class="cls-7" d="M112.29,143.88a2.25,2.25,0,0,1,2.31,1.91C114.06,145.5,112.44,144.45,112.29,143.88Z" transform="translate(-12.36 -14.41)"/><path class="cls-16" d="M128.61,194.84c0-.27-.05-.13,0-.41,1.5-.86,4.25-.68,5.89-.23l-.64.32v.08l.18.27-.08.2a14.29,14.29,0,0,0-9.5,4.82c-1.57,1.67-2.15,4.61-3.12,5.56l0-.48-.13,0-.38.27a6.92,6.92,0,0,1-1.07-2.82l.28-.22a8.77,8.77,0,0,0-2.52-3.26c-1,.29-3-1-3.22-2.17.11-.46,0-.28.37-.58,1.06-.24,1.84.32,2.72.73,1.88.9,3.21,4,4.32,4.91C123.53,198.28,125,196.62,128.61,194.84Z" transform="translate(-12.36 -14.41)"/><path class="cls-7" d="M121.32,205a23.38,23.38,0,0,1,2.85-5.39c2.38-3.05,6-4.52,9.71-5l.18.27-.08.2a14.29,14.29,0,0,0-9.5,4.82c-1.57,1.67-2.15,4.61-3.12,5.56Z" transform="translate(-12.36 -14.41)"/><path class="cls-7" d="M117.5,198.91c-1,.29-3-1-3.22-2.17.11-.46,0-.28.37-.58,1.06-.24,1.84.32,2.72.73,1.88.9,3.21,4,4.32,4.91-.1.28,0,.19-.28.41a7.69,7.69,0,0,1-1.16-1.52c-.46-1.13-4.24-4.73-5.43-3.91.29.68,1.84,1.47,2.56,2Z" transform="translate(-12.36 -14.41)"/><path class="cls-7" d="M128.61,194.84c0-.27-.05-.13,0-.41,1.5-.86,4.25-.68,5.89-.23l-.64.32A7.36,7.36,0,0,0,128.61,194.84Z" transform="translate(-12.36 -14.41)"/><path class="cls-7" d="M120,202.17c.39.92.79,1.85,1.17,2.77l-.38.27a6.92,6.92,0,0,1-1.07-2.82Z" transform="translate(-12.36 -14.41)"/><path class="cls-16" d="M19.34,199c7.19-2.3,12.78.2,16.84,6.3.67,1.38,2.32,4.62,2.13,6.31a2,2,0,0,1-.38.57c-.32-.68-.7-1.69-1-2.39-1.92-5.05-5.85-9.95-11.49-10.75A57.15,57.15,0,0,0,19.34,199Z" transform="translate(-12.36 -14.41)"/><path class="cls-14" d="M130.27,201.88c2.95-.09,6.88-.45,9.55,1.18a.92.92,0,0,1,.07,1.43c-.54-.08-2.16-.88-2.83-1.06a11.65,11.65,0,0,0-5.35-.2c-.23,0-1.38.25-1.55.26a34.38,34.38,0,0,0-7.18,2.83l-.2-.22C123.83,203.88,128,202.32,130.27,201.88Z" transform="translate(-12.36 -14.41)"/><path class="cls-7" d="M130.27,201.88c2.95-.09,6.88-.45,9.55,1.18a.92.92,0,0,1,.07,1.43c-.54-.08-2.16-.88-2.83-1.06a11.65,11.65,0,0,0-5.35-.2c-.23,0-1.38.25-1.55.26l-.43-.47a19.19,19.19,0,0,1,6.19-.37c.89.11,3.31,1.09,3.75,1-1-1.74-7.48-1.62-9.35-1.41Z" transform="translate(-12.36 -14.41)"/><path class="cls-7" d="M130.27,201.88l0,.34a14.19,14.19,0,0,0-6.17,2.94,43.69,43.69,0,0,1,5.58-2.14l.43.47a34.38,34.38,0,0,0-7.18,2.83l-.2-.22C123.83,203.88,128,202.32,130.27,201.88Z" transform="translate(-12.36 -14.41)"/><path class="cls-16" d="M39.79,209.87a32.58,32.58,0,0,1,.9-8.46c.83-3.36,2.66-7.35,5.77-9.21a9.35,9.35,0,0,1,5-1.29c.19,0,.16,0,.26.22a7.23,7.23,0,0,1-1.85.5c-5.74,1.42-8.46,8.4-9,13.69v.15a12.42,12.42,0,0,1,.28,2.79,9.46,9.46,0,0,1-.78.64Z" transform="translate(-12.36 -14.41)"/><path class="cls-5" d="M40.92,205.47a12.42,12.42,0,0,1,.28,2.79,9.46,9.46,0,0,1-.78.64C40.63,207.94,40.73,206.55,40.92,205.47Z" transform="translate(-12.36 -14.41)"/><path class="cls-17" d="M103.12,108.59a1.77,1.77,0,0,1,1.75.37,1.79,1.79,0,1,1-1.75-.37Z" transform="translate(-12.36 -14.41)"/><path class="cls-17" d="M52.1,165.86c1.86,0,2.09,1.65.81,2.58C51,168.38,50.93,167,52.1,165.86Z" transform="translate(-12.36 -14.41)"/><path class="cls-14" d="M56.47,175.75c1.4.09,3.5,1.69,4.4,2.75,1.85,2.21,3.56,6.27,3.34,9.16-.3-.92-.43-2.54-.83-3.73C61.85,179.33,60.51,177.9,56.47,175.75Z" transform="translate(-12.36 -14.41)"/><path class="cls-16" d="M28.72,208.41a7.74,7.74,0,0,1,7.91,5.08l-.07.12-.29-.46c-2.06-3.55-4.71-4.79-8.76-4.35-.19,0-.1,0-.27-.05A4.78,4.78,0,0,1,28.72,208.41Z" transform="translate(-12.36 -14.41)"/><path class="cls-17" d="M86.52,158.22a1,1,0,0,1,1.41,1.15,1,1,0,1,1-1.41-1.15Z" transform="translate(-12.36 -14.41)"/><path class="cls-17" d="M44.42,111.56a1,1,0,0,1,1.34.4,1,1,0,0,1-.37,1.35,1,1,0,0,1-1,0,1,1,0,0,1,.05-1.75Z" transform="translate(-12.36 -14.41)"/><path class="cls-17" d="M55.55,58.69a1,1,0,0,1,.23,2,1,1,0,1,1-.23-2Z" transform="translate(-12.36 -14.41)"/><path class="cls-17" d="M62.73,121.48a1,1,0,1,1,.2,2,1,1,0,0,1-1.08-.88A1,1,0,0,1,62.73,121.48Z" transform="translate(-12.36 -14.41)"/><path class="cls-17" d="M77.67,82a1,1,0,0,1,.77,1.78,1,1,0,0,1-1-.1A1,1,0,0,1,77.67,82Z" transform="translate(-12.36 -14.41)"/><path class="cls-17" d="M106.3,161.66a1,1,0,1,1-1,1A1,1,0,0,1,106.3,161.66Z" transform="translate(-12.36 -14.41)"/><path class="cls-16" d="M35.13,189c2.45.37,5,4.63,5.27,6.93a20.75,20.75,0,0,1-.95-1.95C38.39,191.44,37.33,190.54,35.13,189Z" transform="translate(-12.36 -14.41)"/><path class="cls-14" d="M38.62,200.27a6.69,6.69,0,0,0-2-2.67,9.32,9.32,0,0,1-1.34-1.16c1.59.34,2.9,2.38,3.57,3.76Z" transform="translate(-12.36 -14.41)"/><path class="cls-16" d="M48,200l.06.15-.47.38A7.91,7.91,0,0,0,45.52,203l-.12-.11C45.44,201.86,47.13,200.52,48,200Z" transform="translate(-12.36 -14.41)"/><path class="cls-5" d="M134.51,194.2c.32.16.62.26.78.56-.29.48-.79.35-1.31.31l.08-.2-.18-.27v-.08Z" transform="translate(-12.36 -14.41)"/><path class="cls-18" d="M38.82,200.2a2.34,2.34,0,0,1,.38,1.07c-.32-.24-.23-.19-.4-.58l-.18-.42Z" transform="translate(-12.36 -14.41)"/></svg>